{"glyphs":{"0":{"ha":440,"x_min":0,"x_max":0,"o":"m 327 40 b 362 94 342 55 353 75 b 389 176 374 120 382 148 b 407 363 403 237 409 300 b 381 540 406 422 400 483 b 348 609 373 564 363 588 b 291 655 333 629 314 645 b 235 669 274 663 254 667 b 159 664 210 671 184 670 b 84 614 129 655 102 640 b 51 539 68 592 58 565 b 37 458 44 512 39 485 b 35 329 33 415 32 372 b 36 318 35 325 35 322 b 36 316 36 317 36 316 b 36 313 36 315 36 314 b 37 259 37 295 36 277 b 42 178 37 232 38 205 b 63 89 45 148 52 118 b 112 24 73 64 89 40 b 164 3 127 13 146 6 b 246 1 191 -3 219 -4 b 301 18 266 4 284 9 b 327 40 311 24 320 32 z m 209 626 b 210 626 209 626 209 626 b 210 626 210 626 210 626 b 209 626 200 625 205 626 z m 217 627 b 217 627 217 627 217 627 b 220 627 218 627 219 627 b 217 627 219 627 218 627 z m 288 216 b 269 135 283 188 277 161 b 232 63 260 110 249 84 b 222 51 229 59 226 55 b 211 43 218 48 215 45 b 211 43 211 43 211 43 b 198 53 206 46 202 49 b 165 109 182 68 172 88 b 145 284 147 165 146 226 b 145 313 145 294 145 303 b 144 315 145 314 144 314 b 145 318 144 316 145 317 b 142 378 143 338 142 358 b 150 491 142 416 144 453 b 164 553 153 512 158 533 b 200 615 172 576 183 598 b 213 625 204 619 208 622 b 214 625 214 625 214 625 b 229 614 219 621 224 618 b 273 537 250 593 263 565 b 298 384 289 488 296 436 b 288 216 300 328 297 271 z "},"1":{"ha":319,"x_min":0,"x_max":0,"o":"m 283 511 b 269 636 283 553 281 596 b 264 645 268 640 267 643 b 253 652 261 648 257 650 b 221 658 243 656 232 657 b 187 655 210 658 198 658 b 162 642 178 653 167 650 b 71 523 135 600 105 560 b 77 506 66 517 73 509 b 110 496 85 500 100 497 b 151 498 123 495 138 495 b 174 509 160 500 168 503 b 173 407 174 475 174 441 b 172 164 173 326 173 245 b 171 28 172 119 171 74 b 187 13 171 20 181 15 b 226 7 198 8 213 6 b 264 13 238 7 252 8 b 280 28 270 16 280 20 b 282 270 281 109 281 189 b 283 511 282 350 283 430 z "},"2":{"ha":442,"x_min":0,"x_max":0,"o":"m 282 17 b 303 20 289 18 296 19 b 306 20 304 20 305 20 b 310 17 307 19 309 18 b 313 13 311 16 312 15 b 338 0 319 6 329 2 b 380 -2 351 -3 367 -4 b 412 8 391 0 404 1 b 418 25 417 12 423 18 b 281 62 386 64 328 67 b 228 55 263 61 246 58 b 167 46 208 52 188 49 b 162 46 165 46 163 46 b 162 48 162 47 162 47 b 189 86 168 63 178 75 b 259 152 212 108 237 129 b 319 231 282 176 302 202 b 378 418 352 287 371 353 b 351 604 383 479 380 548 b 328 635 345 615 337 626 b 309 650 322 640 316 646 b 272 666 298 657 285 662 b 177 667 241 675 208 673 b 119 646 156 664 137 656 b 24 484 60 615 26 549 b 25 459 23 475 24 467 b 41 444 25 451 34 446 b 79 437 52 439 67 437 b 118 444 92 437 106 438 b 133 459 123 446 134 451 b 142 538 131 486 134 512 b 182 603 151 562 164 584 b 210 622 191 610 200 617 b 218 626 212 624 215 625 b 226 620 221 624 223 623 b 256 568 240 606 249 587 b 271 474 266 537 270 506 b 262 370 271 439 268 404 b 247 315 258 351 253 333 b 201 221 236 282 221 250 b 130 139 181 191 156 165 b 74 87 111 122 91 106 b 57 58 67 78 60 69 b 55 15 52 45 47 28 b 72 2 59 9 67 5 b 100 -4 81 -1 91 -3 b 145 -3 115 -6 130 -5 b 192 4 161 -1 176 2 b 282 17 222 8 252 12 z "},"3":{"ha":504,"x_min":0,"x_max":0,"o":"m 196 -4 b 264 -2 218 -5 241 -5 b 373 36 303 4 340 15 b 474 183 426 68 461 123 b 443 350 486 240 475 301 b 382 412 427 374 406 396 b 318 441 362 425 340 434 b 358 476 333 450 346 462 b 385 574 380 502 391 540 b 364 621 382 591 375 608 b 317 655 351 636 335 647 b 240 670 293 665 266 669 b 161 658 213 671 186 666 b 50 584 117 644 82 615 b 55 567 44 578 51 570 b 88 557 64 561 78 558 b 130 559 102 555 116 555 b 141 562 133 560 137 561 b 155 572 146 564 151 567 b 157 574 156 573 156 573 b 216 618 175 591 194 607 b 224 622 218 620 221 621 b 231 625 227 623 229 624 b 231 625 231 625 231 625 b 235 626 232 625 234 626 b 235 626 235 626 235 626 b 242 623 237 625 240 624 b 255 614 247 620 251 617 b 273 585 263 605 269 596 b 272 521 280 564 279 542 b 244 478 266 505 257 490 b 217 459 236 471 227 464 b 206 454 214 457 210 455 b 199 451 204 453 202 452 b 197 451 199 451 198 451 b 174 430 187 448 170 442 b 185 420 176 425 180 422 b 213 412 193 415 204 412 b 237 409 221 411 229 410 b 239 409 238 409 238 409 b 248 407 242 408 245 408 b 259 404 252 406 256 405 b 261 403 244 408 257 405 b 275 397 266 402 271 400 b 310 372 288 390 299 382 b 360 293 333 350 350 323 b 359 162 374 250 373 205 b 308 79 348 131 331 103 b 270 53 296 69 284 60 b 254 46 265 50 259 48 b 247 43 252 45 249 44 b 243 42 245 43 244 42 b 233 40 240 41 236 40 b 232 40 233 40 233 40 b 224 39 230 39 227 39 b 224 39 224 39 224 39 b 218 39 222 39 220 39 b 216 39 217 39 217 39 b 210 40 214 39 212 40 b 206 41 208 40 207 40 b 197 43 203 41 200 42 b 195 44 196 43 196 43 b 180 50 190 45 185 48 b 151 70 170 56 160 62 b 124 112 140 82 130 96 b 120 130 122 118 121 124 b 104 145 119 138 111 142 b 66 151 93 150 78 152 b 27 145 53 151 39 150 b 11 130 22 142 10 138 b 52 53 15 100 30 74 b 141 5 77 29 108 15 b 196 -4 159 0 177 -3 z "},"4":{"ha":399,"x_min":0,"x_max":0,"o":"m 247 14 b 262 -2 246 6 257 0 b 301 -8 274 -7 289 -8 b 340 -2 314 -8 328 -7 b 355 14 346 1 355 5 b 359 262 357 96 359 179 b 360 510 360 345 360 427 b 359 650 360 556 359 603 b 343 665 359 658 348 663 b 304 672 331 670 316 672 b 266 665 291 671 277 670 b 250 650 259 662 250 658 b 251 401 251 567 251 484 b 251 325 251 376 251 350 b 228 323 243 324 236 323 b 216 322 224 322 220 322 b 214 322 216 322 215 322 b 170 321 199 321 185 321 b 147 321 162 321 155 321 b 136 322 143 322 140 322 b 136 322 158 321 141 322 b 125 323 132 322 129 322 b 126 328 126 325 126 327 b 131 348 128 335 129 342 b 149 411 136 369 142 390 b 163 453 153 425 158 439 b 220 604 180 504 198 555 b 238 640 226 616 232 628 b 200 667 247 659 211 666 b 158 665 186 668 171 669 b 133 652 150 663 137 660 b 47 434 97 582 71 508 b 22 347 38 405 29 376 b 17 324 20 340 18 332 b 55 288 15 304 40 293 b 111 280 74 283 92 281 b 171 277 131 278 151 277 b 250 280 198 277 224 278 b 249 154 250 238 250 196 b 247 14 248 107 248 60 z "},"5":{"ha":431,"x_min":0,"x_max":0,"o":"m 396 304 b 359 374 388 329 376 353 b 297 425 342 395 321 412 b 175 456 259 445 218 454 b 145 455 165 456 155 456 b 137 612 144 508 142 560 b 245 610 173 611 209 611 b 283 616 257 609 272 611 b 299 632 288 618 300 624 b 283 647 298 640 290 644 b 245 653 271 652 258 653 b 102 657 197 654 149 656 b 83 656 96 657 90 657 b 81 656 83 656 82 656 b 42 649 68 655 54 655 b 26 634 37 647 26 642 b 37 423 33 564 36 493 b 49 409 37 417 44 412 b 59 404 52 407 56 405 b 98 398 71 399 85 397 b 136 404 110 398 124 399 b 148 409 140 406 144 407 b 153 410 150 410 152 410 b 159 412 155 411 157 411 b 160 412 159 412 160 412 b 165 412 161 412 163 412 b 165 412 165 412 165 412 b 169 412 167 412 168 412 b 171 412 170 412 170 412 b 176 412 173 412 174 412 b 177 411 177 411 177 411 b 186 409 180 411 183 410 b 188 409 187 409 187 409 b 194 406 190 408 192 407 b 208 401 199 405 203 403 b 241 377 220 394 231 386 b 287 303 262 356 277 331 b 287 180 300 263 300 220 b 231 92 275 147 256 117 b 190 63 218 81 205 71 b 171 55 184 60 177 57 b 170 55 171 55 170 55 b 164 53 168 54 166 53 b 159 55 162 54 160 54 b 151 60 156 57 154 58 b 119 70 143 66 129 69 b 77 68 106 71 90 71 b 52 55 69 66 56 63 b 57 38 48 48 51 42 b 168 9 88 15 131 8 b 281 39 208 11 246 20 b 344 89 305 52 326 69 b 385 152 361 108 375 129 b 396 304 407 200 412 253 z m 148 409 b 148 409 143 407 145 408 z "},"6":{"ha":400,"x_min":0,"x_max":0,"o":"m 380 147 b 354 205 377 168 368 188 b 184 253 314 255 244 265 b 140 238 169 251 154 245 b 153 359 140 279 145 319 b 171 426 158 382 164 404 b 214 522 183 459 197 491 b 271 602 230 550 248 579 b 296 621 279 609 287 616 b 309 626 300 623 305 624 b 325 641 315 628 325 634 b 309 657 325 649 315 654 b 232 657 285 666 256 665 b 128 565 186 642 153 604 b 67 440 103 526 82 484 b 35 158 36 350 23 253 b 53 87 38 134 44 110 b 95 32 63 65 77 47 b 164 -1 115 15 139 5 b 271 -1 198 -10 237 -10 b 374 85 316 10 357 40 b 380 147 381 105 384 126 z m 268 95 b 241 52 262 79 253 65 b 222 39 235 47 229 43 b 217 37 220 38 219 37 b 215 38 216 37 216 37 b 208 41 212 39 210 40 b 186 56 200 45 193 50 b 154 109 172 71 161 90 b 149 128 152 115 151 121 b 162 137 154 130 159 133 b 199 193 170 158 183 177 b 223 211 206 199 215 206 b 227 212 225 211 226 212 b 242 202 233 209 237 206 b 268 160 253 190 262 176 b 268 95 275 139 275 117 z "},"7":{"ha":474,"x_min":0,"x_max":0,"o":"m 432 480 b 446 554 438 505 444 529 b 432 620 447 576 444 600 b 341 666 413 651 375 662 b 282 668 321 669 302 668 b 228 666 264 668 246 667 b 109 657 189 664 149 661 b 77 647 99 656 85 653 b 71 630 72 643 67 637 b 96 617 77 623 88 619 b 138 615 110 614 124 613 b 198 620 158 617 178 619 b 228 622 208 621 218 622 b 231 623 229 622 230 623 b 244 623 235 623 240 623 b 302 625 263 624 283 625 b 306 625 303 625 304 625 b 310 624 307 625 308 624 b 311 624 310 624 311 624 b 312 623 311 624 312 624 b 319 618 315 622 317 620 b 333 596 325 612 330 604 b 331 513 341 569 337 540 b 303 396 323 474 312 435 b 244 150 283 314 264 232 b 210 12 233 104 222 58 b 226 -3 209 5 223 -2 b 265 -10 238 -8 253 -10 b 303 -3 278 -10 292 -9 b 319 12 311 0 317 3 b 410 388 350 137 380 262 b 432 480 417 419 425 449 z "},"8":{"ha":443,"x_min":0,"x_max":0,"o":"m 181 657 b 114 607 155 648 130 630 b 107 446 79 560 84 496 b 145 392 117 425 130 408 b 35 222 93 347 53 289 b 31 124 26 190 23 156 b 85 38 39 89 57 60 b 209 -2 120 10 166 -1 b 339 39 254 -2 304 9 b 398 123 366 62 385 91 b 407 229 411 157 418 193 b 354 312 396 261 378 289 b 317 345 342 324 330 335 b 335 356 324 347 332 351 b 379 439 351 383 367 410 b 398 528 390 467 398 497 b 379 602 397 553 391 579 b 318 656 365 626 343 645 b 181 657 275 674 224 672 z m 203 567 b 230 609 209 583 218 597 b 247 621 235 613 241 618 b 256 615 250 619 253 617 b 282 572 267 603 276 588 b 279 464 293 536 290 499 b 251 403 271 443 261 423 b 205 475 231 424 215 447 b 203 567 196 505 194 537 z m 296 143 b 248 64 285 114 270 86 b 226 48 241 58 234 52 b 218 44 223 47 221 45 b 214 43 217 44 216 43 b 214 43 214 43 214 43 b 211 42 213 43 212 42 b 208 43 210 42 209 42 b 208 43 208 43 208 43 b 206 44 207 43 206 43 b 198 47 203 45 200 46 b 174 64 189 52 181 57 b 142 114 160 78 149 95 b 147 233 131 153 135 195 b 207 337 160 271 181 306 b 245 305 220 326 233 316 b 298 228 267 283 287 258 b 296 143 307 200 304 171 z "},"9":{"ha":400,"x_min":0,"x_max":0,"o":"m 229 230 b 186 134 217 196 203 164 b 129 53 170 105 152 76 b 104 35 121 46 113 40 b 91 30 100 33 95 31 b 75 14 85 28 75 22 b 91 -1 75 6 85 1 b 168 -1 115 -11 144 -9 b 272 90 214 14 247 51 b 333 215 297 129 318 172 b 365 497 364 305 377 402 b 347 568 362 522 356 546 b 305 624 337 590 323 608 b 236 657 285 640 261 650 b 129 657 202 665 163 666 b 26 570 84 645 43 615 b 20 509 19 550 16 530 b 46 450 23 488 32 467 b 216 402 86 400 156 390 b 260 417 231 405 246 410 b 247 296 260 376 255 336 b 229 230 242 274 236 251 z m 238 519 b 201 463 230 498 217 479 b 176 445 194 456 185 450 b 173 443 175 444 174 443 b 158 453 167 446 163 450 b 132 495 147 465 138 479 b 132 560 125 516 125 539 b 159 603 138 576 147 591 b 178 617 165 608 171 613 b 183 619 180 617 181 618 b 185 618 184 618 184 618 b 192 615 188 617 190 616 b 214 599 200 610 207 605 b 246 546 228 584 239 566 b 251 528 248 540 249 534 b 238 519 246 526 241 523 z "},"\u0000":{"ha":0,"x_min":0,"x_max":0,"o":""},"\n":{"ha":0,"x_min":0,"x_max":0,"o":""},"\r":{"ha":0,"x_min":0,"x_max":0,"o":""}," ":{"ha":260,"x_min":0,"x_max":0,"o":""},"!":{"ha":186,"x_min":0,"x_max":0,"o":"m 56 110 b 94 104 67 105 82 103 b 133 110 107 104 121 105 b 149 125 139 113 149 117 b 145 517 146 256 145 386 b 146 627 145 553 145 590 b 130 643 146 635 135 640 b 91 649 118 647 104 649 b 53 643 79 649 65 648 b 37 627 46 640 37 636 b 38 236 36 497 36 367 b 40 125 38 199 39 162 b 56 110 40 118 50 113 z m 133 86 b 95 92 122 90 107 92 b 56 86 82 92 68 91 b 40 70 50 83 40 79 b 40 20 40 54 40 37 b 56 5 40 12 51 7 b 95 -2 68 0 83 -2 b 133 5 108 -1 122 -1 b 149 20 140 8 149 12 b 149 70 149 37 149 54 b 133 86 149 78 139 83 z "},"\"":{"ha":413,"x_min":0,"x_max":0,"o":"m 217 675 b 201 690 215 683 208 687 b 162 696 189 695 174 697 b 124 690 149 696 135 695 b 108 675 119 688 106 682 b 106 623 112 657 111 640 b 84 588 101 610 93 598 b 67 576 79 583 73 580 b 64 575 66 576 65 575 b 60 573 64 574 62 574 b 59 573 60 573 59 573 b 27 563 49 572 35 569 b 21 546 22 559 17 553 b 46 533 27 539 38 535 b 88 531 60 530 74 529 b 195 584 129 535 169 551 b 217 675 215 608 223 643 z m 387 675 b 372 690 386 683 379 687 b 333 696 360 695 345 697 b 294 690 320 696 306 695 b 279 675 289 688 277 682 b 276 623 282 657 281 640 b 254 588 272 610 264 598 b 238 576 249 583 244 580 b 235 575 237 576 236 575 b 231 573 234 574 232 574 b 230 573 230 573 230 573 b 198 563 220 572 206 569 b 192 546 192 559 187 553 b 217 533 198 539 209 535 b 259 531 231 530 245 529 b 366 584 299 535 340 551 b 387 675 386 608 394 643 z "},"“":{"ha":413,"x_min":0,"x_max":0,"o":"m 217 675 b 201 690 215 683 208 687 b 162 696 189 695 174 697 b 124 690 149 696 135 695 b 108 675 119 688 106 682 b 106 623 112 657 111 640 b 84 588 101 610 93 598 b 67 576 79 583 73 580 b 64 575 66 576 65 575 b 60 573 64 574 62 574 b 59 573 60 573 59 573 b 27 563 49 572 35 569 b 21 546 22 559 17 553 b 46 533 27 539 38 535 b 88 531 60 530 74 529 b 195 584 129 535 169 551 b 217 675 215 608 223 643 z m 387 675 b 372 690 386 683 379 687 b 333 696 360 695 345 697 b 294 690 320 696 306 695 b 279 675 289 688 277 682 b 276 623 282 657 281 640 b 254 588 272 610 264 598 b 238 576 249 583 244 580 b 235 575 237 576 236 575 b 231 573 234 574 232 574 b 230 573 230 573 230 573 b 198 563 220 572 206 569 b 192 546 192 559 187 553 b 217 533 198 539 209 535 b 259 531 231 530 245 529 b 366 584 299 535 340 551 b 387 675 386 608 394 643 z "},"”":{"ha":413,"x_min":0,"x_max":0,"o":"m 217 675 b 201 690 215 683 208 687 b 162 696 189 695 174 697 b 124 690 149 696 135 695 b 108 675 119 688 106 682 b 106 623 112 657 111 640 b 84 588 101 610 93 598 b 67 576 79 583 73 580 b 64 575 66 576 65 575 b 60 573 64 574 62 574 b 59 573 60 573 59 573 b 27 563 49 572 35 569 b 21 546 22 559 17 553 b 46 533 27 539 38 535 b 88 531 60 530 74 529 b 195 584 129 535 169 551 b 217 675 215 608 223 643 z m 387 675 b 372 690 386 683 379 687 b 333 696 360 695 345 697 b 294 690 320 696 306 695 b 279 675 289 688 277 682 b 276 623 282 657 281 640 b 254 588 272 610 264 598 b 238 576 249 583 244 580 b 235 575 237 576 236 575 b 231 573 234 574 232 574 b 230 573 230 573 230 573 b 198 563 220 572 206 569 b 192 546 192 559 187 553 b 217 533 198 539 209 535 b 259 531 231 530 245 529 b 366 584 299 535 340 551 b 387 675 386 608 394 643 z "},"#":{"ha":664,"x_min":0,"x_max":0,"o":"m 649 419 b 633 435 648 428 640 432 b 595 441 621 439 608 442 b 531 439 574 441 553 440 b 548 513 537 464 542 489 b 581 653 559 560 570 606 b 565 668 583 660 569 667 b 527 675 554 673 539 675 b 488 668 514 674 500 674 b 472 653 481 665 474 661 b 422 438 455 581 438 510 b 280 438 375 437 327 437 b 297 513 286 463 291 488 b 330 653 308 560 319 606 b 314 668 332 660 318 667 b 276 675 303 673 288 675 b 237 668 263 674 249 674 b 221 653 230 665 223 661 b 172 439 204 582 187 511 b 93 441 145 440 119 441 b 54 435 81 442 66 440 b 38 420 50 433 38 427 b 54 404 39 412 48 407 b 93 398 67 400 80 398 b 162 396 116 397 139 396 b 140 291 154 361 147 326 b 71 293 117 292 94 293 b 33 287 59 294 44 292 b 17 272 28 285 16 279 b 33 256 18 263 26 259 b 71 250 45 251 58 250 b 131 248 91 249 111 249 b 112 156 124 218 118 187 b 85 15 103 109 94 62 b 101 0 84 8 97 1 b 140 -7 113 -5 128 -7 b 178 0 153 -6 167 -6 b 194 15 186 3 193 7 b 239 246 208 92 223 169 b 381 246 286 246 334 245 b 363 156 375 216 369 186 b 336 15 354 109 345 62 b 352 0 335 8 348 1 b 391 -7 364 -5 379 -7 b 429 0 404 -6 418 -6 b 445 15 436 3 444 7 b 490 247 459 93 474 170 b 573 250 518 248 545 249 b 612 256 586 250 600 251 b 628 271 616 258 628 264 b 612 287 627 279 618 284 b 573 293 600 291 586 294 b 499 291 549 292 524 292 b 522 396 507 326 514 361 b 595 398 546 396 570 397 b 633 404 608 398 621 399 b 649 419 638 406 650 412 z m 390 289 b 248 290 343 289 295 289 b 270 394 255 324 263 359 b 412 394 318 394 365 394 b 390 289 405 359 397 324 z "},"$":{"ha":364,"x_min":0,"x_max":0,"o":"m 330 208 b 246 344 315 261 282 304 b 233 359 242 349 237 354 b 236 554 234 424 235 489 b 236 556 236 554 236 555 b 239 556 237 556 238 556 b 277 562 251 556 265 557 b 293 577 283 565 294 569 b 237 650 290 611 266 636 b 238 728 238 676 238 702 b 222 743 238 736 228 741 b 184 750 211 748 196 750 b 145 743 171 749 157 749 b 129 728 139 740 130 736 b 129 664 129 706 129 685 b 90 651 115 661 102 657 b 41 600 69 640 51 622 b 47 458 19 554 26 503 b 124 352 65 418 94 384 b 122 159 123 288 122 223 b 91 156 112 160 101 159 b 66 143 83 154 70 151 b 58 73 55 122 51 96 b 75 40 62 61 67 49 b 113 12 86 27 98 19 b 128 6 117 9 122 7 b 133 -62 129 -17 131 -40 b 149 -78 134 -70 143 -75 b 188 -84 160 -83 175 -84 b 226 -78 200 -84 214 -83 b 242 -62 232 -75 243 -70 b 237 3 240 -41 238 -19 b 309 53 266 11 292 28 b 335 126 323 75 331 101 b 330 208 339 154 337 182 z "},"%":{"ha":504,"x_min":0,"x_max":0,"o":"m 116 495 b 195 506 142 493 171 495 b 232 532 209 513 221 521 b 267 586 248 547 259 566 b 286 659 276 610 282 635 b 269 722 289 682 284 705 b 174 758 244 749 209 757 b 69 723 137 759 96 749 b 44 692 59 714 50 704 b 28 654 37 680 32 667 b 28 652 28 653 28 652 b 33 537 8 616 8 570 b 116 495 53 511 84 498 z m 127 627 b 140 651 130 635 134 643 b 140 662 142 654 142 658 b 166 704 146 677 154 692 b 168 705 167 704 167 705 b 175 691 171 701 173 696 b 175 647 179 677 177 662 b 164 603 172 632 168 617 b 136 552 157 584 148 567 b 126 571 132 558 129 564 b 127 627 121 589 122 608 z m 468 173 b 374 209 444 200 408 208 b 269 174 337 210 296 200 b 243 143 259 165 250 155 b 228 105 236 131 231 118 b 228 102 227 104 227 103 b 233 -12 208 67 208 21 b 316 -54 253 -38 284 -52 b 395 -43 342 -56 370 -54 b 432 -18 409 -36 420 -28 b 466 37 448 -2 459 17 b 485 110 475 60 482 85 b 468 173 488 132 483 156 z m 374 98 b 363 53 371 83 368 68 b 335 3 357 35 348 18 b 326 22 331 9 328 15 b 327 77 321 40 321 59 b 339 101 330 86 334 94 b 339 113 342 105 341 109 b 366 155 345 128 354 143 b 367 156 366 155 367 156 b 375 142 370 152 373 147 b 374 98 379 128 377 113 z m 320 385 b 397 569 346 447 372 508 b 457 708 417 615 437 662 b 462 720 459 712 461 716 b 457 737 466 727 463 732 b 424 747 448 743 434 746 b 382 744 410 748 396 748 b 371 741 379 743 375 742 b 357 731 366 739 361 736 b 301 601 338 688 319 645 b 225 420 275 541 250 480 b 145 229 198 356 171 293 b 77 68 122 175 100 122 b 37 -25 64 37 51 6 b 35 -30 37 -26 36 -28 b 41 -46 32 -37 34 -42 b 73 -56 49 -53 63 -55 b 115 -54 87 -58 102 -58 b 126 -51 119 -53 122 -52 b 140 -41 132 -49 136 -46 b 175 40 153 -14 164 13 b 241 196 197 92 219 144 b 320 385 267 259 294 322 z "},"&":{"ha":547,"x_min":0,"x_max":0,"o":"m 470 203 b 380 258 443 225 412 243 b 342 264 369 263 354 264 b 303 258 330 264 314 263 b 287 242 297 255 286 250 b 303 227 288 234 296 230 b 315 221 307 225 311 223 b 319 219 316 221 317 220 b 316 216 318 218 317 217 b 289 175 307 202 299 188 b 238 269 270 205 253 237 b 228 292 235 277 232 284 b 297 391 251 325 275 358 b 338 453 311 411 325 432 b 373 527 353 476 365 500 b 331 651 385 572 374 626 b 217 672 297 671 256 675 b 133 641 188 669 157 660 b 72 510 92 610 74 560 b 79 431 71 483 75 457 b 96 359 84 407 89 383 b 118 295 102 338 110 316 b 64 205 98 266 80 236 b 29 113 49 176 35 145 b 32 68 27 98 27 83 b 58 29 37 52 45 40 b 106 5 72 17 89 10 b 165 -2 125 0 146 -3 b 281 34 207 -2 247 9 b 287 38 283 35 285 37 b 345 3 304 23 323 11 b 398 -10 362 -4 380 -8 b 440 -7 412 -11 426 -11 b 465 6 446 -6 461 -2 b 427 32 474 25 438 31 b 425 33 426 32 426 32 b 421 34 424 33 422 33 b 413 37 418 35 416 36 b 378 64 400 45 388 54 b 346 98 366 74 356 86 b 356 111 349 102 353 107 b 401 172 372 131 387 151 b 409 171 403 172 406 171 b 451 173 422 170 438 170 b 476 186 459 175 472 178 b 470 203 479 193 476 198 z m 189 562 b 221 615 196 582 207 600 b 239 627 227 619 233 624 b 239 628 239 627 239 627 b 247 622 242 626 245 624 b 264 594 255 614 260 604 b 262 522 271 570 269 546 b 218 440 252 493 235 466 b 193 404 210 428 202 416 b 186 442 191 417 188 430 b 189 562 180 482 177 523 z m 207 72 b 172 46 196 62 185 53 b 164 42 169 45 167 43 b 163 43 164 43 163 43 b 153 50 159 45 156 47 b 140 71 147 56 143 63 b 144 137 134 93 138 116 b 167 191 151 155 159 173 b 229 101 186 159 206 129 b 231 98 230 100 231 99 b 207 72 224 89 216 80 z "},"'":{"ha":242,"x_min":0,"x_max":0,"o":"m 217 675 b 201 690 215 683 208 687 b 162 696 189 695 174 697 b 124 690 150 696 136 695 b 108 675 119 688 106 682 b 106 623 112 657 111 640 b 84 588 101 610 93 598 b 67 576 79 583 73 580 b 64 575 66 576 65 575 b 60 573 64 574 62 574 b 59 573 60 573 59 573 b 27 563 49 572 35 569 b 21 546 22 559 17 553 b 46 533 27 539 38 535 b 88 531 60 530 74 529 b 195 584 129 535 169 551 b 217 675 215 608 223 643 z "},"‘":{"ha":242,"x_min":0,"x_max":0,"o":"m 217 675 b 201 690 215 683 208 687 b 162 696 189 695 174 697 b 124 690 150 696 136 695 b 108 675 119 688 106 682 b 106 623 112 657 111 640 b 84 588 101 610 93 598 b 67 576 79 583 73 580 b 64 575 66 576 65 575 b 60 573 64 574 62 574 b 59 573 60 573 59 573 b 27 563 49 572 35 569 b 21 546 22 559 17 553 b 46 533 27 539 38 535 b 88 531 60 530 74 529 b 195 584 129 535 169 551 b 217 675 215 608 223 643 z "},"’":{"ha":242,"x_min":0,"x_max":0,"o":"m 217 675 b 201 690 215 683 208 687 b 162 696 189 695 174 697 b 124 690 150 696 136 695 b 108 675 119 688 106 682 b 106 623 112 657 111 640 b 84 588 101 610 93 598 b 67 576 79 583 73 580 b 64 575 66 576 65 575 b 60 573 64 574 62 574 b 59 573 60 573 59 573 b 27 563 49 572 35 569 b 21 546 22 559 17 553 b 46 533 27 539 38 535 b 88 531 60 530 74 529 b 195 584 129 535 169 551 b 217 675 215 608 223 643 z "},"(":{"ha":419,"x_min":0,"x_max":0,"o":"m 344 -20 b 272 30 318 -7 294 11 b 184 159 234 67 205 111 b 168 199 178 172 173 185 b 141 341 153 245 144 293 b 149 488 138 390 140 440 b 168 564 153 514 160 539 b 238 694 184 611 207 656 b 264 722 246 704 255 713 b 317 761 280 737 297 750 b 322 777 323 764 326 771 b 297 791 318 785 304 789 b 222 783 273 796 245 795 b 101 659 171 754 130 709 b 39 482 69 605 49 544 b 38 290 28 419 28 353 b 100 106 47 225 68 162 b 229 -31 131 51 175 3 b 249 -42 236 -35 243 -39 b 282 -52 260 -48 270 -51 b 324 -50 295 -54 311 -54 b 349 -37 332 -48 345 -45 b 344 -20 352 -31 350 -24 z "},")":{"ha":421,"x_min":0,"x_max":0,"o":"m 385 459 b 330 641 377 522 359 584 b 215 772 303 692 264 739 b 198 783 209 776 204 779 b 165 793 187 788 177 791 b 123 790 152 794 136 794 b 98 777 115 788 102 785 b 104 761 95 771 97 764 b 156 722 123 750 140 737 b 238 602 191 688 218 647 b 252 564 243 590 248 577 b 279 425 267 519 276 472 b 271 277 283 376 280 326 b 252 199 267 251 260 225 b 177 61 235 149 210 102 b 149 31 168 51 159 41 b 77 -20 127 11 103 -6 b 71 -37 70 -24 67 -31 b 96 -50 75 -44 89 -48 b 171 -42 121 -56 148 -54 b 309 87 227 -13 274 33 b 378 266 344 141 366 203 b 385 459 391 330 393 395 z "},"*":{"ha":294,"x_min":0,"x_max":0,"o":"m 271 622 b 255 638 270 630 262 635 b 236 643 249 640 243 642 b 250 660 241 648 245 654 b 245 676 255 666 249 673 b 212 686 236 683 222 685 b 170 684 198 688 184 688 b 145 671 161 682 151 679 b 140 665 143 669 142 667 b 134 669 138 666 136 667 b 102 679 126 675 112 678 b 60 677 88 680 73 680 b 35 664 52 675 39 672 b 40 647 31 657 34 652 b 56 635 45 643 51 639 b 49 633 53 635 51 634 b 24 620 41 631 28 628 b 29 604 20 614 23 608 b 77 591 44 595 60 592 b 63 576 72 586 68 581 b 69 559 58 570 64 563 b 101 549 77 553 91 550 b 143 552 115 548 130 548 b 153 555 147 552 150 553 b 182 547 161 550 174 548 b 224 549 195 546 211 546 b 249 562 232 551 245 554 b 243 579 253 570 249 574 b 219 600 235 586 227 593 b 255 607 231 600 245 602 b 271 622 260 609 272 615 z "},"+":{"ha":303,"x_min":0,"x_max":0,"o":"m 281 328 b 266 344 281 336 272 341 b 227 350 254 348 240 351 b 204 349 219 350 212 349 b 205 455 205 384 205 420 b 189 470 205 463 195 468 b 151 477 178 475 163 477 b 112 470 138 476 124 476 b 96 455 106 467 96 463 b 95 347 96 419 96 383 b 66 347 86 348 75 348 b 33 337 55 346 42 344 b 28 333 31 336 30 334 b 28 311 19 325 18 318 b 75 300 40 302 60 299 b 95 301 81 300 88 300 b 94 182 95 261 94 222 b 110 167 94 174 104 169 b 148 160 121 162 136 160 b 187 167 161 160 175 161 b 203 182 193 169 203 174 b 204 305 203 223 204 264 b 227 306 212 306 219 306 b 266 313 240 307 253 308 b 281 328 270 315 282 321 z "},",":{"ha":219,"x_min":0,"x_max":0,"o":"m 191 124 b 169 146 187 134 178 141 b 98 156 148 157 121 159 b 47 133 79 153 59 148 b 44 103 39 124 40 113 b 76 80 49 91 63 83 b 46 40 68 65 58 52 b 31 28 41 36 36 32 b 25 11 25 24 21 18 b 50 -2 30 4 43 -1 b 92 -4 64 -5 78 -6 b 125 6 103 -3 116 -1 b 191 92 155 27 179 57 b 195 107 193 97 194 102 b 191 124 195 113 193 118 z "},"-":{"ha":340,"x_min":0,"x_max":0,"o":"m 283 378 b 58 378 208 383 133 383 b 25 368 48 377 34 374 b 20 351 20 364 15 358 b 45 338 25 344 36 340 b 87 336 59 335 73 335 b 100 337 91 336 95 337 b 101 337 100 337 101 337 b 122 338 108 337 115 338 b 170 339 138 338 154 339 b 218 338 186 339 202 338 b 241 337 225 338 233 337 b 244 337 242 337 243 337 b 254 336 247 337 250 337 b 296 339 268 335 282 335 b 321 352 302 340 317 344 b 283 378 330 370 294 378 z "},".":{"ha":160,"x_min":0,"x_max":0,"o":"m 121 131 b 82 137 109 136 94 138 b 44 131 70 137 56 136 b 28 116 36 128 30 124 b 25 53 24 95 23 74 b 41 37 25 44 34 40 b 79 31 52 32 67 31 b 118 37 92 31 106 32 b 134 53 123 40 134 45 b 137 116 131 74 133 95 b 121 131 138 123 125 129 z "},"/":{"ha":569,"x_min":0,"x_max":0,"o":"m 493 737 b 460 747 484 743 470 746 b 418 744 446 748 432 748 b 407 741 415 743 411 742 b 393 731 402 739 397 736 b 337 601 374 688 355 645 b 260 420 311 541 286 480 b 181 229 234 356 207 293 b 113 68 158 175 135 122 b 73 -25 100 37 87 6 b 71 -30 72 -26 72 -28 b 76 -46 68 -37 70 -42 b 109 -56 85 -53 99 -55 b 151 -54 123 -58 137 -58 b 162 -51 155 -53 158 -52 b 176 -41 168 -49 172 -46 b 211 40 188 -14 200 13 b 277 196 233 92 255 144 b 356 385 303 259 329 322 b 433 569 382 447 407 508 b 493 708 453 615 473 662 b 498 720 495 712 496 716 b 493 737 501 727 499 732 z "},":":{"ha":163,"x_min":0,"x_max":0,"o":"m 43 370 b 81 363 54 365 69 363 b 120 370 94 364 108 364 b 136 385 126 373 136 377 b 136 423 135 398 135 410 b 120 438 137 430 125 436 b 82 445 109 443 94 445 b 43 438 69 444 55 444 b 28 423 37 435 28 431 b 27 385 26 410 26 398 b 43 370 27 377 37 372 z m 120 316 b 82 323 109 321 94 323 b 43 316 69 322 55 322 b 28 301 37 313 28 309 b 27 263 26 288 26 276 b 43 248 27 255 37 250 b 81 241 54 243 69 241 b 120 248 94 242 108 242 b 136 263 126 250 136 255 b 136 301 135 276 135 288 b 120 316 137 308 125 314 z "},";":{"ha":231,"x_min":0,"x_max":0,"o":"m 187 438 b 148 445 175 443 160 445 b 110 438 135 444 121 444 b 94 423 103 435 95 431 b 93 385 93 410 92 398 b 109 370 94 377 103 372 b 148 363 120 365 135 363 b 186 370 160 364 174 364 b 202 385 192 372 202 377 b 203 423 201 398 201 410 b 187 438 203 430 192 436 z m 184 316 b 145 323 173 321 158 323 b 107 316 133 322 119 322 b 91 301 101 314 90 309 b 88 243 94 282 93 262 b 68 212 83 232 77 221 b 57 204 65 209 61 206 b 57 204 57 204 57 204 b 27 194 47 203 34 200 b 21 177 22 190 17 184 b 46 164 27 170 38 166 b 88 162 60 161 74 161 b 183 213 125 165 162 181 b 200 301 200 238 204 271 b 184 316 199 309 191 313 z "},"<":{"ha":318,"x_min":0,"x_max":0,"o":"m 164 379 b 208 427 178 395 193 411 b 297 525 237 460 267 492 b 291 542 302 531 296 538 b 259 552 283 548 269 551 b 217 549 245 553 230 553 b 192 536 208 547 199 544 b 57 389 147 487 102 438 b 24 314 39 369 16 342 b 46 278 27 299 35 288 b 81 244 57 267 69 256 b 162 166 108 218 135 192 b 187 153 170 159 177 156 b 229 151 200 150 216 149 b 262 161 240 152 253 154 b 267 178 266 165 273 172 b 193 249 242 202 217 225 b 156 285 180 261 168 273 b 132 314 147 293 137 303 b 133 336 131 322 131 329 b 164 379 140 353 152 366 z "},"=":{"ha":315,"x_min":0,"x_max":0,"o":"m 38 307 b 77 300 50 302 64 300 b 238 307 130 302 184 305 b 276 313 251 307 264 308 b 292 328 281 315 293 321 b 276 344 291 337 283 341 b 238 350 264 348 251 351 b 77 344 184 348 130 346 b 38 338 64 343 50 343 b 22 322 33 335 21 330 b 38 307 23 314 31 309 z m 293 261 b 277 276 292 269 283 274 b 238 283 265 281 251 283 b 77 276 184 280 131 278 b 38 270 64 276 50 275 b 23 254 34 268 22 262 b 38 239 23 246 32 242 b 77 233 50 234 64 232 b 238 239 131 235 184 237 b 277 245 251 239 265 240 b 293 261 281 247 293 253 z "},">":{"ha":318,"x_min":0,"x_max":0,"o":"m 289 348 b 266 382 284 360 276 371 b 201 453 245 406 223 429 b 125 536 176 481 151 509 b 100 549 119 544 110 547 b 58 552 87 553 72 553 b 26 542 48 550 34 548 b 20 525 21 538 15 531 b 110 427 50 492 80 460 b 154 379 124 411 139 395 b 184 336 165 366 178 353 b 185 314 186 329 186 322 b 161 285 180 303 171 293 b 125 249 149 273 137 261 b 50 178 100 225 75 202 b 56 161 44 172 52 164 b 88 151 64 155 78 152 b 130 153 102 150 117 150 b 141 157 134 154 137 156 b 155 166 147 159 151 162 b 227 235 179 189 203 212 b 263 270 239 247 251 259 b 289 301 273 279 284 289 b 295 324 292 308 295 316 b 289 348 295 332 292 340 z "},"?":{"ha":479,"x_min":0,"x_max":0,"o":"m 432 582 b 249 661 391 641 316 660 b 147 648 215 662 179 658 b 63 605 116 639 87 627 b 33 569 51 595 41 583 b 16 528 25 556 20 542 b 25 444 9 499 12 470 b 50 431 28 437 43 433 b 92 429 63 428 78 427 b 124 439 102 430 115 432 b 130 456 130 444 133 448 b 126 464 128 459 127 461 b 127 535 119 488 120 512 b 158 584 134 554 144 570 b 186 604 167 592 176 598 b 201 610 191 606 196 609 b 209 613 204 611 208 613 b 212 614 210 613 211 613 b 222 616 215 614 218 615 b 222 616 222 616 222 616 b 232 617 225 616 229 617 b 235 617 233 617 234 617 b 250 617 240 617 245 617 b 253 617 251 617 252 617 b 259 616 255 617 257 617 b 259 616 259 616 259 616 b 260 616 260 616 260 616 b 267 615 262 616 264 615 b 270 614 268 614 269 614 b 286 607 276 612 281 610 b 311 590 295 602 303 596 b 340 544 324 577 334 561 b 336 450 349 513 346 481 b 280 345 323 412 300 379 b 233 228 258 308 241 270 b 229 158 229 205 228 181 b 245 142 230 150 239 145 b 284 136 257 138 272 136 b 322 142 297 136 311 137 b 338 158 328 145 339 150 b 352 265 336 194 341 230 b 433 417 371 320 409 365 b 454 503 445 444 454 474 b 432 582 455 531 447 559 z m 202 611 b 209 613 204 612 206 612 b 202 611 207 612 205 612 z m 323 96 b 284 102 311 100 296 102 b 246 96 272 102 258 101 b 230 80 239 93 230 89 b 226 33 229 64 228 49 b 242 18 225 26 237 20 b 280 11 253 13 268 11 b 319 18 293 12 307 12 b 335 33 326 21 334 25 b 339 80 337 49 338 64 b 323 96 339 88 328 93 z "},"@":{"ha":721,"x_min":0,"x_max":0,"o":"m 674 488 b 628 583 664 522 651 555 b 545 645 605 610 576 630 b 416 673 504 663 460 671 b 284 658 372 675 327 670 b 171 610 244 647 205 632 b 103 550 145 594 122 573 b 32 390 65 505 41 448 b 53 210 22 329 31 268 b 164 62 76 152 114 101 b 366 -14 221 17 294 -8 b 498 -5 410 -17 454 -15 b 608 39 537 3 573 19 b 654 67 624 48 639 57 b 659 84 660 71 663 77 b 634 97 655 91 641 95 b 592 99 620 100 606 101 b 560 89 581 97 569 95 b 502 54 541 77 521 65 b 477 43 493 50 485 46 b 465 39 473 41 469 40 b 460 37 464 38 462 37 b 435 31 452 34 443 32 b 438 31 436 31 437 31 b 435 31 437 31 436 31 b 434 31 434 31 434 31 b 431 30 433 30 432 30 b 431 30 428 29 423 29 b 418 29 427 30 422 29 b 414 28 417 29 415 29 b 403 28 411 28 407 28 b 394 29 400 28 397 28 b 389 29 392 29 390 29 b 376 30 385 29 380 30 b 372 31 375 31 373 31 b 346 37 363 33 355 35 b 342 38 345 37 343 38 b 341 39 342 38 341 39 b 326 44 336 40 331 42 b 301 55 318 47 309 51 b 238 101 278 68 257 83 b 153 235 200 138 171 184 b 142 398 136 287 132 344 b 153 440 145 412 148 426 b 228 560 168 485 194 527 b 281 598 244 575 262 587 b 328 617 296 605 312 612 b 332 618 329 617 330 618 b 346 622 336 620 341 621 b 369 627 353 624 361 626 b 376 628 371 627 373 628 b 390 630 380 629 385 629 b 392 630 390 630 391 630 b 405 630 396 630 401 630 b 408 630 406 630 407 630 b 421 628 412 629 417 629 b 424 628 422 628 423 628 b 436 625 428 627 432 626 b 444 623 439 625 441 624 b 445 623 444 623 445 623 b 451 621 447 622 449 621 b 471 612 458 618 464 615 b 512 583 486 604 499 594 b 560 504 534 561 549 534 b 579 428 568 479 574 454 b 578 354 584 404 585 378 b 571 339 576 349 574 344 b 567 346 569 341 568 343 b 563 408 561 366 560 387 b 547 424 564 416 552 422 b 536 427 544 425 540 426 b 528 445 534 433 531 440 b 470 479 515 464 492 475 b 328 428 419 489 351 481 b 324 319 314 394 310 354 b 389 280 335 293 364 284 b 487 299 422 276 459 281 b 488 300 487 299 487 300 b 548 279 505 287 526 281 b 644 296 581 276 614 280 b 692 381 674 313 690 347 b 674 488 694 417 683 454 z m 348 36 b 343 38 346 37 345 37 b 348 36 344 38 346 37 z m 341 39 b 341 39 339 39 338 40 z m 424 357 b 430 407 423 374 425 391 b 430 405 430 406 430 406 b 440 386 430 396 434 390 b 424 357 435 376 430 366 z m 551 319 b 551 320 548 318 544 318 b 552 320 551 320 551 320 b 551 319 552 319 551 319 z "},"A":{"ha":438,"x_min":0,"x_max":0,"o":"m 16 15 b 55 9 28 10 42 9 b 93 15 67 9 81 10 b 109 31 101 19 107 22 b 173 271 131 111 152 191 b 187 321 178 288 182 304 b 205 323 193 322 199 322 b 209 323 206 323 207 323 b 220 324 212 323 216 323 b 248 324 229 324 238 324 b 250 324 248 324 249 324 b 292 166 264 271 278 218 b 328 31 304 121 316 76 b 344 15 330 22 336 19 b 382 9 355 10 370 9 b 421 15 395 9 409 10 b 437 31 426 17 439 23 b 373 271 415 111 394 191 b 310 510 351 350 331 430 b 274 646 298 555 286 600 b 258 661 272 654 266 658 b 220 667 247 666 232 668 b 217 667 219 667 218 667 b 178 661 204 667 190 666 b 162 646 171 658 165 654 b 100 405 142 565 121 485 b 36 166 79 325 58 245 b 0 31 24 121 12 76 b 16 15 -2 24 12 17 z m 198 366 b 218 443 205 392 212 417 b 228 405 222 430 225 418 b 238 367 232 392 235 380 b 198 366 225 367 212 367 z "},"Á":{"ha":438,"x_min":0,"x_max":0,"o":"m 16 15 b 55 9 28 10 42 9 b 93 15 67 9 81 10 b 109 31 101 19 107 22 b 173 271 131 111 152 191 b 187 321 178 288 182 304 b 205 323 193 322 199 322 b 209 323 206 323 207 323 b 220 324 212 323 216 323 b 248 324 229 324 238 324 b 250 324 248 324 249 324 b 292 166 264 271 278 218 b 328 31 304 121 316 76 b 344 15 330 22 336 19 b 382 9 355 10 370 9 b 421 15 395 9 409 10 b 437 31 426 17 439 23 b 373 271 415 111 394 191 b 310 510 351 350 331 430 b 274 646 298 555 286 600 b 258 661 272 654 266 658 b 220 667 247 666 232 668 b 217 667 219 667 218 667 b 178 661 204 667 190 666 b 162 646 171 658 165 654 b 100 405 142 565 121 485 b 36 166 79 325 58 245 b 0 31 24 121 12 76 b 16 15 -2 24 12 17 z m 198 366 b 218 443 205 392 212 417 b 228 405 222 430 225 418 b 238 367 232 392 235 380 b 198 366 225 367 212 367 z "},"Â":{"ha":438,"x_min":0,"x_max":0,"o":"m 16 15 b 55 9 28 10 42 9 b 93 15 67 9 81 10 b 109 31 101 19 107 22 b 173 271 131 111 152 191 b 187 321 178 288 182 304 b 205 323 193 322 199 322 b 209 323 206 323 207 323 b 220 324 212 323 216 323 b 248 324 229 324 238 324 b 250 324 248 324 249 324 b 292 166 264 271 278 218 b 328 31 304 121 316 76 b 344 15 330 22 336 19 b 382 9 355 10 370 9 b 421 15 395 9 409 10 b 437 31 426 17 439 23 b 373 271 415 111 394 191 b 310 510 351 350 331 430 b 274 646 298 555 286 600 b 258 661 272 654 266 658 b 220 667 247 666 232 668 b 217 667 219 667 218 667 b 178 661 204 667 190 666 b 162 646 171 658 165 654 b 100 405 142 565 121 485 b 36 166 79 325 58 245 b 0 31 24 121 12 76 b 16 15 -2 24 12 17 z m 198 366 b 218 443 205 392 212 417 b 228 405 222 430 225 418 b 238 367 232 392 235 380 b 198 366 225 367 212 367 z "},"Ã":{"ha":438,"x_min":0,"x_max":0,"o":"m 16 15 b 55 9 28 10 42 9 b 93 15 67 9 81 10 b 109 31 101 19 107 22 b 173 271 131 111 152 191 b 187 321 178 288 182 304 b 205 323 193 322 199 322 b 209 323 206 323 207 323 b 220 324 212 323 216 323 b 248 324 229 324 238 324 b 250 324 248 324 249 324 b 292 166 264 271 278 218 b 328 31 304 121 316 76 b 344 15 330 22 336 19 b 382 9 355 10 370 9 b 421 15 395 9 409 10 b 437 31 426 17 439 23 b 373 271 415 111 394 191 b 310 510 351 350 331 430 b 274 646 298 555 286 600 b 258 661 272 654 266 658 b 220 667 247 666 232 668 b 217 667 219 667 218 667 b 178 661 204 667 190 666 b 162 646 171 658 165 654 b 100 405 142 565 121 485 b 36 166 79 325 58 245 b 0 31 24 121 12 76 b 16 15 -2 24 12 17 z m 198 366 b 218 443 205 392 212 417 b 228 405 222 430 225 418 b 238 367 232 392 235 380 b 198 366 225 367 212 367 z "},"Ä":{"ha":438,"x_min":0,"x_max":0,"o":"m 16 15 b 55 9 28 10 42 9 b 93 15 67 9 81 10 b 109 31 101 19 107 22 b 173 271 131 111 152 191 b 187 321 178 288 182 304 b 205 323 193 322 199 322 b 209 323 206 323 207 323 b 220 324 212 323 216 323 b 248 324 229 324 238 324 b 250 324 248 324 249 324 b 292 166 264 271 278 218 b 328 31 304 121 316 76 b 344 15 330 22 336 19 b 382 9 355 10 370 9 b 421 15 395 9 409 10 b 437 31 426 17 439 23 b 373 271 415 111 394 191 b 310 510 351 350 331 430 b 274 646 298 555 286 600 b 258 661 272 654 266 658 b 220 667 247 666 232 668 b 217 667 219 667 218 667 b 178 661 204 667 190 666 b 162 646 171 658 165 654 b 100 405 142 565 121 485 b 36 166 79 325 58 245 b 0 31 24 121 12 76 b 16 15 -2 24 12 17 z m 198 366 b 218 443 205 392 212 417 b 228 405 222 430 225 418 b 238 367 232 392 235 380 b 198 366 225 367 212 367 z "},"Å":{"ha":438,"x_min":0,"x_max":0,"o":"m 16 15 b 55 9 28 10 42 9 b 93 15 67 9 81 10 b 109 31 101 19 107 22 b 173 271 131 111 152 191 b 187 321 178 288 182 304 b 205 323 193 322 199 322 b 209 323 206 323 207 323 b 220 324 212 323 216 323 b 248 324 229 324 238 324 b 250 324 248 324 249 324 b 292 166 264 271 278 218 b 328 31 304 121 316 76 b 344 15 330 22 336 19 b 382 9 355 10 370 9 b 421 15 395 9 409 10 b 437 31 426 17 439 23 b 373 271 415 111 394 191 b 310 510 351 350 331 430 b 274 646 298 555 286 600 b 258 661 272 654 266 658 b 220 667 247 666 232 668 b 217 667 219 667 218 667 b 178 661 204 667 190 666 b 162 646 171 658 165 654 b 100 405 142 565 121 485 b 36 166 79 325 58 245 b 0 31 24 121 12 76 b 16 15 -2 24 12 17 z m 198 366 b 218 443 205 392 212 417 b 228 405 222 430 225 418 b 238 367 232 392 235 380 b 198 366 225 367 212 367 z "},"B":{"ha":406,"x_min":0,"x_max":0,"o":"m 29 643 b 38 402 33 563 35 483 b 43 162 40 322 42 242 b 45 26 44 117 45 71 b 45 24 45 25 45 25 b 84 -2 37 6 73 -2 b 262 26 144 -5 206 1 b 361 103 300 43 337 68 b 387 197 380 130 392 164 b 323 292 381 237 355 269 b 240 333 297 310 269 323 b 261 342 247 336 254 339 b 358 417 299 358 335 383 b 380 509 376 443 386 477 b 313 602 372 549 345 580 b 125 666 258 639 190 656 b 98 669 116 667 107 668 b 56 667 84 671 69 670 b 31 654 49 665 34 661 b 29 646 29 651 29 648 b 29 643 29 645 29 644 z m 274 148 b 236 91 266 126 252 107 b 193 60 223 79 208 68 b 175 52 187 57 181 55 b 163 48 171 51 167 49 b 163 48 163 48 163 48 b 161 47 162 47 161 47 b 154 45 158 46 156 46 b 150 267 153 119 152 193 b 149 306 150 280 150 293 b 154 305 151 306 152 305 b 161 303 156 304 159 303 b 162 302 161 303 161 303 b 179 296 167 301 173 299 b 205 285 188 293 196 289 b 245 257 219 277 233 268 b 274 212 258 244 268 229 b 274 148 281 191 280 169 z m 153 610 b 155 610 153 610 154 610 b 172 604 160 608 166 606 b 199 592 181 600 190 596 b 239 564 213 584 227 575 b 269 519 252 551 262 536 b 268 458 275 499 274 478 b 233 405 261 438 248 420 b 193 377 221 394 208 385 b 175 369 187 374 181 371 b 164 365 171 367 168 366 b 161 364 163 364 162 364 b 149 361 157 363 153 362 b 148 361 148 361 148 361 b 143 508 146 410 145 459 b 139 614 142 543 141 579 b 146 612 141 614 144 613 b 153 610 148 612 151 611 z "},"C":{"ha":376,"x_min":0,"x_max":0,"o":"m 53 99 b 129 21 68 64 94 37 b 211 5 154 9 183 4 b 296 26 241 6 269 12 b 362 100 325 42 347 72 b 373 122 366 108 370 115 b 367 139 376 129 374 134 b 335 149 359 145 345 148 b 293 147 321 150 306 150 b 282 143 289 145 286 144 b 268 134 276 141 272 138 b 222 63 256 108 242 83 b 207 51 217 58 212 54 b 188 64 200 55 194 59 b 153 122 172 80 161 100 b 141 204 145 148 143 176 b 135 294 138 234 136 264 b 141 476 133 355 133 416 b 156 555 144 503 148 529 b 190 612 164 576 174 596 b 204 623 194 616 199 620 b 210 625 206 624 208 624 b 212 626 210 625 211 625 b 213 626 212 626 212 626 b 214 626 213 626 214 626 b 214 626 214 626 214 626 b 216 625 215 626 216 625 b 224 619 219 623 222 621 b 237 599 230 613 234 606 b 239 584 239 594 239 589 b 255 569 240 576 250 571 b 294 562 267 564 282 562 b 332 569 307 562 321 563 b 348 584 339 571 348 576 b 265 665 348 629 305 657 b 164 665 231 671 198 671 b 101 639 142 661 119 652 b 48 557 74 618 59 589 b 30 457 37 525 33 491 b 31 213 22 376 25 294 b 53 99 34 174 37 135 z m 200 48 b 200 48 200 48 200 48 b 200 48 200 48 200 48 b 197 47 199 48 198 47 b 200 48 198 47 199 48 z "},"D":{"ha":432,"x_min":0,"x_max":0,"o":"m 38 165 b 37 29 38 119 37 74 b 52 13 36 21 47 16 b 91 7 64 9 79 7 b 110 8 97 7 104 7 b 115 8 112 8 114 8 b 304 73 183 5 253 26 b 361 142 326 93 345 116 b 397 226 376 168 388 197 b 413 405 416 284 422 345 b 343 568 405 464 383 523 b 262 629 320 594 293 614 b 144 662 225 648 184 658 b 119 664 135 663 127 664 b 89 668 109 667 98 668 b 51 662 76 668 62 667 b 35 646 44 659 35 654 b 38 405 36 566 37 485 b 38 165 38 325 38 245 z m 181 600 b 228 567 198 591 214 580 b 281 489 251 545 269 518 b 291 465 285 481 288 473 b 308 372 301 435 306 404 b 300 273 309 339 307 306 b 287 222 297 256 293 239 b 230 116 274 184 255 148 b 209 94 223 109 216 101 b 167 64 196 82 182 72 b 150 56 162 61 156 59 b 146 55 148 56 147 55 b 146 55 146 55 146 55 b 147 270 147 127 147 198 b 146 510 147 350 147 430 b 144 615 145 545 145 580 b 149 613 146 614 148 614 b 160 609 153 612 157 611 b 181 600 167 607 174 604 z "},"E":{"ha":397,"x_min":0,"x_max":0,"o":"m 42 157 b 98 43 53 116 69 74 b 166 2 117 23 139 9 b 280 17 204 -7 247 -3 b 321 60 297 27 310 44 b 349 118 332 79 341 98 b 386 244 365 159 377 201 b 390 264 387 251 389 258 b 374 280 391 272 378 278 b 335 286 362 285 348 286 b 297 280 323 286 309 285 b 281 264 290 277 283 273 b 253 154 274 227 265 190 b 227 93 246 133 237 112 b 203 55 221 79 213 66 b 156 140 181 79 166 110 b 130 286 140 187 133 237 b 130 288 130 287 130 287 b 138 289 132 288 135 289 b 306 423 212 305 271 357 b 336 538 324 458 336 498 b 329 590 336 555 334 573 b 304 635 323 606 316 623 b 231 670 285 656 259 666 b 183 670 216 672 198 672 b 140 658 168 668 153 665 b 109 636 128 652 118 646 b 98 625 105 633 101 629 b 81 601 91 617 86 609 b 32 466 56 560 41 512 b 20 308 22 414 18 360 b 42 157 21 257 28 206 z m 157 527 b 205 616 168 559 183 591 b 220 589 212 608 216 599 b 217 472 232 551 229 510 b 150 366 203 433 180 395 b 129 349 143 359 136 354 b 137 446 129 381 132 414 b 157 527 142 474 148 501 z "},"É":{"ha":397,"x_min":0,"x_max":0,"o":"m 42 157 b 98 43 53 116 69 74 b 166 2 117 23 139 9 b 280 17 204 -7 247 -3 b 321 60 297 27 310 44 b 349 118 332 79 341 98 b 386 244 365 159 377 201 b 390 264 387 251 389 258 b 374 280 391 272 378 278 b 335 286 362 285 348 286 b 297 280 323 286 309 285 b 281 264 290 277 283 273 b 253 154 274 227 265 190 b 227 93 246 133 237 112 b 203 55 221 79 213 66 b 156 140 181 79 166 110 b 130 286 140 187 133 237 b 130 288 130 287 130 287 b 138 289 132 288 135 289 b 306 423 212 305 271 357 b 336 538 324 458 336 498 b 329 590 336 555 334 573 b 304 635 323 606 316 623 b 231 670 285 656 259 666 b 183 670 216 672 198 672 b 140 658 168 668 153 665 b 109 636 128 652 118 646 b 98 625 105 633 101 629 b 81 601 91 617 86 609 b 32 466 56 560 41 512 b 20 308 22 414 18 360 b 42 157 21 257 28 206 z m 157 527 b 205 616 168 559 183 591 b 220 589 212 608 216 599 b 217 472 232 551 229 510 b 150 366 203 433 180 395 b 129 349 143 359 136 354 b 137 446 129 381 132 414 b 157 527 142 474 148 501 z "},"Ê":{"ha":397,"x_min":0,"x_max":0,"o":"m 42 157 b 98 43 53 116 69 74 b 166 2 117 23 139 9 b 280 17 204 -7 247 -3 b 321 60 297 27 310 44 b 349 118 332 79 341 98 b 386 244 365 159 377 201 b 390 264 387 251 389 258 b 374 280 391 272 378 278 b 335 286 362 285 348 286 b 297 280 323 286 309 285 b 281 264 290 277 283 273 b 253 154 274 227 265 190 b 227 93 246 133 237 112 b 203 55 221 79 213 66 b 156 140 181 79 166 110 b 130 286 140 187 133 237 b 130 288 130 287 130 287 b 138 289 132 288 135 289 b 306 423 212 305 271 357 b 336 538 324 458 336 498 b 329 590 336 555 334 573 b 304 635 323 606 316 623 b 231 670 285 656 259 666 b 183 670 216 672 198 672 b 140 658 168 668 153 665 b 109 636 128 652 118 646 b 98 625 105 633 101 629 b 81 601 91 617 86 609 b 32 466 56 560 41 512 b 20 308 22 414 18 360 b 42 157 21 257 28 206 z m 157 527 b 205 616 168 559 183 591 b 220 589 212 608 216 599 b 217 472 232 551 229 510 b 150 366 203 433 180 395 b 129 349 143 359 136 354 b 137 446 129 381 132 414 b 157 527 142 474 148 501 z "},"Ë":{"ha":397,"x_min":0,"x_max":0,"o":"m 42 157 b 98 43 53 116 69 74 b 166 2 117 23 139 9 b 280 17 204 -7 247 -3 b 321 60 297 27 310 44 b 349 118 332 79 341 98 b 386 244 365 159 377 201 b 390 264 387 251 389 258 b 374 280 391 272 378 278 b 335 286 362 285 348 286 b 297 280 323 286 309 285 b 281 264 290 277 283 273 b 253 154 274 227 265 190 b 227 93 246 133 237 112 b 203 55 221 79 213 66 b 156 140 181 79 166 110 b 130 286 140 187 133 237 b 130 288 130 287 130 287 b 138 289 132 288 135 289 b 306 423 212 305 271 357 b 336 538 324 458 336 498 b 329 590 336 555 334 573 b 304 635 323 606 316 623 b 231 670 285 656 259 666 b 183 670 216 672 198 672 b 140 658 168 668 153 665 b 109 636 128 652 118 646 b 98 625 105 633 101 629 b 81 601 91 617 86 609 b 32 466 56 560 41 512 b 20 308 22 414 18 360 b 42 157 21 257 28 206 z m 157 527 b 205 616 168 559 183 591 b 220 589 212 608 216 599 b 217 472 232 551 229 510 b 150 366 203 433 180 395 b 129 349 143 359 136 354 b 137 446 129 381 132 414 b 157 527 142 474 148 501 z "},"F":{"ha":368,"x_min":0,"x_max":0,"o":"m 38 164 b 37 29 38 119 37 74 b 52 13 36 21 47 16 b 91 7 64 9 79 7 b 129 13 104 7 118 8 b 145 29 136 16 145 20 b 147 269 147 109 147 189 b 147 322 147 286 147 304 b 159 323 151 322 155 322 b 165 323 161 323 163 323 b 182 323 170 323 176 323 b 216 324 193 324 204 324 b 233 323 221 323 227 323 b 241 323 236 323 239 323 b 246 323 243 323 244 323 b 242 323 244 323 243 323 b 279 325 255 322 267 322 b 305 338 286 327 301 331 b 266 365 314 357 278 364 b 147 366 227 367 187 368 b 146 507 147 413 146 460 b 144 625 145 547 145 586 b 149 626 146 625 148 625 b 163 626 154 626 159 626 b 166 627 164 626 165 627 b 216 628 183 627 200 628 b 323 627 252 629 287 628 b 361 633 335 626 350 628 b 377 648 366 635 378 641 b 361 664 376 656 368 661 b 323 670 349 669 336 669 b 94 665 246 674 170 672 b 89 665 92 665 91 665 b 89 665 89 665 89 665 b 51 659 76 665 62 664 b 35 643 44 656 35 651 b 38 403 36 563 37 483 b 38 164 38 324 38 244 z "},"G":{"ha":381,"x_min":0,"x_max":0,"o":"m 30 455 b 31 211 22 374 25 292 b 53 97 34 172 37 133 b 129 19 68 62 94 35 b 211 3 154 7 183 2 b 296 24 241 4 269 10 b 362 99 325 41 347 70 b 373 120 366 106 370 113 b 374 124 374 122 374 123 b 376 137 378 128 379 132 b 351 150 370 145 359 148 b 187 150 297 162 241 162 b 162 137 180 149 166 145 b 167 121 158 131 161 125 b 200 111 177 114 189 112 b 242 113 214 109 228 110 b 245 113 243 113 244 113 b 255 115 248 114 252 114 b 259 115 256 115 258 115 b 260 115 259 115 260 115 b 222 61 250 95 238 77 b 207 49 217 56 212 53 b 188 62 200 53 194 57 b 153 120 172 79 161 98 b 141 202 145 146 143 174 b 135 292 138 232 136 262 b 141 474 133 353 133 414 b 156 553 144 501 148 527 b 190 610 164 574 174 594 b 204 621 194 614 199 618 b 210 623 206 622 208 623 b 212 624 210 623 211 624 b 213 624 212 624 212 624 b 214 624 213 624 214 624 b 214 624 214 624 214 624 b 216 623 215 624 216 623 b 224 617 219 621 222 619 b 237 597 230 611 234 605 b 239 582 239 592 239 587 b 255 567 240 574 250 569 b 294 560 267 562 282 560 b 332 567 307 560 321 561 b 348 582 339 569 348 574 b 265 663 348 627 305 655 b 164 663 231 669 198 669 b 101 637 142 659 119 651 b 48 555 74 616 59 587 b 30 455 37 523 33 489 z m 200 46 b 200 46 200 46 200 46 b 200 46 200 46 200 46 b 197 45 199 46 198 45 b 200 46 198 45 199 46 z "},"H":{"ha":413,"x_min":0,"x_max":0,"o":"m 38 164 b 37 29 38 119 37 74 b 52 13 36 21 47 16 b 91 7 64 9 79 7 b 129 13 104 7 118 8 b 145 29 136 16 145 20 b 147 269 147 109 147 189 b 147 322 147 286 147 304 b 159 323 151 322 155 322 b 165 323 161 323 163 323 b 182 323 170 323 176 323 b 216 324 193 324 204 324 b 233 323 221 323 227 323 b 241 323 236 323 239 323 b 246 323 243 323 244 323 b 242 323 244 323 243 323 b 266 323 250 322 258 322 b 266 164 267 270 267 217 b 265 29 266 119 265 74 b 281 13 265 21 275 16 b 319 7 292 9 307 7 b 358 13 332 7 346 8 b 374 29 364 16 374 20 b 375 269 375 109 375 189 b 374 507 376 348 375 428 b 372 643 374 553 373 598 b 356 659 372 651 362 656 b 318 665 345 663 330 665 b 279 659 305 665 291 664 b 263 643 273 656 263 651 b 266 403 265 563 266 483 b 266 365 266 391 266 378 b 147 366 226 367 187 368 b 146 507 147 413 146 460 b 144 643 145 553 145 598 b 128 659 143 651 134 656 b 89 665 116 663 101 665 b 51 659 76 665 62 664 b 35 643 44 656 35 651 b 38 403 36 563 37 483 b 38 164 38 324 38 244 z "},"I":{"ha":183,"x_min":0,"x_max":0,"o":"m 38 164 b 37 29 38 119 37 74 b 52 13 36 21 47 16 b 91 7 64 9 79 7 b 129 13 104 7 118 8 b 145 29 136 16 145 20 b 147 269 147 109 147 189 b 146 507 147 348 147 428 b 144 643 145 553 145 598 b 128 659 143 651 134 656 b 89 665 116 663 101 665 b 51 659 76 665 62 664 b 35 643 44 656 35 651 b 38 403 36 563 37 483 b 38 164 38 324 38 244 z "},"Í":{"ha":183,"x_min":0,"x_max":0,"o":"m 38 164 b 37 29 38 119 37 74 b 52 13 36 21 47 16 b 91 7 64 9 79 7 b 129 13 104 7 118 8 b 145 29 136 16 145 20 b 147 269 147 109 147 189 b 146 507 147 348 147 428 b 144 643 145 553 145 598 b 128 659 143 651 134 656 b 89 665 116 663 101 665 b 51 659 76 665 62 664 b 35 643 44 656 35 651 b 38 403 36 563 37 483 b 38 164 38 324 38 244 z "},"Î":{"ha":183,"x_min":0,"x_max":0,"o":"m 38 164 b 37 29 38 119 37 74 b 52 13 36 21 47 16 b 91 7 64 9 79 7 b 129 13 104 7 118 8 b 145 29 136 16 145 20 b 147 269 147 109 147 189 b 146 507 147 348 147 428 b 144 643 145 553 145 598 b 128 659 143 651 134 656 b 89 665 116 663 101 665 b 51 659 76 665 62 664 b 35 643 44 656 35 651 b 38 403 36 563 37 483 b 38 164 38 324 38 244 z "},"Ï":{"ha":183,"x_min":0,"x_max":0,"o":"m 38 164 b 37 29 38 119 37 74 b 52 13 36 21 47 16 b 91 7 64 9 79 7 b 129 13 104 7 118 8 b 145 29 136 16 145 20 b 147 269 147 109 147 189 b 146 507 147 348 147 428 b 144 643 145 553 145 598 b 128 659 143 651 134 656 b 89 665 116 663 101 665 b 51 659 76 665 62 664 b 35 643 44 656 35 651 b 38 403 36 563 37 483 b 38 164 38 324 38 244 z "},"J":{"ha":353,"x_min":0,"x_max":0,"o":"m 155 -1 b 250 24 188 0 221 7 b 285 56 263 32 276 43 b 306 111 296 73 301 92 b 322 273 319 164 321 219 b 318 464 323 336 321 400 b 309 628 316 519 312 573 b 308 643 308 633 308 638 b 292 659 307 651 298 656 b 253 665 281 663 266 665 b 215 659 241 665 227 664 b 199 643 209 656 199 651 b 211 434 203 573 208 504 b 209 193 214 354 216 273 b 192 94 207 160 203 126 b 171 57 187 80 181 68 b 153 45 165 53 160 48 b 152 44 153 45 153 45 b 137 56 147 48 142 51 b 114 91 127 66 119 78 b 112 199 104 126 111 163 b 96 214 112 206 102 212 b 58 220 85 219 70 221 b 19 214 45 220 31 219 b 3 199 13 211 3 207 b 17 63 2 153 -8 105 b 155 -1 45 17 102 -3 z "},"K":{"ha":383,"x_min":0,"x_max":0,"o":"m 38 164 b 37 29 38 119 37 74 b 52 13 36 21 47 16 b 91 7 64 9 79 7 b 129 13 104 7 118 8 b 145 29 136 16 145 20 b 147 221 146 93 147 157 b 148 221 147 221 148 221 b 176 200 158 215 168 208 b 229 113 201 176 218 145 b 244 29 238 86 243 58 b 260 14 244 21 254 16 b 299 8 271 9 286 7 b 337 14 311 8 325 9 b 353 29 343 17 353 21 b 250 238 350 108 318 194 b 197 262 234 248 216 257 b 355 449 266 309 326 371 b 375 527 365 474 372 500 b 359 542 376 534 364 540 b 320 549 347 547 332 549 b 282 542 308 548 294 548 b 266 527 275 539 267 535 b 253 469 264 507 259 488 b 162 331 235 416 202 370 b 147 317 157 326 152 322 b 146 507 147 381 147 444 b 144 643 145 553 145 598 b 128 659 143 651 134 656 b 89 665 116 663 101 665 b 51 659 76 665 62 664 b 35 643 44 656 35 651 b 38 403 36 563 37 483 b 38 164 38 324 38 244 z "},"L":{"ha":365,"x_min":0,"x_max":0,"o":"m 38 164 b 37 29 38 119 37 74 b 52 13 36 21 47 16 b 89 7 63 9 77 7 b 124 6 100 5 112 5 b 136 7 128 6 132 7 b 141 7 138 7 139 7 b 164 8 149 8 156 8 b 217 10 181 9 199 9 b 322 8 252 10 287 10 b 361 15 334 8 349 10 b 377 30 365 17 377 23 b 361 45 376 38 367 43 b 322 52 348 50 335 51 b 146 51 263 54 204 54 b 147 269 147 124 147 196 b 146 508 147 348 147 428 b 144 643 145 553 145 598 b 128 659 143 651 134 656 b 89 665 116 663 101 665 b 51 659 76 665 62 664 b 35 643 44 656 35 651 b 38 403 36 563 37 483 b 38 164 38 324 38 244 z "},"M":{"ha":568,"x_min":0,"x_max":0,"o":"m 37 164 b 36 29 36 119 36 74 b 52 13 36 21 46 16 b 90 7 63 9 78 7 b 129 13 103 7 117 8 b 145 29 135 16 145 20 b 146 269 145 109 146 189 b 146 332 146 290 146 311 b 188 211 160 292 174 251 b 231 93 202 172 217 132 b 256 80 233 86 250 81 b 288 77 266 78 277 77 b 312 80 296 77 304 78 b 312 80 312 80 312 80 b 324 84 316 81 320 82 b 337 93 329 86 333 89 b 411 301 362 162 387 232 b 422 332 415 311 418 322 b 422 164 422 276 422 220 b 423 29 422 119 423 74 b 439 13 423 21 433 16 b 477 7 450 9 465 7 b 516 13 490 7 504 8 b 532 29 522 16 532 20 b 531 269 531 109 531 189 b 532 507 531 348 531 428 b 533 643 532 553 532 598 b 517 659 533 651 523 656 b 478 665 506 663 491 665 b 440 659 466 665 452 664 b 431 654 437 657 434 656 b 423 647 428 652 425 650 b 347 430 398 575 373 503 b 284 250 326 370 305 310 b 261 313 276 271 269 292 b 188 523 237 383 212 453 b 144 647 174 564 159 606 b 135 655 143 650 139 653 b 128 659 132 657 130 658 b 89 665 116 663 101 665 b 51 659 76 665 62 664 b 35 643 44 656 35 651 b 37 403 36 563 36 483 b 37 164 37 324 37 244 z "},"N":{"ha":464,"x_min":0,"x_max":0,"o":"m 37 164 b 36 29 37 119 36 74 b 52 13 36 21 46 16 b 90 7 63 9 78 7 b 129 13 103 7 117 8 b 145 29 135 16 145 20 b 146 269 146 109 146 189 b 146 395 146 311 146 353 b 148 391 146 394 147 392 b 251 159 182 313 216 236 b 311 26 271 114 291 70 b 334 13 314 19 327 15 b 372 7 346 9 360 7 b 411 13 385 7 399 8 b 427 29 417 16 427 20 b 426 269 426 109 426 189 b 427 507 426 348 426 428 b 428 643 427 553 428 598 b 412 659 428 651 418 656 b 374 665 401 663 386 665 b 335 659 361 665 347 664 b 319 643 329 656 319 652 b 317 403 318 563 317 483 b 317 257 317 355 317 306 b 310 272 315 262 312 267 b 207 507 276 350 241 429 b 145 647 186 554 166 600 b 134 656 143 651 139 654 b 128 659 131 657 129 658 b 89 665 116 663 101 665 b 51 659 76 665 62 664 b 35 643 44 656 35 651 b 37 403 36 563 37 483 b 37 164 37 324 37 244 z "},"O":{"ha":421,"x_min":0,"x_max":0,"o":"m 27 319 b 28 317 27 318 27 318 b 27 314 27 316 27 315 b 28 261 29 297 28 279 b 33 179 29 233 30 206 b 55 91 37 149 43 119 b 104 25 65 65 81 41 b 155 4 119 15 137 8 b 238 2 183 -1 211 -3 b 293 20 258 5 276 10 b 319 41 303 25 311 33 b 354 95 334 57 345 76 b 381 177 366 122 374 149 b 399 364 395 238 400 302 b 372 541 398 424 391 484 b 339 610 364 565 354 589 b 283 657 325 631 306 647 b 227 670 266 664 246 668 b 151 665 202 672 176 672 b 75 615 120 657 94 641 b 43 540 59 593 50 566 b 28 459 35 514 31 486 b 27 330 24 416 24 373 b 27 319 27 326 27 323 z m 200 627 b 201 627 201 627 201 627 b 202 627 201 627 202 627 b 200 627 191 627 196 627 z m 208 628 b 208 628 208 628 208 628 b 211 628 209 628 210 628 b 208 628 210 628 209 628 z m 141 492 b 156 555 145 513 149 534 b 192 617 164 577 175 599 b 205 626 196 620 200 623 b 206 626 205 626 206 626 b 220 615 211 623 216 619 b 264 538 241 594 255 566 b 290 385 280 489 287 437 b 280 217 292 329 289 272 b 260 136 275 190 269 162 b 224 64 251 111 240 86 b 213 52 221 60 217 56 b 203 44 210 49 207 46 b 203 44 203 44 203 44 b 189 54 198 47 193 50 b 157 110 174 70 164 90 b 137 286 139 166 137 227 b 136 314 137 295 137 305 b 136 316 136 315 136 316 b 136 319 136 317 136 318 b 134 379 135 339 134 359 b 141 492 134 417 136 455 z "},"Ó":{"ha":421,"x_min":0,"x_max":0,"o":"m 27 319 b 28 317 27 318 27 318 b 27 314 27 316 27 315 b 28 261 29 297 28 279 b 33 179 29 233 30 206 b 55 91 37 149 43 119 b 104 25 65 65 81 41 b 155 4 119 15 137 8 b 238 2 183 -1 211 -3 b 293 20 258 5 276 10 b 319 41 303 25 311 33 b 354 95 334 57 345 76 b 381 177 366 122 374 149 b 399 364 395 238 400 302 b 372 541 398 424 391 484 b 339 610 364 565 354 589 b 283 657 325 631 306 647 b 227 670 266 664 246 668 b 151 665 202 672 176 672 b 75 615 120 657 94 641 b 43 540 59 593 50 566 b 28 459 35 514 31 486 b 27 330 24 416 24 373 b 27 319 27 326 27 323 z m 200 627 b 201 627 201 627 201 627 b 202 627 201 627 202 627 b 200 627 191 627 196 627 z m 208 628 b 208 628 208 628 208 628 b 211 628 209 628 210 628 b 208 628 210 628 209 628 z m 141 492 b 156 555 145 513 149 534 b 192 617 164 577 175 599 b 205 626 196 620 200 623 b 206 626 205 626 206 626 b 220 615 211 623 216 619 b 264 538 241 594 255 566 b 290 385 280 489 287 437 b 280 217 292 329 289 272 b 260 136 275 190 269 162 b 224 64 251 111 240 86 b 213 52 221 60 217 56 b 203 44 210 49 207 46 b 203 44 203 44 203 44 b 189 54 198 47 193 50 b 157 110 174 70 164 90 b 137 286 139 166 137 227 b 136 314 137 295 137 305 b 136 316 136 315 136 316 b 136 319 136 317 136 318 b 134 379 135 339 134 359 b 141 492 134 417 136 455 z "},"Ô":{"ha":421,"x_min":0,"x_max":0,"o":"m 27 319 b 28 317 27 318 27 318 b 27 314 27 316 27 315 b 28 261 29 297 28 279 b 33 179 29 233 30 206 b 55 91 37 149 43 119 b 104 25 65 65 81 41 b 155 4 119 15 137 8 b 238 2 183 -1 211 -3 b 293 20 258 5 276 10 b 319 41 303 25 311 33 b 354 95 334 57 345 76 b 381 177 366 122 374 149 b 399 364 395 238 400 302 b 372 541 398 424 391 484 b 339 610 364 565 354 589 b 283 657 325 631 306 647 b 227 670 266 664 246 668 b 151 665 202 672 176 672 b 75 615 120 657 94 641 b 43 540 59 593 50 566 b 28 459 35 514 31 486 b 27 330 24 416 24 373 b 27 319 27 326 27 323 z m 200 627 b 201 627 201 627 201 627 b 202 627 201 627 202 627 b 200 627 191 627 196 627 z m 208 628 b 208 628 208 628 208 628 b 211 628 209 628 210 628 b 208 628 210 628 209 628 z m 141 492 b 156 555 145 513 149 534 b 192 617 164 577 175 599 b 205 626 196 620 200 623 b 206 626 205 626 206 626 b 220 615 211 623 216 619 b 264 538 241 594 255 566 b 290 385 280 489 287 437 b 280 217 292 329 289 272 b 260 136 275 190 269 162 b 224 64 251 111 240 86 b 213 52 221 60 217 56 b 203 44 210 49 207 46 b 203 44 203 44 203 44 b 189 54 198 47 193 50 b 157 110 174 70 164 90 b 137 286 139 166 137 227 b 136 314 137 295 137 305 b 136 316 136 315 136 316 b 136 319 136 317 136 318 b 134 379 135 339 134 359 b 141 492 134 417 136 455 z "},"Õ":{"ha":421,"x_min":0,"x_max":0,"o":"m 27 319 b 28 317 27 318 27 318 b 27 314 27 316 27 315 b 28 261 29 297 28 279 b 33 179 29 233 30 206 b 55 91 37 149 43 119 b 104 25 65 65 81 41 b 155 4 119 15 137 8 b 238 2 183 -1 211 -3 b 293 20 258 5 276 10 b 319 41 303 25 311 33 b 354 95 334 57 345 76 b 381 177 366 122 374 149 b 399 364 395 238 400 302 b 372 541 398 424 391 484 b 339 610 364 565 354 589 b 283 657 325 631 306 647 b 227 670 266 664 246 668 b 151 665 202 672 176 672 b 75 615 120 657 94 641 b 43 540 59 593 50 566 b 28 459 35 514 31 486 b 27 330 24 416 24 373 b 27 319 27 326 27 323 z m 200 627 b 201 627 201 627 201 627 b 202 627 201 627 202 627 b 200 627 191 627 196 627 z m 208 628 b 208 628 208 628 208 628 b 211 628 209 628 210 628 b 208 628 210 628 209 628 z m 141 492 b 156 555 145 513 149 534 b 192 617 164 577 175 599 b 205 626 196 620 200 623 b 206 626 205 626 206 626 b 220 615 211 623 216 619 b 264 538 241 594 255 566 b 290 385 280 489 287 437 b 280 217 292 329 289 272 b 260 136 275 190 269 162 b 224 64 251 111 240 86 b 213 52 221 60 217 56 b 203 44 210 49 207 46 b 203 44 203 44 203 44 b 189 54 198 47 193 50 b 157 110 174 70 164 90 b 137 286 139 166 137 227 b 136 314 137 295 137 305 b 136 316 136 315 136 316 b 136 319 136 317 136 318 b 134 379 135 339 134 359 b 141 492 134 417 136 455 z "},"Ö":{"ha":421,"x_min":0,"x_max":0,"o":"m 27 319 b 28 317 27 318 27 318 b 27 314 27 316 27 315 b 28 261 29 297 28 279 b 33 179 29 233 30 206 b 55 91 37 149 43 119 b 104 25 65 65 81 41 b 155 4 119 15 137 8 b 238 2 183 -1 211 -3 b 293 20 258 5 276 10 b 319 41 303 25 311 33 b 354 95 334 57 345 76 b 381 177 366 122 374 149 b 399 364 395 238 400 302 b 372 541 398 424 391 484 b 339 610 364 565 354 589 b 283 657 325 631 306 647 b 227 670 266 664 246 668 b 151 665 202 672 176 672 b 75 615 120 657 94 641 b 43 540 59 593 50 566 b 28 459 35 514 31 486 b 27 330 24 416 24 373 b 27 319 27 326 27 323 z m 200 627 b 201 627 201 627 201 627 b 202 627 201 627 202 627 b 200 627 191 627 196 627 z m 208 628 b 208 628 208 628 208 628 b 211 628 209 628 210 628 b 208 628 210 628 209 628 z m 141 492 b 156 555 145 513 149 534 b 192 617 164 577 175 599 b 205 626 196 620 200 623 b 206 626 205 626 206 626 b 220 615 211 623 216 619 b 264 538 241 594 255 566 b 290 385 280 489 287 437 b 280 217 292 329 289 272 b 260 136 275 190 269 162 b 224 64 251 111 240 86 b 213 52 221 60 217 56 b 203 44 210 49 207 46 b 203 44 203 44 203 44 b 189 54 198 47 193 50 b 157 110 174 70 164 90 b 137 286 139 166 137 227 b 136 314 137 295 137 305 b 136 316 136 315 136 316 b 136 319 136 317 136 318 b 134 379 135 339 134 359 b 141 492 134 417 136 455 z "},"P":{"ha":383,"x_min":0,"x_max":0,"o":"m 37 404 b 38 164 38 324 38 244 b 37 28 38 119 38 74 b 53 13 37 20 48 15 b 92 6 65 8 80 6 b 130 13 105 7 119 7 b 146 28 137 16 146 20 b 147 270 147 109 147 189 b 147 317 147 285 147 301 b 261 342 186 319 225 327 b 358 415 298 357 334 381 b 382 507 376 441 387 475 b 316 601 375 546 348 578 b 243 638 294 616 269 629 b 141 665 210 651 176 659 b 102 672 128 668 115 670 b 60 669 89 673 73 672 b 35 656 54 668 39 664 b 34 648 34 653 33 651 b 33 646 33 648 33 647 b 37 404 35 565 37 485 z m 164 365 b 166 366 161 364 157 363 b 165 366 166 366 165 366 b 164 365 164 365 164 365 z m 169 367 b 169 367 169 367 169 367 b 172 368 170 367 171 367 b 169 367 171 367 170 367 z m 172 605 b 198 594 180 602 189 598 b 239 565 213 586 227 576 b 270 519 252 552 263 536 b 269 458 276 499 275 478 b 235 406 262 438 250 421 b 196 378 223 395 210 386 b 177 370 190 375 184 372 b 167 366 174 369 170 367 b 162 365 165 366 164 365 b 149 362 158 364 154 363 b 147 361 148 362 147 362 b 145 510 146 411 146 460 b 143 615 144 545 144 580 b 147 614 144 615 146 614 b 149 613 147 614 148 614 b 155 611 151 613 153 612 b 172 605 161 609 166 607 z "},"Q":{"ha":431,"x_min":0,"x_max":0,"o":"m 27 319 b 28 317 27 318 27 318 b 27 314 27 316 27 315 b 28 261 29 297 28 279 b 33 179 29 233 30 206 b 55 91 37 149 43 119 b 104 25 65 65 81 41 b 155 4 119 15 137 8 b 238 2 183 -1 211 -3 b 293 20 258 5 276 10 b 298 23 295 21 297 22 b 306 13 301 20 303 17 b 331 0 311 6 323 2 b 373 -2 344 -3 360 -4 b 405 8 383 -1 397 1 b 411 25 410 12 416 18 b 354 96 393 49 374 73 b 381 177 366 122 374 150 b 399 364 395 238 400 302 b 372 541 398 424 391 484 b 339 610 364 565 354 589 b 283 657 325 631 306 647 b 227 670 266 664 246 668 b 151 665 202 672 176 672 b 75 615 120 657 94 641 b 43 540 59 593 50 566 b 28 459 35 514 31 486 b 27 330 24 416 24 373 b 27 319 27 326 27 323 z m 200 627 b 201 627 201 627 201 627 b 202 627 201 627 202 627 b 200 627 191 627 196 627 z m 208 628 b 208 628 208 628 208 628 b 211 628 209 628 210 628 b 208 628 210 628 209 628 z m 141 492 b 156 555 145 513 149 534 b 192 617 164 577 175 599 b 205 626 196 620 200 623 b 206 626 205 626 206 626 b 220 615 211 623 216 619 b 264 538 241 594 255 566 b 290 385 280 489 287 437 b 280 217 292 329 289 272 b 269 166 277 200 273 183 b 232 167 257 169 244 169 b 200 157 222 166 209 164 b 194 141 196 154 188 146 b 242 92 211 125 226 109 b 224 64 237 82 231 73 b 213 52 221 60 217 56 b 203 44 210 49 207 46 b 203 44 203 44 203 44 b 189 54 198 47 193 50 b 157 110 174 70 164 90 b 137 286 139 166 137 227 b 136 314 137 295 137 305 b 136 316 136 315 136 316 b 136 319 136 317 136 318 b 134 379 135 339 134 359 b 141 492 134 417 136 455 z "},"R":{"ha":401,"x_min":0,"x_max":0,"o":"m 37 404 b 38 164 38 324 38 244 b 37 28 38 119 38 74 b 53 13 37 20 48 15 b 92 6 65 8 80 6 b 130 13 105 7 119 7 b 146 28 137 16 146 20 b 147 270 147 109 147 189 b 147 297 147 279 147 288 b 156 295 150 296 153 295 b 159 294 157 295 158 294 b 166 291 161 293 163 292 b 190 273 175 286 183 280 b 250 171 218 245 237 208 b 274 29 265 125 273 77 b 290 14 274 21 284 16 b 329 8 302 9 316 7 b 367 14 341 8 355 9 b 383 29 373 17 383 21 b 356 181 381 81 373 132 b 282 297 340 225 317 266 b 224 329 265 312 245 323 b 261 342 236 332 249 337 b 358 415 298 357 334 381 b 382 507 376 441 387 475 b 316 601 375 546 348 578 b 243 638 294 616 269 629 b 141 665 210 651 176 659 b 102 672 128 668 115 670 b 60 669 89 673 73 672 b 35 656 54 668 39 664 b 34 648 34 653 33 651 b 33 646 33 648 33 647 b 37 404 35 565 37 485 z m 169 367 b 169 367 169 367 169 367 b 172 368 170 367 171 367 b 169 367 171 367 170 367 z m 166 366 b 165 366 166 366 165 366 b 164 365 164 365 164 365 b 166 366 161 364 157 363 z m 172 605 b 198 594 180 602 189 598 b 239 565 213 586 227 576 b 270 519 252 552 263 536 b 269 458 276 499 275 478 b 235 406 262 438 250 421 b 196 378 223 395 210 386 b 177 370 190 375 184 372 b 167 366 174 369 170 367 b 162 365 165 366 164 365 b 149 362 158 364 154 363 b 147 361 148 362 147 362 b 145 510 146 411 146 460 b 143 615 144 545 144 580 b 147 614 144 615 146 614 b 149 613 147 614 148 614 b 155 611 151 613 153 612 b 172 605 161 609 166 607 z "},"S":{"ha":331,"x_min":0,"x_max":0,"o":"m 114 346 b 202 218 149 308 184 268 b 202 98 214 180 214 137 b 174 52 196 81 187 65 b 170 48 173 50 171 49 b 166 51 169 49 167 50 b 150 77 159 58 154 67 b 150 124 146 92 145 109 b 154 134 151 128 153 131 b 116 161 165 153 128 160 b 74 159 103 162 88 162 b 49 146 66 156 54 154 b 41 75 38 124 34 99 b 58 42 45 63 50 52 b 96 14 69 30 81 21 b 149 0 112 6 131 2 b 219 5 172 -2 196 -1 b 292 56 249 13 275 30 b 318 129 306 77 314 103 b 313 211 322 156 320 184 b 230 346 299 264 266 306 b 128 489 191 390 148 433 b 125 582 119 519 116 552 b 147 618 130 595 138 608 b 149 616 148 617 149 617 b 165 592 156 609 161 601 b 167 580 166 588 167 584 b 183 564 168 572 177 567 b 222 558 195 560 210 558 b 260 564 235 558 249 559 b 276 580 266 567 277 572 b 186 665 272 626 229 656 b 73 653 149 672 107 671 b 24 603 52 642 34 624 b 30 461 3 557 10 506 b 114 346 50 417 83 381 z m 162 42 b 164 43 163 42 163 42 b 163 42 164 42 163 42 b 162 42 163 42 162 42 z m 162 43 b 162 42 162 43 162 42 b 161 42 162 42 161 42 b 162 43 160 42 159 42 z m 158 41 b 159 41 158 41 158 41 b 159 41 159 41 159 41 b 158 41 156 40 152 39 z "},"T":{"ha":456,"x_min":0,"x_max":0,"o":"m 16 621 b 58 618 30 618 44 617 b 92 620 69 619 80 620 b 98 621 94 621 96 621 b 117 622 104 621 111 621 b 170 624 134 622 152 623 b 173 395 171 547 172 471 b 173 161 173 317 173 239 b 172 29 173 117 172 73 b 188 13 172 21 182 16 b 226 7 199 9 214 7 b 265 13 239 7 253 8 b 281 29 271 16 280 20 b 282 263 282 107 282 185 b 281 496 282 340 282 418 b 279 625 280 539 280 582 b 332 625 297 625 314 625 b 413 623 359 624 386 624 b 452 629 425 622 440 624 b 468 644 456 631 468 637 b 452 660 467 653 458 657 b 413 666 439 665 426 666 b 123 665 316 670 220 670 b 29 660 92 664 60 662 b -4 650 19 660 4 656 b -9 634 -9 647 -14 640 b 16 621 -4 626 7 622 z "},"U":{"ha":414,"x_min":0,"x_max":0,"o":"m 35 207 b 55 71 36 162 37 114 b 171 2 74 26 124 5 b 331 53 228 -2 291 8 b 360 103 344 67 353 85 b 377 169 368 124 374 146 b 382 310 383 216 382 263 b 383 603 382 408 382 506 b 383 640 383 616 383 628 b 367 656 383 648 373 653 b 328 662 356 660 341 662 b 290 656 316 662 302 661 b 274 640 284 653 274 649 b 273 430 274 570 274 500 b 273 325 273 395 273 360 b 272 223 273 291 273 257 b 257 119 271 188 268 153 b 223 61 249 98 239 77 b 207 49 218 56 212 52 b 198 45 204 48 201 46 b 198 45 198 45 198 45 b 196 45 197 45 197 45 b 194 44 195 45 195 45 b 190 46 193 45 191 46 b 178 55 186 49 182 51 b 157 90 169 65 162 77 b 145 189 147 122 146 156 b 143 299 143 226 143 263 b 142 522 142 373 142 447 b 143 647 142 563 143 605 b 127 663 143 655 133 660 b 89 669 116 667 101 669 b 50 663 76 669 62 668 b 34 647 44 660 34 656 b 34 354 33 550 33 452 b 35 208 34 306 34 256 z "},"Ú":{"ha":414,"x_min":0,"x_max":0,"o":"m 35 207 b 55 71 36 162 37 114 b 171 2 74 26 124 5 b 331 53 228 -2 291 8 b 360 103 344 67 353 85 b 377 169 368 124 374 146 b 382 310 383 216 382 263 b 383 603 382 408 382 506 b 383 640 383 616 383 628 b 367 656 383 648 373 653 b 328 662 356 660 341 662 b 290 656 316 662 302 661 b 274 640 284 653 274 649 b 273 430 274 570 274 500 b 273 325 273 395 273 360 b 272 223 273 291 273 257 b 257 119 271 188 268 153 b 223 61 249 98 239 77 b 207 49 218 56 212 52 b 198 45 204 48 201 46 b 198 45 198 45 198 45 b 196 45 197 45 197 45 b 194 44 195 45 195 45 b 190 46 193 45 191 46 b 178 55 186 49 182 51 b 157 90 169 65 162 77 b 145 189 147 122 146 156 b 143 299 143 226 143 263 b 142 522 142 373 142 447 b 143 647 142 563 143 605 b 127 663 143 655 133 660 b 89 669 116 667 101 669 b 50 663 76 669 62 668 b 34 647 44 660 34 656 b 34 354 33 550 33 452 b 35 208 34 306 34 256 z "},"Û":{"ha":414,"x_min":0,"x_max":0,"o":"m 35 207 b 55 71 36 162 37 114 b 171 2 74 26 124 5 b 331 53 228 -2 291 8 b 360 103 344 67 353 85 b 377 169 368 124 374 146 b 382 310 383 216 382 263 b 383 603 382 408 382 506 b 383 640 383 616 383 628 b 367 656 383 648 373 653 b 328 662 356 660 341 662 b 290 656 316 662 302 661 b 274 640 284 653 274 649 b 273 430 274 570 274 500 b 273 325 273 395 273 360 b 272 223 273 291 273 257 b 257 119 271 188 268 153 b 223 61 249 98 239 77 b 207 49 218 56 212 52 b 198 45 204 48 201 46 b 198 45 198 45 198 45 b 196 45 197 45 197 45 b 194 44 195 45 195 45 b 190 46 193 45 191 46 b 178 55 186 49 182 51 b 157 90 169 65 162 77 b 145 189 147 122 146 156 b 143 299 143 226 143 263 b 142 522 142 373 142 447 b 143 647 142 563 143 605 b 127 663 143 655 133 660 b 89 669 116 667 101 669 b 50 663 76 669 62 668 b 34 647 44 660 34 656 b 34 354 33 550 33 452 b 35 208 34 306 34 256 z "},"Ü":{"ha":414,"x_min":0,"x_max":0,"o":"m 35 207 b 55 71 36 162 37 114 b 171 2 74 26 124 5 b 331 53 228 -2 291 8 b 360 103 344 67 353 85 b 377 169 368 124 374 146 b 382 310 383 216 382 263 b 383 603 382 408 382 506 b 383 640 383 616 383 628 b 367 656 383 648 373 653 b 328 662 356 660 341 662 b 290 656 316 662 302 661 b 274 640 284 653 274 649 b 273 430 274 570 274 500 b 273 325 273 395 273 360 b 272 223 273 291 273 257 b 257 119 271 188 268 153 b 223 61 249 98 239 77 b 207 49 218 56 212 52 b 198 45 204 48 201 46 b 198 45 198 45 198 45 b 196 45 197 45 197 45 b 194 44 195 45 195 45 b 190 46 193 45 191 46 b 178 55 186 49 182 51 b 157 90 169 65 162 77 b 145 189 147 122 146 156 b 143 299 143 226 143 263 b 142 522 142 373 142 447 b 143 647 142 563 143 605 b 127 663 143 655 133 660 b 89 669 116 667 101 669 b 50 663 76 669 62 668 b 34 647 44 660 34 656 b 34 354 33 550 33 452 b 35 208 34 306 34 256 z "},"V":{"ha":435,"x_min":0,"x_max":0,"o":"m 63 405 b 126 166 84 326 105 246 b 161 31 138 121 149 76 b 177 15 163 22 169 18 b 215 9 188 10 203 9 b 219 9 216 9 218 9 b 257 15 231 9 245 10 b 273 31 265 19 271 22 b 336 271 294 111 315 191 b 399 510 357 351 378 431 b 435 646 411 555 423 601 b 419 661 437 653 423 659 b 381 667 408 666 393 668 b 342 661 368 667 354 666 b 326 646 335 658 329 654 b 262 405 305 566 284 486 b 217 234 247 348 232 291 b 207 271 214 246 211 259 b 144 510 186 351 165 431 b 108 646 132 555 120 601 b 92 661 105 654 100 658 b 53 667 80 666 65 668 b 15 661 41 667 27 666 b -1 646 10 659 -3 653 b 63 405 20 566 42 486 z "},"W":{"ha":689,"x_min":0,"x_max":0,"o":"m 148 166 b 189 31 162 121 176 76 b 194 22 190 27 191 24 b 205 15 197 19 201 16 b 244 9 217 10 232 9 b 244 9 244 9 244 9 b 248 9 245 9 246 9 b 286 15 260 9 274 10 b 295 20 289 17 292 18 b 302 31 299 22 301 26 b 345 170 316 77 331 123 b 367 97 352 146 360 121 b 388 31 374 75 381 53 b 393 22 388 27 390 24 b 404 15 396 19 399 16 b 442 9 415 10 430 9 b 442 9 442 9 442 9 b 446 9 444 9 445 9 b 484 15 459 9 473 10 b 493 20 487 17 490 18 b 500 31 497 22 500 26 b 575 271 525 111 550 191 b 650 510 600 351 625 430 b 693 646 664 555 678 600 b 677 661 695 652 680 660 b 638 667 665 666 650 668 b 600 661 625 667 611 666 b 591 657 597 660 594 658 b 584 646 587 654 584 650 b 508 406 558 566 533 486 b 444 201 486 338 465 269 b 425 263 438 222 431 243 b 404 330 418 285 411 307 b 400 338 404 333 402 336 b 388 345 396 341 393 344 b 350 351 377 350 362 352 b 347 351 349 351 348 351 b 340 351 344 351 342 351 b 302 345 327 351 313 350 b 293 341 299 344 296 342 b 286 330 289 338 286 334 b 246 201 272 287 259 244 b 224 271 239 225 231 248 b 149 510 199 351 174 430 b 106 646 135 555 120 600 b 101 654 106 649 104 652 b 90 661 98 657 95 660 b 52 667 79 666 64 668 b 13 661 39 667 25 666 b 5 657 10 660 7 658 b -3 646 0 654 -2 650 b 73 406 23 566 48 486 b 148 166 98 326 123 246 z "},"X":{"ha":418,"x_min":0,"x_max":0,"o":"m 412 24 b 292 268 372 105 332 186 b 264 325 283 287 274 306 b 348 503 293 384 320 443 b 412 642 370 549 391 595 b 407 658 416 649 413 654 b 374 668 398 665 384 667 b 332 666 360 670 346 670 b 321 663 329 665 325 664 b 307 653 316 661 311 658 b 209 442 275 582 242 512 b 175 514 198 466 186 490 b 111 653 153 560 132 607 b 86 666 107 660 92 665 b 44 668 73 669 57 670 b 11 658 33 667 20 665 b 6 642 5 654 2 649 b 121 395 43 559 82 477 b 154 325 132 372 143 349 b 74 161 127 270 101 216 b 6 24 51 115 29 70 b 44 -3 -4 5 32 -2 b 86 -1 58 -4 72 -4 b 111 12 94 1 107 4 b 209 211 144 78 177 145 b 239 149 219 190 229 170 b 307 12 262 104 284 58 b 332 -1 311 5 326 1 b 374 -3 345 -4 361 -5 b 407 7 385 -1 398 0 b 412 24 412 12 416 17 z "},"Y":{"ha":417,"x_min":0,"x_max":0,"o":"m 119 381 b 154 308 131 357 142 332 b 153 95 154 237 154 166 b 152 29 153 73 152 51 b 168 13 152 21 162 16 b 207 7 179 9 194 7 b 245 13 219 7 233 8 b 261 29 251 16 261 20 b 263 263 262 107 263 185 b 263 310 263 278 263 294 b 386 567 304 396 345 482 b 421 641 397 592 409 616 b 383 667 430 660 395 666 b 341 665 369 669 355 669 b 330 662 337 664 334 663 b 316 652 324 660 320 657 b 208 427 280 577 244 502 b 135 579 184 477 159 528 b 100 652 123 603 111 628 b 75 665 96 659 81 664 b 33 667 62 668 46 669 b 0 657 22 666 9 664 b -5 641 -6 653 -9 648 b 119 381 36 554 78 468 z "},"Ý":{"ha":417,"x_min":0,"x_max":0,"o":"m 119 381 b 154 308 131 357 142 332 b 153 95 154 237 154 166 b 152 29 153 73 152 51 b 168 13 152 21 162 16 b 207 7 179 9 194 7 b 245 13 219 7 233 8 b 261 29 251 16 261 20 b 263 263 262 107 263 185 b 263 310 263 278 263 294 b 386 567 304 396 345 482 b 421 641 397 592 409 616 b 383 667 430 660 395 666 b 341 665 369 669 355 669 b 330 662 337 664 334 663 b 316 652 324 660 320 657 b 208 427 280 577 244 502 b 135 579 184 477 159 528 b 100 652 123 603 111 628 b 75 665 96 659 81 664 b 33 667 62 668 46 669 b 0 657 22 666 9 664 b -5 641 -6 653 -9 648 b 119 381 36 554 78 468 z "},"Ÿ":{"ha":417,"x_min":0,"x_max":0,"o":"m 119 381 b 154 308 131 357 142 332 b 153 95 154 237 154 166 b 152 29 153 73 152 51 b 168 13 152 21 162 16 b 207 7 179 9 194 7 b 245 13 219 7 233 8 b 261 29 251 16 261 20 b 263 263 262 107 263 185 b 263 310 263 278 263 294 b 386 567 304 396 345 482 b 421 641 397 592 409 616 b 383 667 430 660 395 666 b 341 665 369 669 355 669 b 330 662 337 664 334 663 b 316 652 324 660 320 657 b 208 427 280 577 244 502 b 135 579 184 477 159 528 b 100 652 123 603 111 628 b 75 665 96 659 81 664 b 33 667 62 668 46 669 b 0 657 22 666 9 664 b -5 641 -6 653 -9 648 b 119 381 36 554 78 468 z "},"Z":{"ha":393,"x_min":0,"x_max":0,"o":"m 46 617 b 274 621 122 619 198 620 b 276 621 275 621 275 621 b 197 406 249 549 223 477 b 111 167 168 326 140 247 b 63 33 95 122 79 78 b 62 24 61 30 60 27 b 62 22 62 23 62 23 b 62 20 62 22 62 21 b 78 5 63 12 71 7 b 117 -2 90 0 104 -2 b 307 -1 180 -1 244 -1 b 345 5 319 -1 334 0 b 361 21 350 7 362 13 b 345 36 361 29 352 34 b 307 43 333 41 320 43 b 176 42 263 43 219 42 b 253 260 201 115 227 187 b 340 498 282 339 311 418 b 389 632 356 542 372 587 b 391 638 390 634 391 636 b 392 643 392 639 392 641 b 376 658 391 651 383 656 b 338 665 364 663 351 665 b 113 662 263 665 188 664 b 46 661 91 662 68 661 b 8 654 34 661 19 659 b -8 639 3 652 -9 646 b 8 624 -7 631 1 626 b 46 617 20 619 33 617 z "},"[":{"ha":185,"x_min":0,"x_max":0,"o":"m 235 -42 b 161 -34 214 -28 184 -30 b 156 -35 159 -34 158 -34 b 155 -35 156 -35 155 -35 b 146 -36 152 -35 149 -36 b 146 247 146 58 146 152 b 147 574 146 356 146 465 b 147 720 147 623 147 672 b 189 720 161 720 175 720 b 227 726 201 720 215 721 b 243 742 232 728 244 734 b 227 757 242 750 234 755 b 189 764 215 762 201 764 b 154 764 177 763 165 763 b 139 764 149 764 144 764 b 131 765 137 764 134 765 b 99 764 121 766 110 766 b 93 765 97 765 95 765 b 54 758 80 764 66 763 b 38 743 48 755 38 751 b 38 433 38 639 38 536 b 38 105 37 324 37 214 b 38 -63 38 49 38 -7 b 54 -78 38 -71 48 -76 b 92 -85 65 -83 80 -85 b 108 -84 97 -84 103 -84 b 132 -83 116 -84 124 -84 b 216 -72 160 -81 188 -77 b 241 -58 223 -70 236 -66 b 235 -42 245 -52 241 -46 z "},"\\":{"ha":544,"x_min":0,"x_max":0,"o":"m 473 27 b 434 125 461 60 447 92 b 368 282 412 177 390 229 b 293 461 343 341 318 401 b 224 621 270 514 247 568 b 179 725 209 656 195 691 b 176 732 178 727 177 730 b 151 745 173 739 157 744 b 109 747 138 748 122 749 b 76 737 98 746 85 744 b 71 721 71 733 67 728 b 112 626 85 689 99 657 b 179 470 135 574 157 522 b 254 291 204 411 229 351 b 322 130 277 238 299 184 b 365 23 336 94 351 59 b 368 15 366 20 367 18 b 393 2 371 8 388 4 b 435 0 406 -1 422 -2 b 468 10 446 2 459 3 b 473 15 469 12 471 14 b 473 27 476 19 476 23 z "},"]":{"ha":185,"x_min":0,"x_max":0,"o":"m 147 574 b 146 743 147 630 147 687 b 130 758 146 751 136 756 b 92 765 119 763 104 765 b 85 764 90 764 87 764 b 53 765 75 766 64 766 b 46 764 51 765 48 764 b 31 764 41 764 36 764 b -4 764 19 763 8 763 b -42 757 -16 764 -31 762 b -58 742 -47 755 -59 749 b -42 726 -57 734 -49 729 b -4 720 -30 722 -17 720 b 37 720 10 720 24 720 b 38 433 38 624 38 529 b 38 105 38 324 38 214 b 38 -36 38 58 38 11 b 31 -35 36 -36 33 -35 b 28 -35 30 -35 29 -35 b 24 -34 26 -34 25 -34 b -18 -32 10 -31 -4 -30 b -51 -42 -28 -33 -43 -35 b -56 -59 -56 -46 -61 -52 b -31 -72 -51 -66 -39 -70 b 53 -83 -3 -77 25 -81 b 77 -84 61 -84 69 -84 b 93 -85 82 -84 88 -85 b 131 -78 105 -84 119 -83 b 147 -63 137 -75 147 -71 b 147 247 147 40 147 143 b 147 574 147 356 147 465 z "},"^":{"ha":328,"x_min":0,"x_max":0,"o":"m 242 626 b 233 639 239 631 236 635 b 199 659 224 650 213 655 b 138 659 180 664 158 664 b 105 640 126 656 113 651 b 87 607 98 630 93 618 b 68 572 80 595 74 584 b 24 492 53 545 39 519 b 62 465 14 473 51 466 b 104 467 76 464 90 464 b 129 480 112 470 125 472 b 170 555 143 505 156 530 b 190 505 178 539 185 522 b 195 491 192 500 193 496 b 200 483 195 487 197 484 b 211 476 203 479 206 477 b 249 469 222 471 237 469 b 288 476 262 469 276 470 b 296 480 291 477 293 478 b 304 491 301 482 303 486 b 242 626 290 539 269 584 z "},"_":{"ha":317,"x_min":0,"x_max":0,"o":"m 299 9 b 283 24 298 17 290 21 b 244 30 271 29 257 31 b 71 29 187 30 129 30 b 33 23 59 29 44 28 b 17 7 28 21 16 15 b 33 -8 18 -1 26 -6 b 71 -15 45 -13 58 -15 b 244 -13 129 -14 187 -14 b 283 -7 257 -13 271 -12 b 299 9 288 -5 300 1 z "},"`":{"ha":213,"x_min":0,"x_max":0,"o":"m 193 576 b 177 591 192 584 184 588 b 154 597 170 594 162 596 b 152 599 153 597 152 598 b 136 624 145 606 140 615 b 131 650 134 633 132 641 b 115 666 130 658 122 663 b 77 672 104 670 89 672 b 38 666 64 672 50 671 b 22 650 33 663 21 658 b 44 589 25 629 30 606 b 138 554 67 563 104 552 b 177 560 151 554 165 555 b 193 576 182 562 194 568 z m 138 597 b 139 597 134 597 130 598 b 138 597 139 597 139 597 z "},"a":{"ha":438,"x_min":0,"x_max":0,"o":"m 16 15 b 55 9 28 10 42 9 b 93 15 67 9 81 10 b 109 31 101 19 107 22 b 173 271 131 111 152 191 b 187 321 178 288 182 304 b 205 323 193 322 199 322 b 209 323 206 323 207 323 b 220 324 212 323 216 323 b 248 324 229 324 238 324 b 250 324 248 324 249 324 b 292 166 264 271 278 218 b 328 31 304 121 316 76 b 344 15 330 22 336 19 b 382 9 355 10 370 9 b 421 15 395 9 409 10 b 437 31 426 17 439 23 b 373 271 415 111 394 191 b 310 510 351 350 331 430 b 274 646 298 555 286 600 b 258 661 272 654 266 658 b 220 667 247 666 232 668 b 217 667 219 667 218 667 b 178 661 204 667 190 666 b 162 646 171 658 165 654 b 100 405 142 565 121 485 b 36 166 79 325 58 245 b 0 31 24 121 12 76 b 16 15 -2 24 12 17 z m 198 366 b 218 443 205 392 212 417 b 228 405 222 430 225 418 b 238 367 232 392 235 380 b 198 366 225 367 212 367 z "},"á":{"ha":438,"x_min":0,"x_max":0,"o":"m 16 15 b 55 9 28 10 42 9 b 93 15 67 9 81 10 b 109 31 101 19 107 22 b 173 271 131 111 152 191 b 187 321 178 288 182 304 b 205 323 193 322 199 322 b 209 323 206 323 207 323 b 220 324 212 323 216 323 b 248 324 229 324 238 324 b 250 324 248 324 249 324 b 292 166 264 271 278 218 b 328 31 304 121 316 76 b 344 15 330 22 336 19 b 382 9 355 10 370 9 b 421 15 395 9 409 10 b 437 31 426 17 439 23 b 373 271 415 111 394 191 b 310 510 351 350 331 430 b 274 646 298 555 286 600 b 258 661 272 654 266 658 b 220 667 247 666 232 668 b 217 667 219 667 218 667 b 178 661 204 667 190 666 b 162 646 171 658 165 654 b 100 405 142 565 121 485 b 36 166 79 325 58 245 b 0 31 24 121 12 76 b 16 15 -2 24 12 17 z m 198 366 b 218 443 205 392 212 417 b 228 405 222 430 225 418 b 238 367 232 392 235 380 b 198 366 225 367 212 367 z "},"â":{"ha":438,"x_min":0,"x_max":0,"o":"m 16 15 b 55 9 28 10 42 9 b 93 15 67 9 81 10 b 109 31 101 19 107 22 b 173 271 131 111 152 191 b 187 321 178 288 182 304 b 205 323 193 322 199 322 b 209 323 206 323 207 323 b 220 324 212 323 216 323 b 248 324 229 324 238 324 b 250 324 248 324 249 324 b 292 166 264 271 278 218 b 328 31 304 121 316 76 b 344 15 330 22 336 19 b 382 9 355 10 370 9 b 421 15 395 9 409 10 b 437 31 426 17 439 23 b 373 271 415 111 394 191 b 310 510 351 350 331 430 b 274 646 298 555 286 600 b 258 661 272 654 266 658 b 220 667 247 666 232 668 b 217 667 219 667 218 667 b 178 661 204 667 190 666 b 162 646 171 658 165 654 b 100 405 142 565 121 485 b 36 166 79 325 58 245 b 0 31 24 121 12 76 b 16 15 -2 24 12 17 z m 198 366 b 218 443 205 392 212 417 b 228 405 222 430 225 418 b 238 367 232 392 235 380 b 198 366 225 367 212 367 z "},"ã":{"ha":438,"x_min":0,"x_max":0,"o":"m 16 15 b 55 9 28 10 42 9 b 93 15 67 9 81 10 b 109 31 101 19 107 22 b 173 271 131 111 152 191 b 187 321 178 288 182 304 b 205 323 193 322 199 322 b 209 323 206 323 207 323 b 220 324 212 323 216 323 b 248 324 229 324 238 324 b 250 324 248 324 249 324 b 292 166 264 271 278 218 b 328 31 304 121 316 76 b 344 15 330 22 336 19 b 382 9 355 10 370 9 b 421 15 395 9 409 10 b 437 31 426 17 439 23 b 373 271 415 111 394 191 b 310 510 351 350 331 430 b 274 646 298 555 286 600 b 258 661 272 654 266 658 b 220 667 247 666 232 668 b 217 667 219 667 218 667 b 178 661 204 667 190 666 b 162 646 171 658 165 654 b 100 405 142 565 121 485 b 36 166 79 325 58 245 b 0 31 24 121 12 76 b 16 15 -2 24 12 17 z m 198 366 b 218 443 205 392 212 417 b 228 405 222 430 225 418 b 238 367 232 392 235 380 b 198 366 225 367 212 367 z "},"ä":{"ha":438,"x_min":0,"x_max":0,"o":"m 16 15 b 55 9 28 10 42 9 b 93 15 67 9 81 10 b 109 31 101 19 107 22 b 173 271 131 111 152 191 b 187 321 178 288 182 304 b 205 323 193 322 199 322 b 209 323 206 323 207 323 b 220 324 212 323 216 323 b 248 324 229 324 238 324 b 250 324 248 324 249 324 b 292 166 264 271 278 218 b 328 31 304 121 316 76 b 344 15 330 22 336 19 b 382 9 355 10 370 9 b 421 15 395 9 409 10 b 437 31 426 17 439 23 b 373 271 415 111 394 191 b 310 510 351 350 331 430 b 274 646 298 555 286 600 b 258 661 272 654 266 658 b 220 667 247 666 232 668 b 217 667 219 667 218 667 b 178 661 204 667 190 666 b 162 646 171 658 165 654 b 100 405 142 565 121 485 b 36 166 79 325 58 245 b 0 31 24 121 12 76 b 16 15 -2 24 12 17 z m 198 366 b 218 443 205 392 212 417 b 228 405 222 430 225 418 b 238 367 232 392 235 380 b 198 366 225 367 212 367 z "},"å":{"ha":438,"x_min":0,"x_max":0,"o":"m 16 15 b 55 9 28 10 42 9 b 93 15 67 9 81 10 b 109 31 101 19 107 22 b 173 271 131 111 152 191 b 187 321 178 288 182 304 b 205 323 193 322 199 322 b 209 323 206 323 207 323 b 220 324 212 323 216 323 b 248 324 229 324 238 324 b 250 324 248 324 249 324 b 292 166 264 271 278 218 b 328 31 304 121 316 76 b 344 15 330 22 336 19 b 382 9 355 10 370 9 b 421 15 395 9 409 10 b 437 31 426 17 439 23 b 373 271 415 111 394 191 b 310 510 351 350 331 430 b 274 646 298 555 286 600 b 258 661 272 654 266 658 b 220 667 247 666 232 668 b 217 667 219 667 218 667 b 178 661 204 667 190 666 b 162 646 171 658 165 654 b 100 405 142 565 121 485 b 36 166 79 325 58 245 b 0 31 24 121 12 76 b 16 15 -2 24 12 17 z m 198 366 b 218 443 205 392 212 417 b 228 405 222 430 225 418 b 238 367 232 392 235 380 b 198 366 225 367 212 367 z "},"b":{"ha":407,"x_min":0,"x_max":0,"o":"m 31 643 b 39 402 34 563 37 483 b 45 162 42 322 43 242 b 46 26 45 117 46 71 b 47 24 46 25 47 25 b 85 -2 39 6 74 -2 b 263 26 146 -5 208 1 b 362 103 302 43 338 68 b 388 197 381 130 393 164 b 324 292 382 237 356 269 b 241 333 299 310 271 323 b 263 342 248 336 256 339 b 359 417 300 358 336 383 b 381 509 377 443 388 477 b 314 602 374 549 347 580 b 126 666 259 639 191 656 b 99 669 117 667 108 668 b 57 667 86 671 71 670 b 32 654 51 665 36 661 b 31 646 31 651 30 648 b 31 643 31 645 31 644 z m 275 148 b 238 91 267 126 254 107 b 194 60 224 79 210 68 b 177 52 188 57 183 55 b 165 48 173 51 169 49 b 164 48 164 48 164 48 b 162 47 164 47 163 47 b 155 45 160 46 158 46 b 152 267 154 119 153 193 b 151 306 151 280 151 293 b 155 305 152 306 154 305 b 162 303 158 304 160 303 b 163 302 163 303 163 303 b 180 296 169 301 174 299 b 206 285 189 293 198 289 b 246 257 221 277 234 268 b 276 212 259 244 269 229 b 275 148 282 191 282 169 z m 154 610 b 156 610 155 610 155 610 b 173 604 162 608 167 606 b 200 592 182 600 191 596 b 241 564 214 584 228 575 b 270 519 253 551 264 536 b 269 458 276 499 276 478 b 235 405 262 438 250 420 b 195 377 223 394 209 385 b 177 369 189 374 183 371 b 165 365 173 367 169 366 b 162 364 164 364 163 364 b 150 361 158 363 154 362 b 149 361 150 361 149 361 b 145 508 148 410 146 459 b 141 614 143 543 142 579 b 147 612 143 614 145 613 b 154 610 150 612 152 611 z "},"c":{"ha":376,"x_min":0,"x_max":0,"o":"m 53 99 b 129 21 68 64 94 37 b 211 5 154 9 183 4 b 296 26 241 6 269 12 b 362 100 325 42 347 72 b 373 122 366 108 370 115 b 367 139 376 129 374 134 b 335 149 359 145 345 148 b 293 147 321 150 306 150 b 282 143 289 145 286 144 b 268 134 276 141 272 138 b 222 63 256 108 242 83 b 207 51 217 58 212 54 b 188 64 200 55 194 59 b 153 122 172 80 161 100 b 141 204 145 148 143 176 b 135 294 138 234 136 264 b 141 476 133 355 133 416 b 156 555 144 503 148 529 b 190 612 164 576 174 596 b 204 623 194 616 199 620 b 210 625 206 624 208 624 b 212 626 210 625 211 625 b 213 626 212 626 212 626 b 214 626 213 626 214 626 b 214 626 214 626 214 626 b 216 625 215 626 216 625 b 224 619 219 623 222 621 b 237 599 230 613 234 606 b 239 584 239 594 239 589 b 255 569 240 576 250 571 b 294 562 267 564 282 562 b 332 569 307 562 321 563 b 348 584 339 571 348 576 b 265 665 348 629 305 657 b 164 665 231 671 198 671 b 101 639 142 661 119 652 b 48 557 74 618 59 589 b 30 457 37 525 33 491 b 31 213 22 376 25 294 b 53 99 34 174 37 135 z m 200 48 b 200 48 200 48 200 48 b 200 48 200 48 200 48 b 197 47 199 48 198 47 b 200 48 198 47 199 48 z "},"d":{"ha":433,"x_min":0,"x_max":0,"o":"m 39 165 b 38 29 39 119 39 74 b 54 13 38 21 48 16 b 92 7 65 9 80 7 b 112 8 99 7 105 7 b 117 8 113 8 115 8 b 305 73 184 5 255 26 b 362 142 327 93 346 116 b 399 226 378 168 389 197 b 415 405 417 284 423 345 b 345 568 407 464 385 523 b 263 629 321 594 294 614 b 145 662 226 648 186 658 b 120 664 137 663 129 664 b 91 668 111 667 100 668 b 52 662 78 668 64 667 b 36 646 46 659 36 654 b 39 405 38 566 39 485 b 39 165 40 325 40 245 z m 183 600 b 230 567 200 591 215 580 b 283 489 252 545 270 518 b 292 465 286 481 290 473 b 309 372 302 435 307 404 b 302 273 311 339 308 306 b 289 222 298 256 294 239 b 231 116 275 184 257 148 b 211 94 225 109 218 101 b 169 64 198 82 184 72 b 151 56 163 61 157 59 b 147 55 150 56 149 55 b 147 55 147 55 147 55 b 149 270 148 127 148 198 b 147 510 149 350 148 430 b 146 615 147 545 146 580 b 151 613 147 614 149 614 b 162 609 154 612 158 611 b 183 600 169 607 176 604 z "},"e":{"ha":400,"x_min":0,"x_max":0,"o":"m 43 157 b 100 43 55 116 70 74 b 168 2 118 23 141 9 b 281 17 205 -7 248 -3 b 322 60 298 27 311 44 b 350 118 334 79 343 98 b 387 244 366 159 378 201 b 391 264 389 251 390 258 b 375 280 393 272 379 278 b 337 286 364 285 349 286 b 298 280 324 286 310 285 b 282 264 291 277 284 273 b 254 154 275 227 266 190 b 229 93 247 133 239 112 b 205 55 222 79 214 66 b 157 140 182 79 168 110 b 131 286 142 187 134 237 b 131 288 131 287 131 287 b 140 289 134 288 137 289 b 307 423 213 305 273 357 b 338 538 325 458 338 498 b 330 590 338 555 335 573 b 306 635 325 606 318 623 b 233 670 286 656 261 666 b 184 670 217 672 200 672 b 141 658 170 668 155 665 b 110 636 129 652 120 646 b 99 625 106 633 103 629 b 82 601 93 617 87 609 b 33 466 57 560 43 512 b 21 308 23 414 20 360 b 43 157 23 257 29 206 z m 158 527 b 207 616 169 559 184 591 b 221 589 213 608 218 599 b 218 472 233 551 230 510 b 151 366 204 433 181 395 b 130 349 144 359 137 354 b 139 446 131 381 134 414 b 158 527 143 474 150 501 z "},"é":{"ha":400,"x_min":0,"x_max":0,"o":"m 43 157 b 100 43 55 116 70 74 b 168 2 118 23 141 9 b 281 17 205 -7 248 -3 b 322 60 298 27 311 44 b 350 118 334 79 343 98 b 387 244 366 159 378 201 b 391 264 389 251 390 258 b 375 280 393 272 379 278 b 337 286 364 285 349 286 b 298 280 324 286 310 285 b 282 264 291 277 284 273 b 254 154 275 227 266 190 b 229 93 247 133 239 112 b 205 55 222 79 214 66 b 157 140 182 79 168 110 b 131 286 142 187 134 237 b 131 288 131 287 131 287 b 140 289 134 288 137 289 b 307 423 213 305 273 357 b 338 538 325 458 338 498 b 330 590 338 555 335 573 b 306 635 325 606 318 623 b 233 670 286 656 261 666 b 184 670 217 672 200 672 b 141 658 170 668 155 665 b 110 636 129 652 120 646 b 99 625 106 633 103 629 b 82 601 93 617 87 609 b 33 466 57 560 43 512 b 21 308 23 414 20 360 b 43 157 23 257 29 206 z m 158 527 b 207 616 169 559 184 591 b 221 589 213 608 218 599 b 218 472 233 551 230 510 b 151 366 204 433 181 395 b 130 349 144 359 137 354 b 139 446 131 381 134 414 b 158 527 143 474 150 501 z "},"ê":{"ha":400,"x_min":0,"x_max":0,"o":"m 43 157 b 100 43 55 116 70 74 b 168 2 118 23 141 9 b 281 17 205 -7 248 -3 b 322 60 298 27 311 44 b 350 118 334 79 343 98 b 387 244 366 159 378 201 b 391 264 389 251 390 258 b 375 280 393 272 379 278 b 337 286 364 285 349 286 b 298 280 324 286 310 285 b 282 264 291 277 284 273 b 254 154 275 227 266 190 b 229 93 247 133 239 112 b 205 55 222 79 214 66 b 157 140 182 79 168 110 b 131 286 142 187 134 237 b 131 288 131 287 131 287 b 140 289 134 288 137 289 b 307 423 213 305 273 357 b 338 538 325 458 338 498 b 330 590 338 555 335 573 b 306 635 325 606 318 623 b 233 670 286 656 261 666 b 184 670 217 672 200 672 b 141 658 170 668 155 665 b 110 636 129 652 120 646 b 99 625 106 633 103 629 b 82 601 93 617 87 609 b 33 466 57 560 43 512 b 21 308 23 414 20 360 b 43 157 23 257 29 206 z m 158 527 b 207 616 169 559 184 591 b 221 589 213 608 218 599 b 218 472 233 551 230 510 b 151 366 204 433 181 395 b 130 349 144 359 137 354 b 139 446 131 381 134 414 b 158 527 143 474 150 501 z "},"ë":{"ha":400,"x_min":0,"x_max":0,"o":"m 43 157 b 100 43 55 116 70 74 b 168 2 118 23 141 9 b 281 17 205 -7 248 -3 b 322 60 298 27 311 44 b 350 118 334 79 343 98 b 387 244 366 159 378 201 b 391 264 389 251 390 258 b 375 280 393 272 379 278 b 337 286 364 285 349 286 b 298 280 324 286 310 285 b 282 264 291 277 284 273 b 254 154 275 227 266 190 b 229 93 247 133 239 112 b 205 55 222 79 214 66 b 157 140 182 79 168 110 b 131 286 142 187 134 237 b 131 288 131 287 131 287 b 140 289 134 288 137 289 b 307 423 213 305 273 357 b 338 538 325 458 338 498 b 330 590 338 555 335 573 b 306 635 325 606 318 623 b 233 670 286 656 261 666 b 184 670 217 672 200 672 b 141 658 170 668 155 665 b 110 636 129 652 120 646 b 99 625 106 633 103 629 b 82 601 93 617 87 609 b 33 466 57 560 43 512 b 21 308 23 414 20 360 b 43 157 23 257 29 206 z m 158 527 b 207 616 169 559 184 591 b 221 589 213 608 218 599 b 218 472 233 551 230 510 b 151 366 204 433 181 395 b 130 349 144 359 137 354 b 139 446 131 381 134 414 b 158 527 143 474 150 501 z "},"f":{"ha":371,"x_min":0,"x_max":0,"o":"m 39 164 b 38 29 39 119 39 74 b 54 13 38 21 48 16 b 92 7 65 9 80 7 b 131 13 105 7 119 8 b 147 29 137 16 147 20 b 149 269 148 109 148 189 b 148 322 149 286 149 304 b 161 323 153 322 157 322 b 166 323 163 323 164 323 b 183 323 172 323 177 323 b 217 324 194 324 206 324 b 234 323 223 323 229 323 b 243 323 237 323 240 323 b 247 323 244 323 246 323 b 244 323 246 323 245 323 b 281 325 256 322 269 322 b 306 338 287 327 302 331 b 268 365 315 357 279 364 b 148 366 228 367 188 368 b 147 507 148 413 148 460 b 145 625 147 547 146 586 b 151 626 147 625 149 625 b 165 626 155 626 160 626 b 168 627 166 626 167 627 b 218 628 184 627 201 628 b 324 627 253 629 289 628 b 363 633 336 626 352 628 b 379 648 368 635 380 641 b 363 664 378 656 370 661 b 324 670 350 669 337 669 b 95 665 248 674 171 672 b 91 665 94 665 92 665 b 91 665 91 665 91 665 b 52 659 78 665 64 664 b 36 643 46 656 36 651 b 39 403 38 563 39 483 b 39 164 40 324 40 244 z "},"g":{"ha":381,"x_min":0,"x_max":0,"o":"m 30 455 b 31 211 22 374 25 292 b 53 97 34 172 37 133 b 129 19 68 62 94 35 b 211 3 154 7 183 2 b 296 24 241 4 269 10 b 362 99 325 41 347 70 b 373 120 366 106 370 113 b 374 124 374 122 374 123 b 376 137 378 128 379 132 b 351 150 370 145 359 148 b 187 150 297 162 241 162 b 162 137 180 149 166 145 b 167 121 158 131 161 125 b 200 111 177 114 189 112 b 242 113 214 109 228 110 b 245 113 243 113 244 113 b 255 115 248 114 252 114 b 259 115 256 115 258 115 b 260 115 259 115 260 115 b 222 61 250 95 238 77 b 207 49 217 56 212 53 b 188 62 200 53 194 57 b 153 120 172 79 161 98 b 141 202 145 146 143 174 b 135 292 138 232 136 262 b 141 474 133 353 133 414 b 156 553 144 501 148 527 b 190 610 164 574 174 594 b 204 621 194 614 199 618 b 210 623 206 622 208 623 b 212 624 210 623 211 624 b 213 624 212 624 212 624 b 214 624 213 624 214 624 b 214 624 214 624 214 624 b 216 623 215 624 216 623 b 224 617 219 621 222 619 b 237 597 230 611 234 605 b 239 582 239 592 239 587 b 255 567 240 574 250 569 b 294 560 267 562 282 560 b 332 567 307 560 321 561 b 348 582 339 569 348 574 b 265 663 348 627 305 655 b 164 663 231 669 198 669 b 101 637 142 659 119 651 b 48 555 74 616 59 587 b 30 455 37 523 33 489 z m 200 46 b 200 46 200 46 200 46 b 200 46 200 46 200 46 b 197 45 199 46 198 45 b 200 46 198 45 199 46 z "},"h":{"ha":413,"x_min":0,"x_max":0,"o":"m 38 164 b 37 29 38 119 37 74 b 52 13 36 21 47 16 b 91 7 64 9 79 7 b 129 13 104 7 118 8 b 145 29 136 16 145 20 b 147 269 147 109 147 189 b 147 322 147 286 147 304 b 159 323 151 322 155 322 b 165 323 161 323 163 323 b 182 323 170 323 176 323 b 216 324 193 324 204 324 b 233 323 221 323 227 323 b 241 323 236 323 239 323 b 246 323 243 323 244 323 b 242 323 244 323 243 323 b 266 323 250 322 258 322 b 266 164 267 270 267 217 b 265 29 266 119 265 74 b 281 13 265 21 275 16 b 319 7 292 9 307 7 b 358 13 332 7 346 8 b 374 29 364 16 374 20 b 375 269 375 109 375 189 b 374 507 376 348 375 428 b 372 643 374 553 373 598 b 356 659 372 651 362 656 b 318 665 345 663 330 665 b 279 659 305 665 291 664 b 263 643 273 656 263 651 b 266 403 265 563 266 483 b 266 365 266 391 266 378 b 147 366 226 367 187 368 b 146 507 147 413 146 460 b 144 643 145 553 145 598 b 128 659 143 651 134 656 b 89 665 116 663 101 665 b 51 659 76 665 62 664 b 35 643 44 656 35 651 b 38 403 36 563 37 483 b 38 164 38 324 38 244 z "},"i":{"ha":183,"x_min":0,"x_max":0,"o":"m 38 164 b 37 29 38 119 37 74 b 52 13 36 21 47 16 b 91 7 64 9 79 7 b 129 13 104 7 118 8 b 145 29 136 16 145 20 b 147 269 147 109 147 189 b 146 507 147 348 147 428 b 144 643 145 553 145 598 b 128 659 143 651 134 656 b 89 665 116 663 101 665 b 51 659 76 665 62 664 b 35 643 44 656 35 651 b 38 403 36 563 37 483 b 38 164 38 324 38 244 z "},"í":{"ha":183,"x_min":0,"x_max":0,"o":"m 38 164 b 37 29 38 119 37 74 b 52 13 36 21 47 16 b 91 7 64 9 79 7 b 129 13 104 7 118 8 b 145 29 136 16 145 20 b 147 269 147 109 147 189 b 146 507 147 348 147 428 b 144 643 145 553 145 598 b 128 659 143 651 134 656 b 89 665 116 663 101 665 b 51 659 76 665 62 664 b 35 643 44 656 35 651 b 38 403 36 563 37 483 b 38 164 38 324 38 244 z "},"î":{"ha":183,"x_min":0,"x_max":0,"o":"m 38 164 b 37 29 38 119 37 74 b 52 13 36 21 47 16 b 91 7 64 9 79 7 b 129 13 104 7 118 8 b 145 29 136 16 145 20 b 147 269 147 109 147 189 b 146 507 147 348 147 428 b 144 643 145 553 145 598 b 128 659 143 651 134 656 b 89 665 116 663 101 665 b 51 659 76 665 62 664 b 35 643 44 656 35 651 b 38 403 36 563 37 483 b 38 164 38 324 38 244 z "},"ï":{"ha":183,"x_min":0,"x_max":0,"o":"m 38 164 b 37 29 38 119 37 74 b 52 13 36 21 47 16 b 91 7 64 9 79 7 b 129 13 104 7 118 8 b 145 29 136 16 145 20 b 147 269 147 109 147 189 b 146 507 147 348 147 428 b 144 643 145 553 145 598 b 128 659 143 651 134 656 b 89 665 116 663 101 665 b 51 659 76 665 62 664 b 35 643 44 656 35 651 b 38 403 36 563 37 483 b 38 164 38 324 38 244 z "},"j":{"ha":356,"x_min":0,"x_max":0,"o":"m 156 -1 b 251 24 189 0 222 7 b 286 56 264 32 277 43 b 307 111 297 73 303 92 b 324 273 320 164 322 219 b 320 464 325 336 323 400 b 310 628 317 519 313 573 b 309 643 310 633 310 638 b 293 659 309 651 299 656 b 255 665 282 663 267 665 b 216 659 242 665 228 664 b 200 643 210 656 200 651 b 212 434 204 573 209 504 b 211 193 215 354 217 273 b 194 94 208 160 204 126 b 172 57 189 80 182 68 b 155 45 167 53 161 48 b 154 44 154 45 154 45 b 138 56 148 48 143 51 b 115 91 128 66 120 78 b 114 199 105 126 112 163 b 98 214 114 206 103 212 b 59 220 86 219 71 221 b 21 214 46 220 32 219 b 5 199 14 211 5 207 b 18 63 3 153 -7 105 b 156 -1 46 17 104 -3 z "},"k":{"ha":385,"x_min":0,"x_max":0,"o":"m 38 164 b 37 29 38 119 37 74 b 52 13 36 21 47 16 b 91 7 64 9 79 7 b 129 13 104 7 118 8 b 145 29 136 16 145 20 b 147 221 146 93 147 157 b 148 221 147 221 148 221 b 176 200 158 215 168 208 b 229 113 201 176 218 145 b 244 29 238 86 243 58 b 260 14 244 21 254 16 b 299 8 271 9 286 7 b 337 14 311 8 325 9 b 353 29 343 17 353 21 b 250 238 350 108 318 194 b 197 262 234 248 216 257 b 355 449 266 309 326 371 b 375 527 365 474 372 500 b 359 542 376 534 364 540 b 320 549 347 547 332 549 b 282 542 308 548 294 548 b 266 527 275 539 267 535 b 253 469 264 507 259 488 b 162 331 235 416 202 370 b 147 317 157 326 152 322 b 146 507 147 381 147 444 b 144 643 145 553 145 598 b 128 659 143 651 134 656 b 89 665 116 663 101 665 b 51 659 76 665 62 664 b 35 643 44 656 35 651 b 38 403 36 563 37 483 b 38 164 38 324 38 244 z "},"l":{"ha":367,"x_min":0,"x_max":0,"o":"m 38 164 b 37 29 38 119 37 74 b 52 13 36 21 47 16 b 89 7 63 9 77 7 b 124 6 100 5 112 5 b 136 7 128 6 132 7 b 141 7 138 7 139 7 b 164 8 149 8 156 8 b 217 10 181 9 199 9 b 322 8 252 10 287 10 b 361 15 334 8 349 10 b 377 30 365 17 377 23 b 361 45 376 38 367 43 b 322 52 348 50 335 51 b 146 51 263 54 204 54 b 147 269 147 124 147 196 b 146 508 147 348 147 428 b 144 643 145 553 145 598 b 128 659 143 651 134 656 b 89 665 116 663 101 665 b 51 659 76 665 62 664 b 35 643 44 656 35 651 b 38 403 36 563 37 483 b 38 164 38 324 38 244 z "},"m":{"ha":571,"x_min":0,"x_max":0,"o":"m 38 164 b 37 29 38 119 38 74 b 53 13 37 21 48 16 b 92 7 65 9 79 7 b 130 13 104 7 118 8 b 146 29 136 16 146 20 b 147 269 147 109 147 189 b 147 332 147 290 147 311 b 190 211 161 292 175 251 b 232 93 204 172 218 132 b 257 80 235 86 252 81 b 290 77 267 78 279 77 b 313 80 298 77 306 78 b 313 80 313 80 313 80 b 325 84 317 81 321 82 b 338 93 330 86 335 89 b 413 301 363 162 388 232 b 423 332 416 311 420 322 b 424 164 423 276 423 220 b 424 29 424 119 424 74 b 440 13 424 21 435 16 b 479 7 452 9 467 7 b 517 13 492 7 506 8 b 533 29 524 16 533 20 b 532 269 533 109 532 189 b 533 507 532 348 532 428 b 534 643 533 553 534 598 b 518 659 534 651 524 656 b 480 665 507 663 492 665 b 441 659 467 665 453 664 b 432 654 438 657 435 656 b 425 647 429 652 427 650 b 349 430 399 575 374 503 b 285 250 328 370 307 310 b 263 313 278 271 270 292 b 189 523 238 383 214 453 b 146 647 175 564 160 606 b 136 655 145 650 141 653 b 129 659 134 657 131 658 b 91 665 118 663 103 665 b 52 659 78 665 64 664 b 36 643 46 656 36 651 b 38 403 37 563 38 483 b 38 164 38 324 38 244 z "},"n":{"ha":467,"x_min":0,"x_max":0,"o":"m 38 164 b 37 29 38 119 38 74 b 53 13 37 21 48 16 b 92 7 65 9 80 7 b 130 13 105 7 119 8 b 146 29 137 16 146 20 b 147 269 147 109 147 189 b 147 395 147 311 147 353 b 149 391 148 394 148 392 b 252 159 183 313 217 236 b 312 26 272 114 292 70 b 336 13 315 19 329 15 b 374 7 347 9 362 7 b 412 13 387 7 401 8 b 428 29 419 16 428 20 b 427 269 428 109 427 189 b 428 507 427 348 427 428 b 430 643 428 553 429 598 b 414 659 430 651 419 656 b 375 665 402 663 387 665 b 337 659 362 665 348 664 b 321 643 330 656 321 652 b 318 403 320 563 319 483 b 318 257 318 355 318 306 b 312 272 316 262 314 267 b 208 507 277 350 242 429 b 146 647 187 554 167 600 b 135 656 145 651 140 654 b 129 659 133 657 131 658 b 91 665 118 663 103 665 b 52 659 78 665 64 664 b 36 643 46 656 36 651 b 38 403 37 563 38 483 b 38 164 39 324 39 244 z "},"o":{"ha":424,"x_min":0,"x_max":0,"o":"m 29 319 b 29 317 29 318 29 318 b 29 314 29 316 29 315 b 30 261 30 297 29 279 b 35 179 30 233 31 206 b 56 91 38 149 45 119 b 105 25 66 65 82 41 b 157 4 120 15 139 8 b 239 2 184 -1 212 -3 b 294 20 259 5 277 10 b 321 41 304 25 313 33 b 355 95 336 57 346 76 b 382 177 367 122 375 149 b 400 364 396 238 402 302 b 374 541 399 424 393 484 b 341 610 366 565 356 589 b 284 657 326 631 307 647 b 228 670 267 664 247 668 b 152 665 203 672 177 672 b 77 615 122 657 96 641 b 44 540 61 593 51 566 b 30 459 37 514 32 486 b 28 330 26 416 25 373 b 29 319 28 326 28 323 z m 202 627 b 203 627 202 627 202 627 b 203 627 203 627 203 627 b 202 627 193 627 198 627 z m 210 628 b 210 628 210 628 210 628 b 213 628 211 628 212 628 b 210 628 212 628 211 628 z m 143 492 b 157 555 146 513 151 534 b 193 617 165 577 176 599 b 206 626 197 620 201 623 b 207 626 207 626 207 626 b 222 615 212 623 217 619 b 266 538 243 594 256 566 b 291 385 282 489 289 437 b 281 217 293 329 290 272 b 262 136 276 190 270 162 b 225 64 253 111 242 86 b 215 52 222 60 219 56 b 204 44 211 49 208 46 b 204 44 204 44 204 44 b 191 54 199 47 195 50 b 158 110 175 70 165 90 b 138 286 140 166 139 227 b 138 314 138 295 138 305 b 137 316 138 315 138 316 b 138 319 138 317 138 318 b 135 379 136 339 135 359 b 143 492 135 417 137 455 z "},"ó":{"ha":424,"x_min":0,"x_max":0,"o":"m 29 319 b 29 317 29 318 29 318 b 29 314 29 316 29 315 b 30 261 30 297 29 279 b 35 179 30 233 31 206 b 56 91 38 149 45 119 b 105 25 66 65 82 41 b 157 4 120 15 139 8 b 239 2 184 -1 212 -3 b 294 20 259 5 277 10 b 321 41 304 25 313 33 b 355 95 336 57 346 76 b 382 177 367 122 375 149 b 400 364 396 238 402 302 b 374 541 399 424 393 484 b 341 610 366 565 356 589 b 284 657 326 631 307 647 b 228 670 267 664 247 668 b 152 665 203 672 177 672 b 77 615 122 657 96 641 b 44 540 61 593 51 566 b 30 459 37 514 32 486 b 28 330 26 416 25 373 b 29 319 28 326 28 323 z m 202 627 b 203 627 202 627 202 627 b 203 627 203 627 203 627 b 202 627 193 627 198 627 z m 210 628 b 210 628 210 628 210 628 b 213 628 211 628 212 628 b 210 628 212 628 211 628 z m 143 492 b 157 555 146 513 151 534 b 193 617 165 577 176 599 b 206 626 197 620 201 623 b 207 626 207 626 207 626 b 222 615 212 623 217 619 b 266 538 243 594 256 566 b 291 385 282 489 289 437 b 281 217 293 329 290 272 b 262 136 276 190 270 162 b 225 64 253 111 242 86 b 215 52 222 60 219 56 b 204 44 211 49 208 46 b 204 44 204 44 204 44 b 191 54 199 47 195 50 b 158 110 175 70 165 90 b 138 286 140 166 139 227 b 138 314 138 295 138 305 b 137 316 138 315 138 316 b 138 319 138 317 138 318 b 135 379 136 339 135 359 b 143 492 135 417 137 455 z "},"ô":{"ha":424,"x_min":0,"x_max":0,"o":"m 29 319 b 29 317 29 318 29 318 b 29 314 29 316 29 315 b 30 261 30 297 29 279 b 35 179 30 233 31 206 b 56 91 38 149 45 119 b 105 25 66 65 82 41 b 157 4 120 15 139 8 b 239 2 184 -1 212 -3 b 294 20 259 5 277 10 b 321 41 304 25 313 33 b 355 95 336 57 346 76 b 382 177 367 122 375 149 b 400 364 396 238 402 302 b 374 541 399 424 393 484 b 341 610 366 565 356 589 b 284 657 326 631 307 647 b 228 670 267 664 247 668 b 152 665 203 672 177 672 b 77 615 122 657 96 641 b 44 540 61 593 51 566 b 30 459 37 514 32 486 b 28 330 26 416 25 373 b 29 319 28 326 28 323 z m 202 627 b 203 627 202 627 202 627 b 203 627 203 627 203 627 b 202 627 193 627 198 627 z m 210 628 b 210 628 210 628 210 628 b 213 628 211 628 212 628 b 210 628 212 628 211 628 z m 143 492 b 157 555 146 513 151 534 b 193 617 165 577 176 599 b 206 626 197 620 201 623 b 207 626 207 626 207 626 b 222 615 212 623 217 619 b 266 538 243 594 256 566 b 291 385 282 489 289 437 b 281 217 293 329 290 272 b 262 136 276 190 270 162 b 225 64 253 111 242 86 b 215 52 222 60 219 56 b 204 44 211 49 208 46 b 204 44 204 44 204 44 b 191 54 199 47 195 50 b 158 110 175 70 165 90 b 138 286 140 166 139 227 b 138 314 138 295 138 305 b 137 316 138 315 138 316 b 138 319 138 317 138 318 b 135 379 136 339 135 359 b 143 492 135 417 137 455 z "},"õ":{"ha":424,"x_min":0,"x_max":0,"o":"m 29 319 b 29 317 29 318 29 318 b 29 314 29 316 29 315 b 30 261 30 297 29 279 b 35 179 30 233 31 206 b 56 91 38 149 45 119 b 105 25 66 65 82 41 b 157 4 120 15 139 8 b 239 2 184 -1 212 -3 b 294 20 259 5 277 10 b 321 41 304 25 313 33 b 355 95 336 57 346 76 b 382 177 367 122 375 149 b 400 364 396 238 402 302 b 374 541 399 424 393 484 b 341 610 366 565 356 589 b 284 657 326 631 307 647 b 228 670 267 664 247 668 b 152 665 203 672 177 672 b 77 615 122 657 96 641 b 44 540 61 593 51 566 b 30 459 37 514 32 486 b 28 330 26 416 25 373 b 29 319 28 326 28 323 z m 202 627 b 203 627 202 627 202 627 b 203 627 203 627 203 627 b 202 627 193 627 198 627 z m 210 628 b 210 628 210 628 210 628 b 213 628 211 628 212 628 b 210 628 212 628 211 628 z m 143 492 b 157 555 146 513 151 534 b 193 617 165 577 176 599 b 206 626 197 620 201 623 b 207 626 207 626 207 626 b 222 615 212 623 217 619 b 266 538 243 594 256 566 b 291 385 282 489 289 437 b 281 217 293 329 290 272 b 262 136 276 190 270 162 b 225 64 253 111 242 86 b 215 52 222 60 219 56 b 204 44 211 49 208 46 b 204 44 204 44 204 44 b 191 54 199 47 195 50 b 158 110 175 70 165 90 b 138 286 140 166 139 227 b 138 314 138 295 138 305 b 137 316 138 315 138 316 b 138 319 138 317 138 318 b 135 379 136 339 135 359 b 143 492 135 417 137 455 z "},"ö":{"ha":424,"x_min":0,"x_max":0,"o":"m 29 319 b 29 317 29 318 29 318 b 29 314 29 316 29 315 b 30 261 30 297 29 279 b 35 179 30 233 31 206 b 56 91 38 149 45 119 b 105 25 66 65 82 41 b 157 4 120 15 139 8 b 239 2 184 -1 212 -3 b 294 20 259 5 277 10 b 321 41 304 25 313 33 b 355 95 336 57 346 76 b 382 177 367 122 375 149 b 400 364 396 238 402 302 b 374 541 399 424 393 484 b 341 610 366 565 356 589 b 284 657 326 631 307 647 b 228 670 267 664 247 668 b 152 665 203 672 177 672 b 77 615 122 657 96 641 b 44 540 61 593 51 566 b 30 459 37 514 32 486 b 28 330 26 416 25 373 b 29 319 28 326 28 323 z m 202 627 b 203 627 202 627 202 627 b 203 627 203 627 203 627 b 202 627 193 627 198 627 z m 210 628 b 210 628 210 628 210 628 b 213 628 211 628 212 628 b 210 628 212 628 211 628 z m 143 492 b 157 555 146 513 151 534 b 193 617 165 577 176 599 b 206 626 197 620 201 623 b 207 626 207 626 207 626 b 222 615 212 623 217 619 b 266 538 243 594 256 566 b 291 385 282 489 289 437 b 281 217 293 329 290 272 b 262 136 276 190 270 162 b 225 64 253 111 242 86 b 215 52 222 60 219 56 b 204 44 211 49 208 46 b 204 44 204 44 204 44 b 191 54 199 47 195 50 b 158 110 175 70 165 90 b 138 286 140 166 139 227 b 138 314 138 295 138 305 b 137 316 138 315 138 316 b 138 319 138 317 138 318 b 135 379 136 339 135 359 b 143 492 135 417 137 455 z "},"p":{"ha":386,"x_min":0,"x_max":0,"o":"m 39 404 b 40 164 40 324 40 244 b 39 28 40 119 39 74 b 55 13 39 20 49 15 b 93 6 66 8 81 6 b 132 13 106 7 120 7 b 148 28 138 16 148 20 b 149 270 149 109 149 189 b 148 317 148 285 148 301 b 262 342 187 319 226 327 b 359 415 300 357 335 381 b 383 507 378 441 389 475 b 317 601 376 546 349 578 b 245 638 295 616 270 629 b 142 665 211 651 177 659 b 104 672 129 668 116 670 b 62 669 90 673 75 672 b 37 656 55 668 40 664 b 35 648 35 653 35 651 b 35 646 35 648 35 647 b 39 404 37 565 38 485 z m 165 365 b 168 366 162 364 158 363 b 166 366 167 366 167 366 b 165 365 166 365 165 365 z m 170 367 b 170 367 170 367 170 367 b 173 368 171 367 172 367 b 170 367 172 367 171 367 z m 173 605 b 199 594 182 602 191 598 b 241 565 214 586 228 576 b 271 519 254 552 265 536 b 271 458 277 499 277 478 b 237 406 264 438 251 421 b 197 378 225 395 211 386 b 179 370 191 375 185 372 b 168 366 175 369 172 367 b 163 365 167 366 165 365 b 151 362 159 364 155 363 b 148 361 150 362 149 362 b 146 510 148 411 147 460 b 144 615 146 545 145 580 b 148 614 146 615 147 614 b 150 613 149 614 149 614 b 156 611 152 613 154 612 b 173 605 162 609 167 607 z "},"q":{"ha":433,"x_min":0,"x_max":0,"o":"m 29 319 b 29 317 29 318 29 318 b 29 314 29 316 29 315 b 30 261 30 297 29 279 b 35 179 30 233 31 206 b 56 91 38 149 45 119 b 105 25 66 65 82 41 b 157 4 120 15 139 8 b 240 2 184 -1 212 -3 b 294 20 259 5 277 10 b 300 23 296 21 298 22 b 307 13 302 20 305 17 b 332 0 313 6 324 2 b 374 -2 345 -3 361 -4 b 407 8 385 -1 398 1 b 412 25 412 12 417 18 b 355 96 394 49 375 73 b 382 177 367 122 376 150 b 400 364 396 238 402 302 b 374 541 399 424 393 484 b 341 610 366 565 356 589 b 284 657 326 631 307 647 b 228 670 267 664 247 668 b 152 665 203 672 177 672 b 77 615 122 657 95 641 b 44 540 61 593 51 566 b 30 459 37 514 32 486 b 28 330 26 416 25 373 b 29 319 28 326 28 323 z m 202 627 b 203 627 202 627 202 627 b 203 627 203 627 203 627 b 202 627 193 627 198 627 z m 210 628 b 210 628 210 628 210 628 b 213 628 211 628 212 628 b 210 628 212 628 211 628 z m 143 492 b 157 555 146 513 151 534 b 193 617 165 577 176 599 b 206 626 197 620 201 623 b 207 626 207 626 207 626 b 222 615 212 623 217 619 b 266 538 243 594 256 566 b 291 385 282 489 289 437 b 281 217 293 329 290 272 b 270 166 278 200 275 183 b 234 167 259 169 245 169 b 201 157 223 166 210 164 b 196 141 197 154 190 146 b 243 92 212 125 228 109 b 225 64 238 82 232 73 b 215 52 222 60 219 56 b 204 44 211 49 208 46 b 204 44 204 44 204 44 b 191 54 199 47 195 50 b 158 110 175 70 165 90 b 138 286 140 166 139 227 b 138 314 138 295 138 305 b 137 316 138 315 138 316 b 138 319 138 317 138 318 b 135 379 136 339 135 359 b 143 492 135 417 137 455 z "},"r":{"ha":403,"x_min":0,"x_max":0,"o":"m 39 404 b 40 164 40 324 40 244 b 39 28 40 119 39 74 b 55 13 39 20 49 15 b 93 6 66 8 81 6 b 132 13 106 7 120 7 b 148 28 138 16 148 20 b 149 270 149 109 149 189 b 148 297 148 279 148 288 b 157 295 151 296 154 295 b 160 294 158 295 159 294 b 167 291 162 293 165 292 b 192 273 176 286 184 280 b 252 171 220 245 238 208 b 276 29 267 125 274 77 b 292 14 276 21 286 16 b 330 8 303 9 318 7 b 369 14 343 8 357 9 b 385 29 375 17 385 21 b 357 181 383 81 374 132 b 283 297 342 225 319 266 b 225 329 267 312 246 323 b 262 342 238 332 250 337 b 359 415 300 357 335 381 b 383 507 378 441 389 475 b 317 601 376 546 349 578 b 245 638 295 616 270 629 b 142 665 211 651 177 659 b 104 672 129 668 116 670 b 62 669 90 673 75 672 b 37 656 55 668 40 664 b 35 648 35 653 35 651 b 35 646 35 648 35 647 b 39 404 37 565 38 485 z m 170 367 b 170 367 170 367 170 367 b 173 368 171 367 172 367 b 170 367 172 367 171 367 z m 168 366 b 166 366 167 366 167 366 b 165 365 166 365 165 365 b 168 366 162 364 158 363 z m 173 605 b 199 594 182 602 191 598 b 241 565 214 586 228 576 b 271 519 254 552 265 536 b 271 458 277 499 277 478 b 237 406 264 438 251 421 b 197 378 225 395 211 386 b 179 370 191 375 185 372 b 168 366 175 369 172 367 b 163 365 167 366 165 365 b 151 362 159 364 155 363 b 148 361 150 362 149 362 b 146 510 148 411 147 460 b 144 615 146 545 145 580 b 148 614 146 615 147 614 b 150 613 149 614 149 614 b 156 611 152 613 154 612 b 173 605 162 609 167 607 z "},"s":{"ha":333,"x_min":0,"x_max":0,"o":"m 116 346 b 203 218 151 308 186 268 b 204 98 215 180 216 137 b 176 52 197 81 188 65 b 171 48 174 50 173 49 b 168 51 170 49 169 50 b 151 77 161 58 155 67 b 151 124 147 92 147 109 b 156 134 153 128 154 131 b 118 161 166 153 129 160 b 76 159 104 162 89 162 b 51 146 68 156 55 154 b 43 75 39 124 36 99 b 60 42 47 63 51 52 b 97 14 70 30 83 21 b 151 0 113 6 133 2 b 220 5 174 -2 198 -1 b 293 56 250 13 276 30 b 319 129 308 77 316 103 b 314 211 323 156 322 184 b 231 346 300 264 267 306 b 130 489 192 390 150 433 b 127 582 120 519 118 552 b 149 618 132 595 139 608 b 151 616 149 617 150 617 b 166 592 157 609 163 601 b 169 580 168 588 168 584 b 185 564 170 572 178 567 b 223 558 196 560 211 558 b 262 564 236 558 250 559 b 278 580 268 567 278 572 b 187 665 273 626 230 656 b 75 653 150 672 109 671 b 26 603 53 642 36 624 b 31 461 4 557 11 506 b 116 346 51 417 84 381 z m 164 42 b 165 43 164 42 165 42 b 164 42 165 42 164 42 b 164 42 164 42 164 42 z m 164 43 b 163 42 163 43 163 42 b 163 42 163 42 163 42 b 164 43 161 42 160 42 z m 159 41 b 160 41 160 41 160 41 b 160 41 160 41 160 41 b 159 41 157 40 153 39 z "},"t":{"ha":457,"x_min":0,"x_max":0,"o":"m 16 621 b 58 618 30 618 44 617 b 92 620 69 619 80 620 b 98 621 94 621 96 621 b 117 622 104 621 111 621 b 170 624 134 622 152 623 b 173 395 171 547 172 471 b 173 161 173 317 173 239 b 172 29 173 117 172 73 b 188 13 172 21 182 16 b 226 7 199 9 214 7 b 265 13 239 7 253 8 b 281 29 271 16 280 20 b 282 263 282 107 282 185 b 281 496 282 340 282 418 b 279 625 280 539 280 582 b 332 625 297 625 314 625 b 413 623 359 624 386 624 b 452 629 425 622 440 624 b 468 644 456 631 468 637 b 452 660 467 653 458 657 b 413 666 439 665 426 666 b 123 665 316 670 220 670 b 29 660 92 664 60 662 b -4 650 19 660 4 656 b -9 634 -9 647 -14 640 b 16 621 -4 626 7 622 z "},"u":{"ha":417,"x_min":0,"x_max":0,"o":"m 36 207 b 56 71 37 162 38 114 b 173 2 76 26 125 5 b 333 53 229 -2 293 8 b 362 103 346 67 355 85 b 378 169 370 124 375 146 b 383 310 385 216 383 263 b 384 603 384 408 384 506 b 384 640 384 616 384 628 b 368 656 384 648 374 653 b 330 662 357 660 342 662 b 291 656 317 662 303 661 b 275 640 285 653 275 649 b 275 430 275 570 275 500 b 274 325 275 395 275 360 b 274 223 274 291 275 257 b 258 119 273 188 269 153 b 224 61 251 98 240 77 b 208 49 219 56 214 52 b 200 45 205 48 202 46 b 199 45 200 45 200 45 b 197 45 199 45 198 45 b 195 44 197 45 196 45 b 191 46 194 45 193 46 b 180 55 187 49 183 51 b 159 90 170 65 163 77 b 146 189 149 122 147 156 b 144 299 145 226 145 263 b 144 522 144 373 144 447 b 144 647 144 563 144 605 b 128 663 144 655 134 660 b 90 669 117 667 102 669 b 51 663 77 669 63 668 b 35 647 45 660 36 656 b 35 354 35 550 35 452 b 37 208 35 306 36 256 z "},"ú":{"ha":417,"x_min":0,"x_max":0,"o":"m 36 207 b 56 71 37 162 38 114 b 173 2 76 26 125 5 b 333 53 229 -2 293 8 b 362 103 346 67 355 85 b 378 169 370 124 375 146 b 383 310 385 216 383 263 b 384 603 384 408 384 506 b 384 640 384 616 384 628 b 368 656 384 648 374 653 b 330 662 357 660 342 662 b 291 656 317 662 303 661 b 275 640 285 653 275 649 b 275 430 275 570 275 500 b 274 325 275 395 275 360 b 274 223 274 291 275 257 b 258 119 273 188 269 153 b 224 61 251 98 240 77 b 208 49 219 56 214 52 b 200 45 205 48 202 46 b 199 45 200 45 200 45 b 197 45 199 45 198 45 b 195 44 197 45 196 45 b 191 46 194 45 193 46 b 180 55 187 49 183 51 b 159 90 170 65 163 77 b 146 189 149 122 147 156 b 144 299 145 226 145 263 b 144 522 144 373 144 447 b 144 647 144 563 144 605 b 128 663 144 655 134 660 b 90 669 117 667 102 669 b 51 663 77 669 63 668 b 35 647 45 660 36 656 b 35 354 35 550 35 452 b 37 208 35 306 36 256 z "},"û":{"ha":417,"x_min":0,"x_max":0,"o":"m 36 207 b 56 71 37 162 38 114 b 173 2 76 26 125 5 b 333 53 229 -2 293 8 b 362 103 346 67 355 85 b 378 169 370 124 375 146 b 383 310 385 216 383 263 b 384 603 384 408 384 506 b 384 640 384 616 384 628 b 368 656 384 648 374 653 b 330 662 357 660 342 662 b 291 656 317 662 303 661 b 275 640 285 653 275 649 b 275 430 275 570 275 500 b 274 325 275 395 275 360 b 274 223 274 291 275 257 b 258 119 273 188 269 153 b 224 61 251 98 240 77 b 208 49 219 56 214 52 b 200 45 205 48 202 46 b 199 45 200 45 200 45 b 197 45 199 45 198 45 b 195 44 197 45 196 45 b 191 46 194 45 193 46 b 180 55 187 49 183 51 b 159 90 170 65 163 77 b 146 189 149 122 147 156 b 144 299 145 226 145 263 b 144 522 144 373 144 447 b 144 647 144 563 144 605 b 128 663 144 655 134 660 b 90 669 117 667 102 669 b 51 663 77 669 63 668 b 35 647 45 660 36 656 b 35 354 35 550 35 452 b 37 208 35 306 36 256 z "},"ü":{"ha":417,"x_min":0,"x_max":0,"o":"m 36 207 b 56 71 37 162 38 114 b 173 2 76 26 125 5 b 333 53 229 -2 293 8 b 362 103 346 67 355 85 b 378 169 370 124 375 146 b 383 310 385 216 383 263 b 384 603 384 408 384 506 b 384 640 384 616 384 628 b 368 656 384 648 374 653 b 330 662 357 660 342 662 b 291 656 317 662 303 661 b 275 640 285 653 275 649 b 275 430 275 570 275 500 b 274 325 275 395 275 360 b 274 223 274 291 275 257 b 258 119 273 188 269 153 b 224 61 251 98 240 77 b 208 49 219 56 214 52 b 200 45 205 48 202 46 b 199 45 200 45 200 45 b 197 45 199 45 198 45 b 195 44 197 45 196 45 b 191 46 194 45 193 46 b 180 55 187 49 183 51 b 159 90 170 65 163 77 b 146 189 149 122 147 156 b 144 299 145 226 145 263 b 144 522 144 373 144 447 b 144 647 144 563 144 605 b 128 663 144 655 134 660 b 90 669 117 667 102 669 b 51 663 77 669 63 668 b 35 647 45 660 36 656 b 35 354 35 550 35 452 b 37 208 35 306 36 256 z "},"v":{"ha":438,"x_min":0,"x_max":0,"o":"m 64 405 b 127 166 85 326 106 246 b 162 31 139 121 151 76 b 178 15 165 22 171 18 b 217 9 190 10 204 9 b 220 9 218 9 219 9 b 259 15 233 9 247 10 b 274 31 266 19 272 22 b 337 271 295 111 316 191 b 401 510 358 351 379 431 b 437 646 413 555 425 601 b 421 661 439 653 424 659 b 382 667 409 666 394 668 b 344 661 370 667 356 666 b 328 646 336 658 330 654 b 264 405 306 566 285 486 b 218 234 249 348 233 291 b 209 271 215 246 212 259 b 145 510 188 351 167 431 b 109 646 133 555 121 601 b 93 661 107 654 101 658 b 55 667 82 666 67 668 b 16 661 42 667 28 666 b 0 646 11 659 -2 653 b 64 405 22 566 43 486 z "},"w":{"ha":690,"x_min":0,"x_max":0,"o":"m 148 166 b 189 31 162 121 176 76 b 194 22 190 27 191 24 b 205 15 197 19 201 16 b 244 9 217 10 232 9 b 244 9 244 9 244 9 b 248 9 245 9 246 9 b 286 15 260 9 274 10 b 295 20 289 17 292 18 b 302 31 299 22 301 26 b 345 170 316 77 331 123 b 367 97 352 146 360 121 b 388 31 374 75 381 53 b 393 22 388 27 390 24 b 404 15 396 19 399 16 b 442 9 415 10 430 9 b 442 9 442 9 442 9 b 446 9 444 9 445 9 b 484 15 459 9 473 10 b 493 20 487 17 490 18 b 500 31 497 22 500 26 b 575 271 525 111 550 191 b 650 510 600 351 625 430 b 693 646 664 555 678 600 b 677 661 695 652 680 660 b 638 667 665 666 650 668 b 600 661 625 667 611 666 b 591 657 597 660 594 658 b 584 646 587 654 584 650 b 508 406 558 566 533 486 b 444 201 486 338 465 269 b 425 263 438 222 431 243 b 404 330 418 285 411 307 b 400 338 404 333 402 336 b 388 345 396 341 393 344 b 350 351 377 350 362 352 b 347 351 349 351 348 351 b 340 351 344 351 342 351 b 302 345 327 351 313 350 b 293 341 299 344 296 342 b 286 330 289 338 286 334 b 246 201 272 287 259 244 b 224 271 239 225 231 248 b 149 510 199 351 174 430 b 106 646 135 555 120 600 b 101 654 106 649 104 652 b 90 661 98 657 95 660 b 52 667 79 666 64 668 b 13 661 39 667 25 666 b 5 657 10 660 7 658 b -3 646 0 654 -2 650 b 73 406 23 566 48 486 b 148 166 98 326 123 246 z "},"x":{"ha":421,"x_min":0,"x_max":0,"o":"m 414 24 b 294 268 373 105 333 186 b 266 325 284 287 275 306 b 349 503 294 384 322 443 b 414 642 371 549 392 595 b 408 658 417 649 415 654 b 376 668 400 665 386 667 b 334 666 362 670 347 670 b 323 663 330 665 326 664 b 309 653 317 661 312 658 b 210 442 276 582 244 512 b 176 514 199 466 188 490 b 112 653 155 560 133 607 b 87 666 109 660 93 665 b 45 668 74 669 58 670 b 13 658 35 667 21 665 b 7 642 7 654 4 649 b 122 395 45 559 83 477 b 155 325 133 372 144 349 b 75 161 129 270 102 216 b 7 24 53 115 30 70 b 45 -3 -2 5 33 -2 b 87 -1 59 -4 74 -4 b 112 12 95 1 108 4 b 210 211 145 78 178 145 b 241 149 220 190 230 170 b 309 12 263 104 286 58 b 334 -1 312 5 327 1 b 376 -3 347 -4 362 -5 b 408 7 386 -1 400 0 b 414 24 414 12 417 17 z "},"y":{"ha":417,"x_min":0,"x_max":0,"o":"m 119 381 b 154 308 131 357 142 332 b 153 95 154 237 154 166 b 152 29 153 73 152 51 b 168 13 152 21 162 16 b 207 7 179 9 194 7 b 245 13 219 7 233 8 b 261 29 251 16 261 20 b 263 263 262 107 263 185 b 263 310 263 278 263 294 b 386 567 304 396 345 482 b 421 641 397 592 409 616 b 383 667 430 660 395 666 b 341 665 369 669 355 669 b 330 662 337 664 334 663 b 316 652 324 660 320 657 b 208 427 280 577 244 502 b 135 579 184 477 159 528 b 100 652 123 603 111 628 b 75 665 96 659 81 664 b 33 667 62 668 46 669 b 0 657 22 666 9 664 b -5 641 -6 653 -9 648 b 119 381 36 554 78 468 z "},"ý":{"ha":417,"x_min":0,"x_max":0,"o":"m 119 381 b 154 308 131 357 142 332 b 153 95 154 237 154 166 b 152 29 153 73 152 51 b 168 13 152 21 162 16 b 207 7 179 9 194 7 b 245 13 219 7 233 8 b 261 29 251 16 261 20 b 263 263 262 107 263 185 b 263 310 263 278 263 294 b 386 567 304 396 345 482 b 421 641 397 592 409 616 b 383 667 430 660 395 666 b 341 665 369 669 355 669 b 330 662 337 664 334 663 b 316 652 324 660 320 657 b 208 427 280 577 244 502 b 135 579 184 477 159 528 b 100 652 123 603 111 628 b 75 665 96 659 81 664 b 33 667 62 668 46 669 b 0 657 22 666 9 664 b -5 641 -6 653 -9 648 b 119 381 36 554 78 468 z "},"ÿ":{"ha":417,"x_min":0,"x_max":0,"o":"m 119 381 b 154 308 131 357 142 332 b 153 95 154 237 154 166 b 152 29 153 73 152 51 b 168 13 152 21 162 16 b 207 7 179 9 194 7 b 245 13 219 7 233 8 b 261 29 251 16 261 20 b 263 263 262 107 263 185 b 263 310 263 278 263 294 b 386 567 304 396 345 482 b 421 641 397 592 409 616 b 383 667 430 660 395 666 b 341 665 369 669 355 669 b 330 662 337 664 334 663 b 316 652 324 660 320 657 b 208 427 280 577 244 502 b 135 579 184 477 159 528 b 100 652 123 603 111 628 b 75 665 96 659 81 664 b 33 667 62 668 46 669 b 0 657 22 666 9 664 b -5 641 -6 653 -9 648 b 119 381 36 554 78 468 z "},"z":{"ha":393,"x_min":0,"x_max":0,"o":"m 46 617 b 274 621 122 619 198 620 b 276 621 275 621 275 621 b 197 406 249 549 223 477 b 111 167 168 326 140 247 b 63 33 95 122 79 78 b 62 24 61 30 60 27 b 62 22 62 23 62 23 b 62 20 62 22 62 21 b 78 5 63 12 71 7 b 117 -2 90 0 104 -2 b 307 -1 180 -1 244 -1 b 345 5 319 -1 334 0 b 361 21 350 7 362 13 b 345 36 361 29 352 34 b 307 43 333 41 320 43 b 176 42 263 43 219 42 b 253 260 201 115 227 187 b 340 498 282 339 311 418 b 389 632 356 542 372 587 b 391 638 390 634 391 636 b 392 643 392 639 392 641 b 376 658 391 651 383 656 b 338 665 364 663 351 665 b 113 662 263 665 188 664 b 46 661 91 662 68 661 b 8 654 34 661 19 659 b -8 639 3 652 -9 646 b 8 624 -7 631 1 626 b 46 617 20 619 33 617 z "},"{":{"ha":221,"x_min":0,"x_max":0,"o":"m 339 -56 b 314 -42 335 -48 321 -44 b 272 -40 301 -40 286 -38 b 240 -50 262 -42 248 -43 b 235 -54 238 -52 237 -53 b 231 -52 234 -53 232 -53 b 211 -38 224 -48 217 -43 b 181 12 197 -24 188 -6 b 172 309 150 109 200 211 b 140 382 165 335 154 360 b 175 603 179 449 169 529 b 187 667 177 625 181 646 b 225 727 195 689 208 710 b 246 743 231 733 239 739 b 251 745 248 744 249 744 b 253 746 252 745 252 746 b 253 746 253 746 253 746 b 284 752 264 747 275 748 b 300 767 289 754 301 760 b 284 783 300 776 291 780 b 246 789 272 787 259 790 b 139 756 208 788 170 780 b 89 696 118 740 101 719 b 63 516 62 640 65 576 b 49 424 61 485 58 454 b 31 388 44 411 38 399 b 31 376 29 384 29 380 b 61 318 44 358 53 339 b 71 200 73 280 74 240 b 62 81 67 160 61 121 b 87 -25 62 44 69 7 b 167 -88 105 -55 134 -77 b 262 -98 198 -98 229 -102 b 334 -72 287 -96 314 -88 b 339 -56 339 -68 343 -62 z m 229 -57 b 226 -58 228 -57 227 -57 b 229 -57 227 -57 228 -57 b 229 -57 229 -57 229 -57 z m 238 -55 b 238 -55 238 -55 238 -55 b 238 -55 238 -55 238 -55 z "},"|":{"ha":199,"x_min":0,"x_max":0,"o":"m 160 122 b 156 285 159 176 157 231 b 150 472 154 347 152 410 b 144 639 148 528 146 583 b 140 749 143 676 142 712 b 139 756 140 751 140 754 b 124 772 139 764 130 769 b 85 778 112 776 97 778 b 47 772 72 778 58 777 b 31 756 41 769 30 764 b 35 657 33 723 34 690 b 40 494 37 602 39 548 b 46 307 42 432 44 370 b 51 139 48 251 49 195 b 52 28 51 102 52 65 b 52 20 52 25 52 23 b 68 5 52 12 63 7 b 107 -2 80 0 95 -2 b 145 5 120 -1 134 -1 b 161 20 152 8 161 12 b 160 122 161 54 161 88 z "},"}":{"ha":221,"x_min":0,"x_max":0,"o":"m 189 388 b 171 424 182 399 176 411 b 154 595 154 479 158 538 b 135 687 152 627 146 658 b 88 750 124 712 108 733 b -26 789 57 778 15 788 b -65 783 -38 790 -53 788 b -81 767 -69 781 -81 775 b -65 752 -80 759 -71 755 b -34 746 -55 748 -44 747 b -33 746 -34 746 -34 746 b -31 745 -33 746 -32 745 b -26 743 -30 744 -28 744 b -5 727 -19 739 -12 733 b 33 667 12 710 24 690 b 59 437 56 592 39 512 b 80 382 63 418 70 399 b 39 243 53 341 39 292 b 49 86 38 190 50 138 b 39 12 49 61 46 36 b 9 -38 32 -6 23 -24 b -11 -52 3 -43 -4 -48 b -15 -54 -12 -53 -14 -53 b -20 -50 -17 -53 -18 -52 b -52 -40 -28 -44 -43 -41 b -94 -42 -66 -39 -81 -39 b -119 -56 -102 -45 -115 -48 b -114 -72 -123 -63 -120 -67 b -47 -98 -95 -87 -71 -94 b 33 -94 -21 -102 7 -100 b 125 -36 69 -86 104 -67 b 158 67 146 -6 155 31 b 151 184 160 106 154 145 b 159 318 146 229 145 274 b 189 376 167 339 176 358 b 189 388 191 380 191 384 z m -19 -55 b -18 -55 -19 -55 -19 -55 b -19 -55 -18 -55 -19 -55 z m -18 -55 l -18 -55 b -18 -55 -18 -55 -18 -55 l -18 -55 b -18 -55 -18 -55 -18 -55 z m -9 -57 b -9 -57 -9 -57 -9 -57 b -7 -58 -8 -57 -8 -57 b -9 -57 -7 -57 -8 -57 z "}," ":{"ha":260,"x_min":0,"x_max":0,"o":""},"¡":{"ha":186,"x_min":0,"x_max":0,"o":"m 147 411 b 145 522 147 448 146 485 b 129 537 145 530 135 535 b 91 544 118 542 103 544 b 52 537 78 543 64 543 b 37 522 46 535 36 530 b 40 131 39 392 41 261 b 40 20 40 94 40 57 b 55 5 39 12 50 7 b 94 -2 67 0 82 -2 b 132 5 107 -1 121 -1 b 148 20 139 8 148 12 b 147 411 150 150 149 281 z m 52 562 b 91 555 63 557 78 555 b 129 562 103 556 117 556 b 145 577 135 565 145 569 b 145 627 145 594 145 611 b 129 643 145 635 135 640 b 91 649 118 648 103 649 b 52 643 78 649 64 648 b 36 627 46 640 36 636 b 36 577 36 611 36 594 b 52 562 36 569 46 564 z "},"¢":{"ha":403,"x_min":0,"x_max":0,"o":"m 376 132 b 343 142 367 138 353 141 b 301 140 329 143 315 144 b 290 137 298 139 294 138 b 276 127 285 135 280 131 b 272 117 275 124 273 120 b 271 244 271 159 271 202 b 275 554 272 347 274 451 b 275 558 275 555 275 557 b 302 556 284 556 294 555 b 341 562 315 556 329 557 b 357 577 347 565 357 569 b 277 657 356 621 316 648 b 278 728 277 681 278 704 b 262 743 278 736 268 741 b 224 750 251 748 236 750 b 185 743 211 749 197 749 b 169 728 179 740 169 736 b 168 657 169 704 168 681 b 109 632 147 653 126 645 b 56 551 82 611 67 582 b 38 451 46 518 41 484 b 40 206 30 369 33 288 b 61 92 43 167 45 129 b 137 14 76 57 103 30 b 167 4 147 10 157 6 b 173 -62 169 -18 171 -40 b 189 -78 174 -70 182 -75 b 227 -84 200 -83 215 -84 b 266 -78 240 -84 254 -83 b 282 -62 271 -75 282 -70 b 276 7 279 -39 277 -16 b 304 20 286 11 295 15 b 371 94 334 36 355 65 b 381 115 374 101 378 108 b 376 132 385 123 382 127 z m 164 418 b 163 112 163 316 160 214 b 162 115 162 113 162 114 b 149 197 153 141 151 169 b 144 288 147 227 145 257 b 149 470 141 348 142 409 b 164 548 152 496 156 523 b 166 554 165 550 166 552 b 164 418 166 508 165 463 z "},"£":{"ha":581,"x_min":0,"x_max":0,"o":"m 495 96 b 457 102 484 100 469 102 b 418 96 444 102 430 101 b 402 80 411 92 404 89 b 402 78 402 80 402 79 b 393 64 400 73 397 68 b 386 59 391 62 388 60 b 385 59 386 59 385 59 b 374 60 381 59 378 59 b 370 60 373 60 372 60 b 358 63 366 61 362 62 b 268 75 329 69 298 74 b 267 329 267 160 267 244 b 280 328 271 328 275 328 b 322 330 294 326 308 327 b 347 343 328 331 343 336 b 309 370 356 362 320 369 b 266 373 295 371 281 372 b 266 471 266 405 266 438 b 275 576 266 506 264 542 b 284 597 277 583 280 590 b 284 594 284 596 284 595 b 300 579 285 586 294 582 b 339 573 312 574 327 572 b 377 579 352 573 366 574 b 393 594 383 582 394 586 b 360 645 392 616 379 634 b 236 655 324 667 276 668 b 182 612 214 647 194 632 b 160 547 169 593 163 570 b 157 472 156 522 157 497 b 157 392 157 445 157 419 b 157 371 157 385 157 378 b 109 367 141 370 125 369 b 77 357 99 366 85 363 b 71 340 72 353 67 347 b 96 327 77 333 88 329 b 138 325 110 324 124 323 b 158 327 145 326 151 326 b 158 235 158 297 158 266 b 159 57 158 176 159 117 b 160 52 159 55 159 54 b 149 45 156 50 153 48 b 143 28 143 41 139 35 b 168 15 148 21 161 17 b 210 13 182 12 196 11 b 243 23 221 14 234 16 b 251 28 246 25 248 27 b 257 31 253 29 255 30 b 260 32 258 31 259 31 b 261 32 260 32 261 32 b 263 32 262 32 262 32 b 261 32 262 32 262 32 b 263 32 262 32 262 32 b 264 32 263 32 264 32 b 266 32 265 32 265 32 b 269 32 267 32 268 32 b 265 32 268 32 266 32 b 267 31 266 32 267 31 b 279 30 271 31 275 30 b 285 29 281 30 283 29 b 302 25 291 28 297 26 b 389 15 331 20 360 15 b 467 30 416 15 443 18 b 498 53 479 36 489 43 b 511 80 505 60 509 70 b 495 96 513 87 499 94 z m 259 32 b 259 32 259 32 259 32 b 260 32 254 32 257 32 b 259 32 259 32 259 32 z m 260 32 b 260 32 260 32 260 32 b 260 32 260 32 260 32 b 260 32 260 32 260 32 b 260 32 260 32 260 32 b 260 32 260 32 260 32 z "},"¤":{"ha":442,"x_min":0,"x_max":0,"o":"m 367 400 b 416 464 384 420 401 442 b 410 481 420 471 415 477 b 378 491 402 487 388 490 b 336 489 364 492 349 492 b 311 476 327 486 316 484 b 289 446 304 466 297 456 b 184 451 256 458 218 458 b 145 436 170 447 157 443 b 139 452 143 441 141 447 b 136 464 138 456 137 460 b 120 480 133 473 127 476 b 81 486 108 484 93 486 b 43 480 68 486 54 485 b 27 464 38 477 25 472 b 57 393 33 439 43 415 b 82 380 62 386 74 382 b 89 379 84 380 87 379 b 70 295 76 353 70 324 b 72 289 70 293 71 291 b 73 218 66 266 66 242 b 93 175 77 203 84 188 b 86 168 90 174 87 171 b 40 92 71 142 56 117 b 45 75 36 85 40 79 b 78 65 54 69 68 66 b 120 67 92 63 106 63 b 145 80 129 69 140 72 b 171 123 154 94 163 108 b 255 119 199 115 228 114 b 281 75 265 105 273 90 b 306 62 285 68 300 63 b 348 60 319 59 335 58 b 381 70 359 61 372 63 b 386 86 386 74 390 79 b 341 157 373 111 358 135 b 332 164 339 160 335 163 b 342 180 335 169 339 174 b 367 265 357 205 364 236 b 367 314 368 281 368 298 b 363 360 366 329 365 345 b 354 391 361 370 358 381 b 367 400 358 393 363 396 z m 249 217 b 219 168 242 199 233 182 b 218 167 219 167 219 167 b 209 174 215 169 212 171 b 182 216 197 186 188 200 b 182 294 175 241 174 269 b 183 302 184 297 184 300 b 179 309 182 305 181 307 b 187 351 180 323 183 337 b 216 399 193 368 203 385 b 227 407 220 402 224 405 b 232 403 229 406 231 405 b 250 375 240 395 246 386 b 256 339 254 363 255 351 b 259 296 258 325 259 310 b 249 217 259 269 257 242 z "},"¥":{"ha":568,"x_min":0,"x_max":0,"o":"m 459 662 b 417 660 446 663 431 664 b 406 657 414 659 410 658 b 392 647 401 655 396 651 b 284 421 356 572 320 497 b 211 574 260 472 236 523 b 176 647 200 598 188 623 b 151 660 172 654 157 658 b 109 662 138 663 122 664 b 76 652 98 661 85 659 b 71 635 71 648 67 643 b 195 376 113 549 154 462 b 220 324 204 359 212 341 b 214 323 218 324 216 324 b 175 317 201 323 188 322 b 160 302 171 315 159 309 b 175 286 160 294 169 289 b 214 280 187 282 201 279 b 230 281 219 280 225 280 b 230 251 230 271 230 261 b 214 251 225 251 219 251 b 175 244 201 250 188 249 b 160 229 171 242 159 236 b 175 214 160 221 169 216 b 214 207 187 209 201 206 b 230 208 219 207 225 208 b 229 90 230 169 230 129 b 228 24 229 68 229 46 b 244 8 228 16 239 10 b 283 2 256 3 271 2 b 321 8 296 2 310 3 b 337 24 328 11 337 15 b 339 207 338 85 339 146 b 347 206 342 207 345 206 b 389 208 361 205 376 205 b 414 221 396 210 411 214 b 376 248 424 240 387 247 b 339 251 364 249 352 250 b 339 257 339 253 339 255 b 339 279 339 265 339 272 b 347 279 342 279 345 279 b 389 281 361 278 376 278 b 414 294 396 283 411 287 b 376 321 424 313 387 320 b 348 323 367 322 357 322 b 462 562 386 403 424 482 b 497 635 474 586 486 611 b 459 662 507 654 471 661 z "},"§":{"ha":447,"x_min":0,"x_max":0,"o":"m 347 245 b 358 250 351 246 355 248 b 393 370 398 275 411 328 b 335 420 382 394 358 410 b 246 439 307 432 276 436 b 225 442 239 440 232 441 b 217 443 222 442 220 442 b 207 445 214 443 211 444 b 202 446 206 445 204 446 b 193 450 199 447 196 449 b 176 463 187 454 181 458 b 147 508 163 476 153 491 b 146 581 140 532 139 557 b 175 625 152 598 162 613 b 200 643 183 632 191 638 b 210 648 203 645 206 646 b 214 649 211 648 212 649 b 220 651 216 650 218 650 b 221 651 220 651 220 651 b 224 650 222 650 223 650 b 225 650 224 650 225 650 b 229 648 226 649 228 649 b 239 644 232 647 236 645 b 267 623 249 638 259 631 b 304 567 283 607 296 588 b 306 559 305 564 305 562 b 322 544 308 551 314 547 b 360 538 333 539 348 537 b 399 544 373 538 387 539 b 415 559 404 546 417 552 b 380 627 408 584 397 607 b 313 676 362 648 339 665 b 197 693 277 692 236 696 b 103 663 164 691 131 680 b 32 542 60 638 30 592 b 100 428 34 495 60 452 b 89 422 96 426 92 425 b 54 302 49 397 36 345 b 112 252 65 278 88 262 b 201 233 140 241 171 237 b 222 231 208 233 215 232 b 230 230 225 231 227 230 b 240 228 233 229 236 229 b 244 226 241 227 243 227 b 254 223 248 225 251 224 b 271 210 260 219 266 215 b 300 164 284 197 294 181 b 301 91 307 140 308 115 b 272 47 295 75 285 60 b 247 29 264 40 256 34 b 237 25 244 28 241 26 b 233 23 236 24 234 24 b 227 22 231 23 229 22 b 226 22 227 22 227 22 b 223 23 225 22 224 22 b 222 23 223 23 222 23 b 218 24 221 23 219 24 b 208 29 215 26 211 27 b 179 49 198 34 188 41 b 143 106 163 65 151 84 b 141 113 142 108 142 111 b 125 129 139 122 133 125 b 87 135 114 133 99 135 b 48 129 74 135 60 134 b 32 113 43 126 30 121 b 67 46 39 88 50 65 b 134 -4 85 24 108 8 b 250 -21 170 -20 211 -24 b 344 9 283 -18 316 -8 b 415 131 387 34 417 80 b 347 245 413 177 387 221 z m 201 447 b 201 447 199 447 197 448 z m 246 226 b 246 226 248 225 249 225 z m 289 305 b 273 278 285 295 280 286 b 264 272 270 276 267 274 b 263 271 264 272 263 272 b 237 275 255 273 246 274 b 218 277 231 275 224 276 b 207 278 214 277 210 278 b 200 280 204 279 202 279 b 193 282 198 280 195 281 b 186 285 190 283 188 284 b 173 294 181 287 177 290 b 158 318 166 301 161 309 b 158 368 153 334 153 352 b 174 394 162 378 167 387 b 183 400 177 396 180 398 b 184 401 183 401 183 401 b 210 398 192 400 201 399 b 229 396 216 397 223 396 b 240 394 233 395 237 395 b 247 393 242 394 245 393 b 254 391 249 392 252 391 b 261 388 257 390 259 389 b 274 379 266 385 270 382 b 289 354 281 372 286 363 b 289 305 294 338 294 321 z "},"©":{"ha":672,"x_min":0,"x_max":0,"o":"m 466 186 b 434 196 458 193 444 195 b 392 194 420 198 405 198 b 381 191 388 193 384 192 b 367 181 375 189 370 186 b 331 126 358 161 347 142 b 329 124 330 125 330 125 b 325 127 328 125 326 126 b 298 171 313 140 304 155 b 289 234 292 191 291 213 b 284 307 287 258 285 282 b 288 450 282 355 283 403 b 301 512 291 471 294 492 b 326 556 306 529 314 544 b 333 562 328 558 331 560 b 342 547 337 557 340 553 b 344 536 343 543 344 540 b 360 520 344 528 354 523 b 398 514 371 516 386 514 b 437 520 411 514 425 515 b 453 536 443 523 453 528 b 381 604 452 575 415 596 b 303 606 356 609 329 610 b 237 582 280 602 256 596 b 178 437 192 550 183 488 b 179 243 172 372 174 307 b 197 150 182 211 184 180 b 261 87 210 122 233 99 b 350 75 289 75 320 72 b 416 97 373 77 397 84 b 472 170 442 114 459 142 b 466 186 475 177 473 182 z m 631 466 b 592 560 623 499 611 531 b 523 630 574 587 550 612 b 400 672 486 654 443 667 b 230 664 344 679 285 678 b 123 611 192 654 154 638 b 66 536 99 590 80 565 b 39 451 53 509 45 481 b 32 379 35 428 33 403 b 33 331 32 363 32 347 b 34 320 34 327 34 324 b 35 318 35 320 35 319 b 35 315 35 317 34 316 b 35 268 36 300 35 284 b 39 195 35 244 36 220 b 65 113 43 167 52 138 b 129 45 80 85 102 61 b 267 5 170 19 219 8 b 438 24 325 2 383 5 b 525 77 470 36 500 54 b 589 160 551 101 572 129 b 628 261 607 191 619 226 b 642 365 637 295 642 330 b 631 466 643 399 639 433 z m 268 50 b 264 50 267 50 266 50 b 268 50 266 50 267 50 b 268 50 268 50 268 50 z m 274 49 b 271 49 273 49 272 49 b 274 49 281 48 277 48 z m 354 53 b 354 53 352 52 351 52 z m 525 287 b 511 233 522 269 517 251 b 451 121 497 193 478 154 b 429 97 444 113 437 105 b 383 64 415 84 399 73 b 370 58 378 62 374 60 b 361 55 367 57 364 56 b 357 53 360 55 358 54 b 343 50 352 52 348 51 b 342 50 343 50 343 50 b 336 49 340 50 338 49 b 320 48 331 49 325 48 b 316 47 319 48 318 48 b 289 47 307 47 298 47 b 287 48 288 48 287 48 b 274 49 282 48 278 48 b 270 50 273 49 271 49 b 261 51 267 50 264 51 b 251 54 258 52 254 53 b 248 55 250 54 249 55 b 229 63 241 57 235 60 b 200 84 219 69 209 76 b 158 152 181 103 167 127 b 145 228 150 177 146 202 b 144 293 143 250 144 271 b 143 315 144 300 144 308 b 143 317 143 316 143 317 b 143 320 143 318 143 319 b 141 362 142 334 141 348 b 147 445 141 390 142 417 b 159 496 150 462 154 479 b 200 571 169 523 182 548 b 215 587 205 576 210 582 b 254 615 227 598 240 607 b 268 621 258 617 263 619 b 278 625 272 622 275 624 b 276 624 269 622 273 623 b 279 625 277 625 278 625 b 284 627 281 626 282 626 b 280 625 282 626 281 626 b 280 625 280 625 280 625 b 301 630 287 627 294 629 b 304 631 302 630 303 630 b 317 632 308 631 313 632 b 322 632 319 632 320 632 b 332 633 325 633 328 633 b 347 632 337 633 342 633 b 349 632 348 632 348 632 b 350 632 349 632 349 632 b 375 630 358 632 366 631 b 375 630 375 630 375 630 b 387 627 379 629 383 628 b 391 626 388 627 390 626 b 399 623 394 625 396 624 b 416 616 405 621 410 618 b 456 587 430 608 443 598 b 506 512 477 566 494 540 b 516 489 510 505 513 497 b 533 392 526 458 531 425 b 525 287 534 357 532 322 z m 279 625 b 279 625 279 625 279 625 b 278 625 279 625 279 625 b 280 625 279 625 279 625 b 279 625 280 625 280 625 z "},"­":{"ha":0,"x_min":0,"x_max":0,"o":""},"®":{"ha":689,"x_min":0,"x_max":0,"o":"m 648 467 b 608 561 640 500 627 532 b 535 631 589 589 564 613 b 409 673 497 655 453 668 b 235 664 351 679 291 679 b 126 611 195 654 157 637 b 67 536 101 590 81 565 b 39 451 54 509 45 480 b 32 379 35 427 33 403 b 33 331 32 363 32 347 b 34 320 34 327 34 324 b 35 319 35 320 35 319 b 35 315 35 318 34 317 b 35 269 36 300 35 284 b 39 197 34 245 35 220 b 65 114 43 168 51 140 b 130 46 80 86 103 62 b 269 5 171 20 221 9 b 446 23 329 2 389 5 b 537 76 479 35 510 53 b 604 159 563 100 586 128 b 645 260 622 190 635 225 b 659 365 654 294 659 329 b 648 467 660 399 657 433 z m 389 630 b 392 629 390 629 391 629 b 388 630 391 629 389 630 b 389 630 389 630 389 630 z m 383 631 b 386 630 384 630 385 630 b 383 631 375 632 379 631 z m 348 50 b 351 50 345 49 340 49 b 348 50 350 50 349 50 z m 355 51 b 355 51 355 51 355 51 b 358 51 356 51 357 51 b 355 51 357 51 356 51 z m 543 291 b 529 238 539 273 535 255 b 468 125 515 197 495 158 b 445 101 461 117 453 108 b 397 66 430 87 414 75 b 383 59 392 64 387 61 b 373 56 380 58 376 57 b 370 55 372 56 371 55 b 353 51 364 53 359 52 b 352 51 353 51 353 51 b 345 50 350 50 347 50 b 328 48 339 49 333 48 b 325 48 327 48 326 48 b 323 48 324 48 323 48 b 295 48 313 47 304 47 b 291 48 294 48 292 48 b 277 49 287 48 282 49 b 273 50 276 50 274 50 b 263 52 270 51 267 51 b 253 55 260 53 256 54 b 257 53 254 54 256 54 b 254 54 256 54 255 54 b 253 55 254 54 253 55 b 250 56 252 55 251 55 b 253 55 247 56 243 58 b 248 56 251 55 250 56 b 230 64 242 59 236 61 b 199 86 219 70 209 78 b 158 154 180 105 167 129 b 144 229 150 178 146 204 b 144 293 143 250 144 272 b 143 315 144 300 144 308 b 143 317 143 316 143 317 b 143 320 143 318 143 319 b 141 361 142 334 141 348 b 147 442 141 388 142 415 b 159 493 150 459 154 476 b 200 568 168 520 182 545 b 215 585 205 574 210 579 b 256 614 228 596 241 606 b 272 621 261 616 266 618 b 282 624 275 622 279 623 b 281 624 273 621 277 623 b 283 625 281 624 282 624 b 287 626 285 625 286 626 b 284 625 286 626 285 625 b 285 625 284 625 284 625 b 306 630 292 627 299 629 b 310 631 308 630 309 631 b 325 632 315 631 320 632 b 329 633 326 633 328 633 b 342 633 334 633 338 633 b 357 633 347 633 352 633 b 360 633 358 633 359 633 b 387 630 369 632 378 631 b 388 630 387 630 388 630 b 400 627 392 629 396 628 b 405 626 402 626 404 626 b 414 623 408 625 411 624 b 431 615 420 620 426 618 b 473 585 447 607 460 597 b 524 510 495 564 512 538 b 533 487 528 502 531 495 b 550 393 543 456 549 425 b 543 291 552 359 549 324 z m 374 559 b 300 557 349 560 324 560 b 247 546 282 556 264 552 b 213 540 235 546 223 545 b 197 524 206 537 197 533 b 195 225 196 425 195 325 b 194 141 194 197 194 169 b 210 125 194 133 204 127 b 248 119 221 120 236 119 b 287 125 261 119 275 120 b 303 141 293 128 303 132 b 304 331 303 204 304 267 b 320 318 310 327 315 323 b 357 261 336 302 349 282 b 361 167 366 230 367 198 b 377 151 360 159 373 153 b 416 145 389 146 404 145 b 454 151 429 145 443 146 b 470 167 462 154 469 158 b 462 273 477 202 474 238 b 402 350 450 304 429 331 b 381 363 395 355 388 359 b 480 446 425 375 466 399 b 467 515 487 469 481 495 b 374 559 445 543 409 556 z m 321 514 b 321 514 321 514 321 514 b 329 516 324 515 326 515 b 321 514 325 515 323 514 b 321 514 321 514 321 514 z m 372 447 b 352 417 367 435 360 425 b 335 405 347 412 341 408 b 324 400 332 403 328 401 b 324 400 324 400 324 400 b 317 398 322 400 320 399 b 316 398 317 398 317 398 b 313 398 315 398 314 398 b 308 397 311 398 309 397 b 307 397 308 397 307 397 b 305 397 306 397 306 397 b 305 440 305 411 305 426 b 305 507 305 462 305 485 b 311 510 308 508 310 509 b 318 513 314 511 316 512 b 320 514 319 513 320 514 b 331 515 323 514 328 515 b 332 516 331 516 332 516 b 345 516 337 516 341 516 b 347 516 346 516 346 516 b 356 510 350 514 353 512 b 372 484 363 502 368 494 b 372 447 375 472 375 459 z "},"µ":{"ha":469,"x_min":0,"x_max":0,"o":"m 400 648 b 384 663 399 656 390 661 b 345 670 372 668 357 670 b 307 663 332 669 318 669 b 291 648 301 661 290 656 b 282 531 292 609 294 568 b 251 480 275 512 265 494 b 235 468 246 475 240 471 b 231 467 234 467 232 467 b 231 467 231 467 231 467 b 228 468 230 467 229 467 b 221 471 225 469 223 470 b 197 488 212 476 205 481 b 155 556 178 507 164 531 b 148 587 152 566 150 577 b 145 632 147 602 146 617 b 146 638 145 634 145 636 b 145 642 146 639 145 640 b 144 656 144 647 144 652 b 128 672 143 664 134 669 b 89 678 116 677 101 678 b 51 672 76 678 62 677 b 35 656 45 669 34 665 b 36 632 35 648 36 640 b 39 587 36 617 37 602 b 46 409 42 528 45 468 b 50 161 49 327 50 244 b 50 21 50 115 50 68 b 66 6 50 14 60 8 b 104 0 77 1 92 -1 b 143 6 117 0 131 1 b 159 21 149 9 159 13 b 158 270 159 104 159 187 b 154 435 157 325 156 380 b 211 423 172 429 192 425 b 308 436 244 421 277 423 b 384 513 343 450 370 478 b 400 648 402 556 401 602 z m 231 466 b 229 466 230 466 230 466 b 231 466 230 466 230 466 b 231 466 231 466 231 466 z "},"¶":{"ha":508,"x_min":0,"x_max":0,"o":"m 471 270 b 464 517 470 352 468 435 b 457 656 462 564 460 610 b 441 672 456 664 447 669 b 402 678 429 677 414 678 b 370 674 392 678 381 678 b 167 647 302 672 233 668 b 36 551 116 630 64 598 b 30 413 11 509 8 457 b 196 335 60 352 135 339 b 197 335 197 335 197 335 b 199 156 198 275 199 215 b 199 21 199 111 199 66 b 215 6 199 14 209 8 b 253 0 226 1 241 -1 b 292 6 266 0 280 1 b 308 21 298 9 308 13 b 307 255 308 99 308 177 b 306 337 307 282 306 309 b 361 345 324 339 343 341 b 363 161 362 284 363 223 b 363 21 363 115 363 68 b 379 6 363 14 373 8 b 417 0 390 1 405 -1 b 456 6 430 0 444 1 b 472 21 462 9 472 13 b 471 270 472 104 472 187 z m 192 380 b 189 381 191 381 190 381 b 183 382 187 381 185 382 b 178 384 181 383 179 383 b 168 388 174 385 171 386 b 153 398 163 391 158 394 b 130 436 143 409 135 422 b 130 516 122 462 122 490 b 167 572 138 537 151 556 b 186 587 173 577 179 582 b 196 381 190 518 193 449 b 196 380 196 380 196 380 b 192 380 194 380 193 380 z m 357 396 b 351 394 355 395 353 394 b 350 393 351 394 350 393 b 326 387 342 391 334 389 b 304 382 319 385 312 384 b 301 479 303 415 302 447 b 293 613 298 524 296 568 b 284 625 293 618 289 622 b 338 630 302 627 320 628 b 343 630 340 630 341 630 b 349 630 345 630 347 630 b 359 409 354 556 357 483 b 360 397 359 405 360 401 b 357 396 359 396 358 396 z "},"¿":{"ha":481,"x_min":0,"x_max":0,"o":"m 454 228 b 429 241 450 235 435 240 b 387 243 415 244 400 245 b 354 233 376 242 363 240 b 349 217 348 229 345 224 b 352 208 350 214 351 211 b 351 137 359 185 358 160 b 320 88 344 119 334 102 b 292 68 311 81 302 74 b 277 62 287 66 282 64 b 269 59 274 61 270 60 b 266 59 268 59 267 59 b 256 57 263 58 260 57 b 256 57 256 57 256 57 b 246 55 253 56 249 56 b 243 55 245 55 244 55 b 228 55 238 55 233 55 b 225 55 227 55 226 55 b 219 56 223 56 221 56 b 219 56 219 56 219 56 b 218 56 218 56 218 56 b 211 58 216 57 214 57 b 208 59 210 58 209 58 b 192 65 202 61 197 63 b 167 83 183 70 175 76 b 138 128 154 96 144 111 b 142 222 129 159 132 192 b 198 327 155 260 178 293 b 245 444 220 364 237 402 b 249 515 249 468 250 491 b 233 530 248 523 239 527 b 194 536 221 535 206 537 b 156 530 182 536 168 535 b 140 515 150 527 139 523 b 126 408 142 478 137 442 b 45 255 107 353 69 308 b 24 169 33 228 24 199 b 47 90 23 142 31 113 b 230 11 87 31 162 13 b 331 24 263 11 299 14 b 415 67 362 33 391 46 b 445 103 427 78 437 89 b 462 145 453 116 458 131 b 454 228 469 173 466 202 z m 269 60 b 276 62 271 60 273 61 b 269 60 274 61 272 60 z m 155 577 b 194 570 167 572 182 570 b 232 577 207 571 221 572 b 248 592 239 580 248 584 b 252 639 249 608 250 624 b 236 655 253 647 241 653 b 198 661 225 659 210 661 b 159 655 185 661 171 660 b 143 639 152 652 144 648 b 139 592 141 624 140 608 b 155 577 139 585 150 579 z "},"À":{"ha":438,"x_min":0,"x_max":0,"o":"m 437 31 b 373 271 415 111 394 191 b 310 510 351 350 331 430 b 274 646 298 555 286 600 b 258 661 272 654 266 658 b 220 667 247 666 232 668 b 217 667 219 667 218 667 b 178 661 204 667 190 666 b 162 646 171 658 165 654 b 100 405 142 565 121 485 b 36 166 79 325 58 245 b 0 31 24 121 12 76 b 16 15 -2 24 12 17 b 55 9 28 10 42 9 b 93 15 67 9 81 10 b 109 31 101 19 107 22 b 173 271 131 111 152 191 b 187 321 178 288 182 304 b 205 323 193 322 199 322 b 209 323 206 323 207 323 b 220 323 212 323 216 323 b 248 324 229 324 238 324 b 250 324 248 324 249 324 b 292 166 264 271 278 218 b 328 31 304 121 316 76 b 344 15 330 22 336 18 b 382 9 355 10 370 9 b 421 15 395 9 409 10 b 437 31 426 17 439 23 z m 198 366 b 218 443 205 392 212 417 b 228 405 222 430 225 418 b 238 367 232 392 235 380 b 198 366 225 367 212 367 z m 92 778 b 287 691 152 739 218 710 b 329 689 300 688 316 688 b 361 699 338 690 353 693 b 367 716 366 703 372 709 b 342 729 361 724 350 726 b 327 733 337 730 332 732 b 320 735 325 734 322 735 b 289 747 310 739 299 743 b 233 772 270 754 251 762 b 186 800 217 780 201 790 b 153 810 176 806 164 808 b 111 807 140 811 124 811 b 86 794 103 805 90 802 b 92 778 83 788 85 782 z "},"Æ":{"ha":735,"x_min":0,"x_max":0,"o":"m 710 280 b 672 286 699 285 684 286 b 633 280 659 286 645 285 b 617 264 626 277 619 273 b 589 154 610 227 601 190 b 564 93 582 133 574 112 b 540 55 557 79 549 66 b 492 140 517 79 503 110 b 466 286 477 187 469 237 b 466 288 466 287 466 287 b 475 289 469 288 472 289 b 642 423 548 305 608 357 b 673 538 660 458 673 498 b 665 590 673 555 670 573 b 641 635 660 606 653 623 b 568 670 621 656 596 666 b 519 670 552 672 535 672 b 476 658 505 668 490 665 b 445 636 464 652 455 646 b 434 625 441 633 438 629 b 417 601 428 617 422 609 b 369 466 392 560 378 512 b 356 334 360 422 356 378 b 310 510 341 392 325 451 b 274 646 298 555 286 600 b 258 661 272 654 266 658 b 220 667 247 666 232 668 b 217 667 219 667 218 667 b 178 661 204 667 190 666 b 162 646 171 658 165 654 b 100 405 142 565 121 485 b 36 166 79 325 58 245 b 0 31 24 121 12 76 b 16 15 -2 24 12 17 b 55 9 28 10 42 9 b 93 15 67 9 81 10 b 109 31 101 19 107 22 b 173 271 131 111 152 191 b 187 321 178 288 182 304 b 205 323 193 322 199 322 b 209 323 206 323 207 323 b 220 323 212 323 216 323 b 248 324 229 324 238 324 b 250 324 248 324 249 324 b 292 166 264 271 278 218 b 328 31 304 121 316 76 b 344 15 330 22 336 18 b 382 9 355 10 370 9 b 421 15 395 9 409 10 b 437 31 426 17 439 23 b 433 45 435 35 434 40 b 435 43 433 45 434 44 b 503 2 454 23 476 9 b 616 17 540 -7 583 -3 b 657 60 633 27 647 44 b 686 118 669 79 678 98 b 722 244 701 159 713 201 b 726 264 724 251 725 258 b 710 280 728 272 715 278 z m 198 366 b 218 443 205 392 212 417 b 228 405 222 430 225 418 b 238 367 232 392 235 380 b 198 366 225 367 212 367 z m 474 446 b 493 527 479 474 485 501 b 542 616 504 559 519 591 b 556 589 548 608 553 599 b 553 472 568 551 565 510 b 486 366 539 433 516 395 b 465 349 479 359 472 354 b 474 446 466 381 469 414 z "},"Ç":{"ha":376,"x_min":0,"x_max":0,"o":"m 367 137 b 335 147 359 143 345 146 b 293 145 321 148 306 148 b 282 141 289 144 286 142 b 268 132 276 139 272 136 b 222 61 256 106 242 81 b 207 49 217 56 212 53 b 188 62 200 53 194 57 b 153 120 172 79 161 98 b 141 202 145 146 143 174 b 135 292 138 232 136 262 b 141 474 133 353 133 414 b 156 553 144 501 148 528 b 190 610 164 574 174 594 b 204 621 194 614 199 618 b 210 623 206 622 208 623 b 212 624 210 623 211 624 b 213 624 212 624 212 624 b 214 624 213 624 214 624 b 214 624 214 624 214 624 b 216 623 215 624 216 623 b 224 617 219 621 222 619 b 237 597 230 611 234 605 b 239 582 239 592 239 587 b 255 567 240 574 250 569 b 294 560 267 562 282 560 b 332 567 307 560 321 561 b 348 582 339 569 348 574 b 265 663 348 627 305 655 b 164 663 231 669 198 669 b 101 637 142 659 119 651 b 48 555 74 616 59 587 b 30 455 37 523 33 489 b 31 211 22 374 25 292 b 53 97 34 172 37 133 b 129 19 68 62 94 35 b 162 8 139 14 151 10 b 161 -16 159 0 158 -8 b 184 -32 164 -26 175 -28 b 191 -35 186 -33 189 -34 b 201 -42 194 -37 198 -39 b 209 -54 204 -46 207 -50 b 209 -65 209 -58 210 -62 b 198 -65 205 -65 202 -65 b 160 -71 186 -65 171 -66 b 144 -87 154 -74 143 -79 b 160 -102 145 -95 153 -99 b 265 -111 192 -117 231 -119 b 316 -74 285 -106 309 -95 b 305 -29 321 -58 316 -41 b 268 -5 294 -18 282 -11 b 269 0 268 -3 269 -1 b 270 3 269 1 270 2 b 271 13 273 7 273 10 b 296 24 280 16 288 20 b 362 99 325 41 347 70 b 373 120 366 106 370 113 b 367 137 376 127 374 132 z m 200 46 b 200 46 200 46 200 46 b 197 45 199 46 198 45 b 200 46 198 45 199 46 b 200 46 200 46 200 46 z m 242 -73 b 242 -73 242 -73 242 -73 b 242 -74 242 -73 242 -74 b 242 -73 242 -74 242 -73 z "},"È":{"ha":397,"x_min":0,"x_max":0,"o":"m 374 280 b 335 286 362 285 348 286 b 297 280 323 286 309 285 b 281 264 290 277 283 273 b 253 154 274 227 265 190 b 227 93 246 133 237 112 b 203 55 221 79 213 66 b 156 140 181 79 166 110 b 130 286 140 187 133 237 b 130 288 130 287 130 287 b 138 289 132 288 135 289 b 306 423 212 305 271 357 b 336 538 324 458 336 498 b 328 590 336 555 334 573 b 304 635 323 606 316 623 b 231 670 285 656 259 666 b 183 670 216 672 198 672 b 140 658 168 668 153 665 b 109 636 128 652 118 646 b 98 625 105 633 101 629 b 81 601 91 617 86 609 b 32 466 56 560 41 512 b 20 308 22 414 18 361 b 42 157 21 257 28 206 b 98 43 53 116 69 74 b 166 2 117 23 139 9 b 280 17 204 -7 247 -3 b 321 60 296 27 310 44 b 349 118 332 79 341 98 b 386 244 365 159 377 201 b 390 264 387 251 389 258 b 374 280 391 272 378 278 z m 137 446 b 157 527 142 474 148 501 b 205 616 168 559 183 591 b 220 589 212 608 216 599 b 217 472 232 551 229 510 b 150 366 203 433 180 395 b 129 349 143 359 136 354 b 137 446 129 381 132 414 z m 51 778 b 247 691 112 739 177 710 b 288 689 259 688 275 688 b 321 699 298 690 313 693 b 327 716 326 703 331 709 b 302 729 321 724 310 726 b 287 733 297 730 292 732 b 280 735 284 734 282 735 b 249 747 269 739 259 743 b 193 772 230 754 211 762 b 145 800 177 780 161 790 b 113 810 136 806 124 808 b 71 807 100 811 84 811 b 46 794 63 805 50 802 b 51 778 42 788 45 782 z "},"Ì":{"ha":183,"x_min":0,"x_max":0,"o":"m 144 643 b 128 659 144 651 134 656 b 89 665 116 663 102 665 b 51 659 77 665 63 664 b 35 643 45 656 35 651 b 38 403 36 563 37 483 b 38 164 38 324 39 244 b 37 29 38 119 37 74 b 53 13 37 21 47 16 b 91 7 64 9 79 7 b 130 13 104 7 118 8 b 146 29 136 16 145 20 b 147 269 147 109 147 189 b 146 507 147 348 147 428 b 144 643 145 553 145 598 z m 206 716 b 181 729 200 724 189 726 b 166 733 176 730 171 732 b 159 735 164 734 161 735 b 128 747 149 739 138 743 b 72 772 109 754 90 762 b 25 800 56 780 40 790 b -8 810 15 806 3 808 b -50 807 -21 811 -37 811 b -75 794 -58 805 -71 802 b -69 778 -78 788 -76 782 b 126 691 -9 739 57 710 b 168 689 139 688 155 688 b 200 699 177 690 192 693 b 206 716 205 703 211 709 z "},"Ñ":{"ha":464,"x_min":0,"x_max":0,"o":"m 428 643 b 412 659 428 651 418 656 b 374 665 401 663 386 665 b 335 659 361 665 347 664 b 319 643 329 656 319 652 b 317 403 318 563 317 483 b 317 257 317 355 317 306 b 310 272 315 262 312 267 b 207 507 276 350 241 429 b 145 647 186 554 166 600 b 134 656 143 651 139 654 b 128 659 131 657 129 658 b 89 665 116 663 101 665 b 51 659 76 665 62 664 b 35 643 44 656 35 651 b 37 403 36 563 37 483 b 37 164 37 324 37 244 b 36 29 37 119 36 74 b 52 13 36 21 46 16 b 90 7 63 9 78 7 b 129 13 103 7 117 8 b 145 29 135 16 145 20 b 146 269 146 109 146 189 b 146 395 146 311 146 353 b 148 391 146 394 147 392 b 251 159 182 313 216 236 b 311 26 271 114 291 70 b 334 13 314 19 327 15 b 372 7 346 9 360 7 b 411 13 385 7 399 8 b 427 29 417 16 427 20 b 426 269 426 109 426 189 b 427 507 426 348 426 428 b 428 643 427 553 428 598 z m 418 785 b 379 791 406 789 392 791 b 341 785 367 791 353 790 b 325 769 333 781 327 778 b 325 768 325 769 325 768 b 315 753 322 762 319 757 b 306 746 312 750 309 748 b 304 746 305 746 305 746 b 299 747 302 746 301 746 b 271 755 290 749 280 752 b 125 764 224 768 173 776 b 63 726 101 757 78 747 b 68 710 58 720 63 713 b 101 700 77 703 91 700 b 143 702 115 698 129 698 b 168 715 152 704 162 707 b 172 720 169 717 171 718 b 179 725 174 722 176 723 b 182 726 180 725 181 726 b 193 723 185 725 189 724 b 224 714 204 721 214 717 b 396 722 280 698 343 694 b 420 742 405 727 413 734 b 434 769 427 750 431 759 b 418 785 436 776 422 783 z "},"Ò":{"ha":421,"x_min":0,"x_max":0,"o":"m 399 364 b 372 541 398 424 391 484 b 339 610 364 565 354 589 b 283 657 325 631 306 647 b 227 670 266 664 246 668 b 151 665 202 672 176 672 b 75 615 120 657 94 641 b 43 540 59 593 50 566 b 28 459 35 514 31 486 b 27 330 24 416 24 373 b 27 319 27 326 27 323 b 28 317 27 318 27 318 b 27 314 27 316 27 315 b 28 261 29 297 28 279 b 33 179 29 233 30 206 b 55 91 37 149 43 119 b 104 25 65 65 81 41 b 155 4 119 15 137 8 b 238 2 183 -1 211 -3 b 293 20 258 5 276 10 b 319 41 303 25 311 33 b 354 95 334 57 345 76 b 381 177 366 122 374 149 b 399 364 395 238 400 302 z m 208 628 b 211 628 209 628 210 628 b 208 628 210 628 209 628 b 208 628 208 628 208 628 z m 200 627 b 201 627 201 627 201 627 b 202 627 201 627 202 627 b 200 627 191 627 196 627 z m 280 217 b 260 136 275 190 269 162 b 224 64 251 111 240 86 b 213 52 221 60 217 56 b 203 44 210 49 207 46 b 203 44 203 44 203 44 b 189 54 198 47 193 50 b 157 110 174 70 164 90 b 137 286 139 166 137 227 b 136 314 137 295 137 305 b 136 316 136 315 136 316 b 136 319 136 317 136 318 b 134 379 135 339 134 359 b 141 492 134 417 136 455 b 156 555 145 513 149 534 b 192 617 164 577 175 599 b 205 626 196 620 200 623 b 206 626 205 626 206 626 b 220 615 211 623 216 619 b 264 538 241 594 255 566 b 290 385 280 489 287 437 b 280 217 292 329 289 272 z m 77 778 b 273 691 138 739 203 710 b 314 689 285 688 301 688 b 347 699 324 690 339 693 b 353 716 352 703 357 709 b 327 729 347 724 336 726 b 313 733 323 730 318 732 b 306 735 310 734 308 735 b 275 747 295 739 285 743 b 219 772 256 754 237 762 b 171 800 203 780 187 790 b 139 810 162 806 150 808 b 97 807 126 811 110 811 b 72 794 89 805 76 802 b 77 778 68 788 71 782 z "},"Ø":{"ha":421,"x_min":0,"x_max":0,"o":"m 399 364 b 372 541 398 424 391 484 b 346 600 366 561 358 582 b 369 708 354 636 361 672 b 353 723 370 715 357 721 b 314 730 342 728 327 730 b 276 723 302 729 288 728 b 260 708 269 720 262 716 b 251 666 257 694 254 680 b 227 670 243 668 235 669 b 151 665 202 672 176 672 b 75 615 120 657 94 641 b 43 540 59 593 50 566 b 28 459 35 514 31 486 b 27 330 24 416 24 373 b 27 319 27 326 27 323 b 28 317 27 318 27 318 b 27 314 27 316 27 315 b 28 261 29 297 28 279 b 33 179 29 233 30 206 b 55 91 37 149 43 119 b 100 28 64 66 79 44 b 72 -78 91 -8 81 -43 b 88 -94 70 -85 84 -92 b 126 -100 99 -98 114 -100 b 165 -94 139 -100 153 -99 b 181 -78 172 -90 178 -87 b 201 -1 188 -52 195 -27 b 238 2 214 -1 226 0 b 293 20 258 5 276 10 b 319 41 303 25 311 33 b 354 95 334 57 345 76 b 381 177 366 122 374 149 b 399 364 395 238 400 302 z m 208 628 b 211 628 209 628 210 628 b 208 628 210 628 209 628 b 208 628 208 628 208 628 z m 200 627 b 201 627 201 627 201 627 b 202 627 201 627 202 627 b 200 627 191 627 196 627 z m 193 400 b 141 187 176 329 159 258 b 137 286 138 220 137 253 b 136 314 137 295 137 305 b 136 316 136 315 136 316 b 136 319 136 317 136 318 b 134 379 135 339 134 359 b 141 492 134 417 136 455 b 156 555 145 513 149 534 b 192 617 164 577 175 599 b 205 626 196 620 200 623 b 206 626 205 626 206 626 b 220 615 211 623 216 619 b 236 596 226 609 232 603 b 193 400 222 530 208 465 z m 280 217 b 260 136 275 190 269 162 b 224 64 251 111 240 86 b 216 55 222 61 219 58 b 260 227 231 112 246 169 b 290 353 270 269 280 311 b 280 217 291 307 287 262 z "},"Ù":{"ha":414,"x_min":0,"x_max":0,"o":"m 383 603 b 383 640 383 616 383 628 b 367 656 383 648 373 653 b 328 662 356 660 341 662 b 290 656 316 662 302 661 b 274 640 284 653 274 649 b 273 430 274 570 274 500 b 273 325 273 395 273 360 b 272 223 273 291 273 257 b 257 119 271 188 268 153 b 223 61 249 98 239 77 b 206 49 218 56 212 52 b 198 45 204 48 201 46 b 198 45 198 45 198 45 b 196 45 197 45 197 45 b 194 44 195 45 195 45 b 190 46 193 45 191 46 b 178 55 186 49 182 51 b 157 90 169 65 162 77 b 144 189 147 122 146 156 b 143 299 143 226 143 263 b 142 522 142 373 142 447 b 143 647 142 563 143 605 b 127 663 143 655 133 660 b 89 669 116 667 101 669 b 50 663 76 669 62 668 b 34 647 44 660 34 656 b 34 354 33 550 33 452 b 35 208 34 306 34 256 b 55 71 36 162 37 114 b 171 2 74 26 124 5 b 331 53 228 -2 291 8 b 360 103 344 67 353 85 b 377 169 368 124 374 146 b 382 310 383 216 382 263 b 383 603 382 408 382 506 z m 53 778 b 248 691 113 739 179 710 b 290 689 261 688 277 688 b 322 699 299 690 314 693 b 328 716 327 703 333 709 b 303 729 322 724 311 727 b 288 733 298 730 293 732 b 281 735 286 734 283 735 b 250 747 271 739 260 743 b 194 772 231 754 212 762 b 147 800 178 780 162 790 b 114 810 137 806 125 808 b 72 807 101 811 85 811 b 47 794 64 805 51 802 b 53 778 44 788 46 782 z "},"ß":{"ha":407,"x_min":0,"x_max":0,"o":"m 388 197 b 324 292 382 237 356 269 b 241 333 299 310 271 323 b 263 342 248 336 256 339 b 359 417 300 358 336 383 b 381 509 377 443 388 477 b 314 602 374 549 347 580 b 126 666 259 639 191 656 b 99 669 117 667 108 668 b 57 667 86 671 71 670 b 32 654 51 665 36 661 b 31 646 31 651 30 648 b 31 643 31 645 31 644 b 39 402 34 563 37 483 b 45 162 41 322 43 242 b 46 26 45 117 46 71 b 47 24 46 25 47 25 b 85 -2 39 6 74 -2 b 263 26 146 -5 208 1 b 362 103 302 43 338 68 b 388 197 381 130 393 164 z m 149 361 b 145 508 148 410 146 459 b 141 614 143 543 142 579 b 147 612 143 614 145 613 b 154 610 150 612 152 611 b 156 610 155 610 155 610 b 173 604 162 608 167 606 b 200 592 182 600 191 596 b 241 564 214 584 228 575 b 270 519 253 551 264 536 b 269 458 276 499 276 478 b 235 405 262 438 250 420 b 195 377 223 394 209 385 b 177 369 189 374 183 371 b 165 365 173 367 169 366 b 162 364 164 364 163 364 b 150 361 158 363 154 362 b 149 361 150 361 149 361 z m 275 148 b 238 91 267 126 254 107 b 194 60 224 79 210 68 b 177 52 188 57 183 55 b 165 48 173 51 169 49 b 164 48 164 48 164 48 b 162 47 164 47 163 47 b 155 45 160 46 158 46 b 152 267 154 119 153 193 b 151 306 151 280 151 293 b 155 305 152 306 154 305 b 162 303 158 304 160 303 b 163 302 163 303 163 302 b 180 296 169 301 174 299 b 206 285 189 293 198 289 b 246 257 221 277 234 268 b 276 212 259 244 269 229 b 275 148 282 191 282 169 z "},"à":{"ha":439,"x_min":0,"x_max":0,"o":"m 437 31 b 373 271 415 111 394 191 b 310 510 351 350 331 430 b 274 646 298 555 286 600 b 258 661 272 654 266 658 b 220 667 247 666 232 668 b 217 667 219 667 218 667 b 178 661 204 667 190 666 b 162 646 171 658 165 654 b 100 405 142 565 121 485 b 36 166 79 325 58 245 b 0 31 24 121 12 76 b 16 15 -2 24 12 17 b 55 9 28 10 42 9 b 93 15 67 9 81 10 b 109 31 101 19 107 22 b 173 271 131 111 152 191 b 187 321 178 288 182 304 b 205 323 193 322 199 322 b 209 323 206 323 207 323 b 220 323 212 323 216 323 b 248 324 229 324 238 324 b 250 324 248 324 249 324 b 292 166 264 271 278 218 b 328 31 304 121 316 76 b 344 15 330 22 336 18 b 382 9 355 10 370 9 b 421 15 395 9 409 10 b 437 31 426 17 439 23 z m 198 366 b 218 443 205 392 212 417 b 228 405 222 430 225 418 b 238 367 232 392 235 380 b 198 366 225 367 212 367 z m 92 778 b 287 691 152 739 218 710 b 329 689 300 688 316 688 b 361 699 338 690 353 693 b 367 716 366 703 372 709 b 342 729 361 724 350 726 b 327 733 337 730 332 732 b 320 735 325 734 322 735 b 289 747 310 739 299 743 b 233 772 270 754 251 762 b 186 800 217 780 201 790 b 153 810 176 806 164 808 b 111 807 140 811 124 811 b 86 794 103 805 90 802 b 92 778 83 788 85 782 z "},"æ":{"ha":736,"x_min":0,"x_max":0,"o":"m 710 280 b 672 286 699 285 684 286 b 633 280 659 286 645 285 b 617 264 626 277 619 273 b 589 154 610 227 601 190 b 564 93 582 133 574 112 b 540 55 557 79 549 66 b 492 140 517 79 503 110 b 466 286 477 187 469 237 b 466 288 466 287 466 287 b 475 289 469 288 472 289 b 642 423 548 305 608 357 b 673 538 660 458 673 498 b 665 590 673 555 670 573 b 641 635 660 606 653 623 b 568 670 621 656 596 666 b 519 670 552 672 535 672 b 476 658 505 668 490 665 b 445 636 464 652 455 646 b 434 625 441 633 438 629 b 417 601 428 617 422 609 b 369 466 392 560 378 512 b 356 334 360 422 356 378 b 310 510 341 392 325 451 b 274 646 298 555 286 600 b 258 661 272 654 266 658 b 220 667 247 666 232 668 b 217 667 219 667 218 667 b 178 661 204 667 190 666 b 162 646 171 658 165 654 b 100 405 142 565 121 485 b 36 166 79 325 58 245 b 0 31 24 121 12 76 b 16 15 -2 24 12 17 b 55 9 28 10 42 9 b 93 15 67 9 81 10 b 109 31 101 19 107 22 b 173 271 131 111 152 191 b 187 321 178 288 182 304 b 205 323 193 322 199 322 b 209 323 206 323 207 323 b 220 323 212 323 216 323 b 248 324 229 324 238 324 b 250 324 248 324 249 324 b 292 166 264 271 278 218 b 328 31 304 121 316 76 b 344 15 330 22 336 18 b 382 9 355 10 370 9 b 421 15 395 9 409 10 b 437 31 426 17 439 23 b 433 45 435 35 434 40 b 435 43 433 45 434 44 b 503 2 454 23 476 9 b 616 17 540 -7 583 -3 b 657 60 633 27 647 44 b 686 118 669 79 678 98 b 722 244 701 159 713 201 b 726 264 724 251 725 258 b 710 280 728 272 715 278 z m 198 366 b 218 443 205 392 212 417 b 228 405 222 430 225 418 b 238 367 232 392 235 380 b 198 366 225 367 212 367 z m 474 446 b 493 527 479 474 485 501 b 542 616 504 559 519 591 b 556 589 548 608 553 599 b 553 472 568 551 565 510 b 486 366 539 433 516 395 b 465 349 479 359 472 354 b 474 446 466 381 469 414 z "},"ç":{"ha":376,"x_min":0,"x_max":0,"o":"m 367 137 b 335 147 359 143 345 146 b 293 145 321 148 306 148 b 282 141 289 144 286 142 b 268 132 276 139 272 136 b 222 61 256 106 242 81 b 207 49 217 56 212 53 b 188 62 200 53 194 57 b 153 120 172 79 161 98 b 141 202 145 146 143 174 b 135 292 138 232 136 262 b 141 474 133 353 133 414 b 156 553 144 501 148 528 b 190 610 164 574 174 594 b 204 621 194 614 199 618 b 210 623 206 622 208 623 b 212 624 210 623 211 624 b 213 624 212 624 212 624 b 214 624 213 624 214 624 b 214 624 214 624 214 624 b 216 623 215 624 216 623 b 224 617 219 621 222 619 b 237 597 230 611 234 605 b 239 582 239 592 239 587 b 255 567 240 574 250 569 b 294 560 267 562 282 560 b 332 567 307 560 321 561 b 348 582 339 569 348 574 b 265 663 348 627 305 655 b 164 663 231 669 198 669 b 101 637 142 659 119 651 b 48 555 74 616 59 587 b 30 455 37 523 33 489 b 31 211 22 374 25 292 b 53 97 34 172 37 133 b 129 19 68 62 94 35 b 162 8 139 14 151 10 b 161 -16 159 0 158 -8 b 184 -32 164 -26 175 -28 b 191 -35 186 -33 189 -34 b 201 -42 194 -37 198 -39 b 209 -54 204 -46 207 -50 b 209 -65 209 -58 210 -62 b 198 -65 205 -65 202 -65 b 160 -71 186 -65 171 -66 b 144 -87 154 -74 143 -79 b 160 -102 145 -95 153 -99 b 265 -111 192 -117 231 -119 b 316 -74 285 -106 309 -95 b 305 -29 321 -58 316 -41 b 268 -5 294 -18 282 -11 b 269 0 268 -3 269 -1 b 270 3 269 1 270 2 b 271 13 273 7 273 10 b 296 24 280 16 288 20 b 362 99 325 41 347 70 b 373 120 366 106 370 113 b 367 137 376 127 374 132 z m 200 46 b 200 46 200 46 200 46 b 197 45 199 46 198 45 b 200 46 198 45 199 46 b 200 46 200 46 200 46 z m 242 -73 b 242 -73 242 -73 242 -73 b 242 -74 242 -73 242 -74 b 242 -73 242 -74 242 -73 z "},"è":{"ha":400,"x_min":0,"x_max":0,"o":"m 375 280 b 337 286 364 285 349 286 b 298 280 324 286 310 285 b 282 264 291 277 284 273 b 254 154 275 227 266 190 b 229 93 247 133 239 112 b 205 55 222 79 214 66 b 157 140 182 79 168 110 b 131 286 142 187 134 237 b 131 288 131 287 131 287 b 140 289 134 288 137 289 b 307 423 213 305 273 357 b 338 538 325 458 338 498 b 330 590 338 555 335 573 b 306 635 325 606 318 623 b 233 670 286 656 261 666 b 184 670 217 672 200 672 b 141 658 170 668 155 665 b 110 636 129 652 120 646 b 99 625 106 633 103 629 b 82 601 93 617 87 609 b 33 466 57 560 43 512 b 21 308 23 414 20 361 b 43 157 23 257 29 206 b 100 43 55 116 70 74 b 168 2 118 23 141 9 b 281 17 205 -7 248 -3 b 322 60 298 27 311 44 b 350 118 334 79 343 98 b 387 244 366 159 378 201 b 391 264 389 251 390 258 b 375 280 393 272 379 278 z m 139 446 b 158 527 143 474 150 501 b 207 616 169 559 184 591 b 221 589 213 608 218 599 b 218 472 233 551 230 510 b 151 366 204 433 181 395 b 130 349 144 359 137 354 b 139 446 131 381 134 414 z m 53 778 b 248 691 113 739 179 710 b 290 689 261 688 277 688 b 322 699 299 690 314 693 b 328 716 328 703 333 709 b 303 729 322 724 312 726 b 288 733 298 730 293 732 b 281 735 286 734 284 735 b 250 747 271 739 260 743 b 194 772 231 754 213 762 b 147 800 178 780 162 790 b 114 810 137 806 125 808 b 72 807 101 811 85 811 b 47 794 64 805 51 802 b 53 778 44 788 46 782 z "},"ì":{"ha":185,"x_min":0,"x_max":0,"o":"m 144 643 b 128 659 144 651 134 656 b 89 665 116 663 102 665 b 51 659 77 665 63 664 b 35 643 45 656 35 651 b 38 403 36 563 37 483 b 38 164 38 324 39 244 b 37 29 38 119 37 74 b 53 13 37 21 47 16 b 91 7 64 9 79 7 b 130 13 104 7 118 8 b 146 29 136 16 145 20 b 147 269 147 109 147 189 b 146 507 147 348 147 428 b 144 643 145 553 145 598 z m 206 716 b 181 729 200 724 189 726 b 166 733 176 730 171 732 b 159 735 164 734 161 735 b 128 747 149 739 138 743 b 72 772 109 754 90 762 b 25 800 56 780 40 790 b -8 810 15 806 3 808 b -50 807 -21 811 -37 811 b -75 794 -58 805 -71 802 b -69 778 -78 788 -76 782 b 126 691 -9 739 57 710 b 168 689 139 688 155 688 b 200 699 177 690 192 693 b 206 716 205 703 211 709 z "},"ñ":{"ha":467,"x_min":0,"x_max":0,"o":"m 430 643 b 414 659 430 651 419 656 b 375 665 402 663 387 665 b 337 659 362 665 348 664 b 321 643 330 656 321 652 b 318 403 320 563 319 483 b 318 257 318 355 318 306 b 312 272 316 262 314 267 b 208 507 277 350 242 429 b 146 647 187 554 167 600 b 135 656 145 651 140 654 b 129 659 133 657 131 658 b 91 665 118 663 103 665 b 52 659 78 665 64 664 b 36 643 46 656 36 651 b 38 403 37 563 38 483 b 38 164 39 324 39 244 b 37 29 38 119 38 74 b 53 13 37 21 48 16 b 92 7 65 9 80 7 b 130 13 105 7 119 8 b 146 29 137 16 146 20 b 147 269 147 109 147 189 b 147 395 147 311 147 353 b 149 391 148 394 148 392 b 252 159 183 313 217 236 b 312 26 272 114 292 70 b 336 13 315 19 329 15 b 374 7 347 9 362 7 b 412 13 387 7 401 8 b 428 29 419 16 428 20 b 427 269 428 109 427 189 b 428 507 427 348 427 428 b 430 643 428 553 429 598 z m 419 785 b 381 791 408 789 393 791 b 342 785 368 791 354 790 b 326 769 335 781 328 778 b 326 768 326 769 326 768 b 316 753 324 762 320 757 b 307 746 313 750 310 748 b 305 746 307 746 306 746 b 301 747 304 746 302 746 b 272 755 291 749 282 752 b 126 764 225 768 175 776 b 64 726 102 757 79 747 b 70 710 59 720 64 713 b 102 700 78 703 92 700 b 144 702 116 698 131 698 b 169 715 153 704 163 707 b 174 720 170 717 172 718 b 180 725 176 722 178 723 b 183 726 181 725 182 726 b 194 723 187 725 191 724 b 226 714 205 721 215 717 b 397 722 282 698 345 694 b 422 742 407 727 415 734 b 435 769 429 750 433 759 b 419 785 437 776 423 783 z "},"ò":{"ha":424,"x_min":0,"x_max":0,"o":"m 400 364 b 374 541 399 424 393 484 b 341 610 366 565 356 589 b 284 657 326 631 307 647 b 228 670 267 664 247 668 b 152 665 203 672 177 672 b 77 615 122 657 95 641 b 44 540 61 593 51 566 b 30 459 37 514 32 486 b 28 330 26 416 25 373 b 29 319 28 326 28 323 b 29 317 29 318 29 318 b 29 314 29 316 29 315 b 30 261 30 297 29 279 b 35 179 30 233 31 206 b 56 91 38 149 45 119 b 105 25 66 65 82 41 b 157 4 120 15 139 8 b 239 2 184 -1 212 -3 b 294 20 259 5 277 10 b 321 41 304 25 313 33 b 355 95 336 57 346 76 b 382 177 367 122 375 149 b 400 364 396 238 402 302 z m 210 628 b 213 628 211 628 212 628 b 210 628 212 628 211 628 b 210 628 210 628 210 628 z m 202 627 b 203 627 202 627 202 627 b 203 627 203 627 203 627 b 202 627 193 627 198 627 z m 281 217 b 262 136 276 190 270 162 b 225 64 253 111 242 86 b 215 52 222 60 219 56 b 204 44 211 49 208 46 b 204 44 204 44 204 44 b 191 54 199 47 195 50 b 158 110 175 70 165 90 b 138 286 140 166 139 227 b 138 314 138 295 138 305 b 137 316 138 315 138 316 b 138 319 138 317 138 318 b 135 379 136 339 135 359 b 143 492 135 417 137 455 b 157 555 146 513 151 534 b 193 617 165 577 176 599 b 206 626 197 620 201 623 b 207 626 207 626 207 626 b 222 615 212 623 217 619 b 266 538 243 594 256 566 b 291 385 282 489 289 437 b 281 217 293 329 290 272 z m 79 778 b 274 691 139 739 205 710 b 316 689 287 688 303 688 b 348 699 325 690 340 693 b 354 716 353 703 359 709 b 329 729 348 724 337 726 b 314 733 324 730 319 732 b 307 735 312 734 310 735 b 276 747 297 739 286 743 b 220 772 257 754 239 762 b 173 800 204 780 188 790 b 140 810 163 806 151 808 b 98 807 127 811 111 811 b 73 794 90 805 77 802 b 79 778 70 788 72 782 z "},"÷":{"ha":390,"x_min":0,"x_max":0,"o":"m 365 329 b 349 345 364 337 356 342 b 311 351 337 349 324 351 b 80 344 234 349 157 346 b 41 338 67 343 53 343 b 25 322 36 335 24 330 b 41 307 26 314 34 309 b 80 300 53 302 67 300 b 311 307 157 303 234 305 b 349 314 324 308 337 309 b 365 329 354 316 366 322 z m 262 370 b 300 363 273 365 288 363 b 339 370 313 364 327 364 b 355 385 345 373 355 377 b 358 410 355 394 356 402 b 361 417 359 413 360 415 b 323 444 370 436 335 443 b 281 442 309 445 295 445 b 270 438 278 441 274 440 b 256 429 265 437 260 433 b 246 385 250 415 246 400 b 262 370 246 377 256 372 z m 126 284 b 87 290 114 289 100 290 b 49 284 75 290 61 289 b 33 268 42 281 34 277 b 27 227 31 255 29 241 b 43 212 26 220 38 214 b 81 205 54 207 69 205 b 120 212 94 206 108 206 b 136 227 127 215 134 219 b 142 268 138 241 140 255 b 126 284 143 276 130 282 z "},"ø":{"ha":424,"x_min":0,"x_max":0,"o":"m 400 364 b 374 541 399 424 393 484 b 348 600 367 561 359 582 b 370 708 355 636 363 672 b 354 723 372 715 358 721 b 316 730 343 728 328 730 b 277 723 303 729 289 728 b 261 708 270 720 263 716 b 253 666 259 694 256 680 b 228 670 245 668 236 669 b 152 665 203 672 177 672 b 77 615 122 657 95 641 b 44 540 61 593 51 566 b 30 459 37 514 32 486 b 28 330 26 416 25 373 b 29 319 28 326 28 323 b 29 317 29 318 29 318 b 29 314 29 316 29 315 b 30 261 30 297 29 279 b 35 179 30 233 31 206 b 56 91 38 149 45 119 b 102 28 66 66 80 44 b 73 -78 92 -8 83 -43 b 89 -94 71 -85 85 -92 b 127 -100 100 -98 115 -100 b 166 -94 140 -100 154 -99 b 182 -78 174 -90 180 -87 b 203 -1 189 -52 196 -27 b 239 2 215 -1 227 0 b 294 20 259 5 277 10 b 321 41 304 25 313 33 b 355 95 336 57 346 76 b 382 177 367 122 375 149 b 400 364 396 238 402 302 z m 210 628 b 213 628 211 628 212 628 b 210 628 212 628 211 628 b 210 628 210 628 210 628 z m 202 627 b 203 627 202 627 202 627 b 203 627 203 627 203 627 b 202 627 193 627 198 627 z m 194 400 b 143 187 177 329 160 258 b 138 286 139 220 139 253 b 138 314 138 295 138 305 b 137 316 138 315 138 316 b 138 319 138 317 138 318 b 135 379 136 339 135 359 b 143 492 135 417 137 455 b 157 555 146 513 151 534 b 193 617 165 577 176 599 b 206 626 197 620 201 623 b 207 626 207 626 207 626 b 222 615 212 623 217 619 b 238 596 228 609 233 603 b 194 400 224 530 209 465 z m 281 217 b 262 136 276 190 270 162 b 225 64 253 111 242 86 b 218 55 223 61 220 58 b 261 227 233 112 247 169 b 292 353 272 269 282 311 b 281 217 292 307 289 262 z "},"ù":{"ha":417,"x_min":0,"x_max":0,"o":"m 384 603 b 384 640 384 616 384 628 b 368 656 384 648 374 653 b 330 662 357 660 342 662 b 291 656 317 662 303 661 b 275 640 285 653 275 649 b 275 430 275 570 275 500 b 274 325 275 395 275 360 b 274 223 274 291 275 257 b 258 119 273 188 269 153 b 224 61 251 98 240 77 b 208 49 219 56 214 52 b 200 45 205 48 202 46 b 199 45 200 45 200 45 b 197 45 199 45 198 45 b 195 44 197 45 196 45 b 191 46 194 45 193 46 b 180 55 187 49 183 51 b 159 90 170 65 163 77 b 146 189 149 122 147 156 b 144 299 145 226 145 263 b 144 522 144 373 144 447 b 144 647 144 563 144 605 b 128 663 144 655 134 660 b 90 669 117 667 102 669 b 51 663 77 669 63 668 b 35 647 45 660 36 656 b 35 354 35 550 34 452 b 36 208 35 306 36 256 b 56 71 37 162 38 114 b 173 2 76 26 125 5 b 333 53 229 -2 293 8 b 362 103 346 67 355 85 b 378 169 370 124 375 146 b 383 310 385 216 383 263 b 384 603 384 408 384 506 z m 54 778 b 249 691 114 739 180 710 b 291 689 262 688 278 688 b 324 699 301 690 316 693 b 329 716 329 703 334 709 b 304 729 323 724 313 727 b 289 733 299 730 294 732 b 282 735 287 734 285 735 b 251 747 272 739 262 743 b 196 772 232 754 214 762 b 148 800 179 780 163 790 b 115 810 138 806 126 808 b 73 807 102 811 86 811 b 48 794 66 805 52 802 b 54 778 45 788 47 782 z "},"Œ":{"ha":707,"x_min":0,"x_max":0,"o":"m 683 280 b 645 286 672 285 657 286 b 606 280 632 286 618 285 b 590 264 599 277 592 273 b 562 154 583 227 574 190 b 537 93 555 133 547 112 b 513 55 530 79 522 66 b 465 140 490 79 476 110 b 439 286 450 187 442 237 b 439 288 439 287 439 287 b 448 289 442 288 445 289 b 615 423 521 305 581 357 b 646 538 633 458 646 498 b 638 590 646 555 643 573 b 614 635 633 606 626 623 b 541 670 594 656 569 666 b 492 670 525 672 508 672 b 449 658 478 668 463 665 b 418 636 437 652 428 646 b 407 625 414 633 411 629 b 390 601 401 617 395 609 b 367 555 381 586 374 571 b 339 610 360 575 351 594 b 283 657 325 631 306 647 b 227 670 266 664 246 668 b 151 665 202 672 176 672 b 75 615 120 657 94 641 b 43 540 59 593 50 566 b 28 459 35 514 31 486 b 27 330 24 416 24 373 b 27 319 27 326 27 323 b 28 317 27 318 27 318 b 27 314 27 316 27 315 b 28 261 29 297 28 279 b 33 179 29 233 30 206 b 55 91 37 149 43 119 b 104 25 65 65 81 41 b 155 4 119 15 137 8 b 238 2 183 -1 211 -3 b 293 20 258 5 276 10 b 319 41 303 25 311 33 b 354 95 334 57 345 76 b 363 119 357 103 360 111 b 408 43 374 91 388 65 b 476 2 426 23 449 9 b 589 17 513 -7 556 -3 b 630 60 606 27 620 44 b 659 118 642 79 651 98 b 695 244 674 159 686 201 b 699 264 697 251 698 258 b 683 280 701 272 688 278 z m 208 628 b 211 628 209 628 210 628 b 208 628 210 628 209 628 b 208 628 208 628 208 628 z m 200 627 b 201 627 201 627 201 627 b 202 627 201 627 202 627 b 200 627 191 627 196 627 z m 280 217 b 260 136 275 190 269 162 b 224 64 251 111 240 86 b 213 52 221 60 217 56 b 203 44 210 49 207 46 b 203 44 203 44 203 44 b 189 54 198 47 193 50 b 157 110 174 70 164 90 b 137 286 139 166 137 227 b 136 314 137 295 137 305 b 136 316 136 315 136 316 b 136 319 136 317 136 318 b 134 379 135 339 134 359 b 141 492 134 417 136 455 b 156 555 145 513 149 534 b 192 617 164 577 175 599 b 205 626 196 620 200 623 b 206 626 205 626 206 626 b 220 615 211 623 216 619 b 264 538 241 594 255 566 b 290 385 280 489 287 437 b 280 217 292 329 289 272 z m 447 446 b 466 527 451 474 458 501 b 515 616 477 559 492 591 b 529 589 521 608 526 599 b 526 472 541 551 538 510 b 459 366 512 433 489 395 b 438 349 452 359 445 354 b 447 446 439 381 442 414 z "},"œ":{"ha":710,"x_min":0,"x_max":0,"o":"m 685 280 b 646 286 673 285 658 286 b 608 280 634 286 620 285 b 592 264 601 277 593 273 b 564 154 585 227 575 190 b 538 93 556 133 548 112 b 514 55 531 79 524 66 b 466 140 492 79 477 110 b 441 286 451 187 444 237 b 440 288 441 287 441 287 b 449 289 443 288 446 289 b 616 423 523 305 582 357 b 647 538 635 458 647 498 b 639 590 647 555 645 573 b 615 635 634 606 627 623 b 542 670 595 656 570 666 b 494 670 526 672 509 672 b 451 658 479 668 464 665 b 419 636 439 652 429 646 b 409 625 416 633 412 629 b 391 601 402 617 397 609 b 369 555 383 586 375 571 b 341 610 362 575 353 594 b 284 657 326 631 307 647 b 228 670 267 664 247 668 b 152 665 203 672 177 672 b 77 615 122 657 95 641 b 44 540 61 593 51 566 b 30 459 37 514 32 486 b 28 330 26 416 25 373 b 29 319 28 326 28 323 b 29 317 29 318 29 318 b 29 314 29 316 29 315 b 30 261 30 297 29 279 b 35 179 30 233 31 206 b 56 91 38 149 45 119 b 105 25 66 65 82 41 b 157 4 120 15 139 8 b 239 2 184 -1 212 -3 b 294 20 259 5 277 10 b 321 41 304 25 313 33 b 355 95 336 57 346 76 b 365 119 359 103 362 111 b 409 43 375 91 389 65 b 477 2 428 23 450 9 b 590 17 514 -7 557 -3 b 632 60 607 27 621 44 b 660 118 643 79 652 98 b 697 244 676 159 687 201 b 701 264 698 251 699 258 b 685 280 702 272 689 278 z m 210 628 b 213 628 211 628 212 628 b 210 628 212 628 211 628 b 210 628 210 628 210 628 z m 202 627 b 203 627 202 627 202 627 b 203 627 203 627 203 627 b 202 627 193 627 198 627 z m 281 217 b 262 136 276 190 270 162 b 225 64 253 111 242 86 b 215 52 222 60 219 56 b 204 44 211 49 208 46 b 204 44 204 44 204 44 b 191 54 199 47 195 50 b 158 110 175 70 165 90 b 138 286 140 166 139 227 b 138 314 138 295 138 305 b 137 316 138 315 138 316 b 138 319 138 317 138 318 b 135 379 136 339 135 359 b 143 492 135 417 137 455 b 157 555 146 513 151 534 b 193 617 165 577 176 599 b 206 626 197 620 201 623 b 207 626 207 626 207 626 b 222 615 212 623 217 619 b 266 538 243 594 256 566 b 291 385 282 489 289 437 b 281 217 293 329 290 272 z m 448 446 b 468 527 453 474 459 501 b 516 616 479 559 494 591 b 531 589 523 608 527 599 b 528 472 543 551 539 510 b 461 366 514 433 491 395 b 439 349 454 359 447 354 b 448 446 440 381 443 414 z "},"‰":{"ha":838,"x_min":0,"x_max":0,"o":"m 116 495 b 195 506 142 493 171 495 b 232 532 209 513 221 521 b 267 586 248 547 259 566 b 286 659 276 610 282 635 b 269 722 289 682 284 705 b 174 758 244 749 209 757 b 69 723 137 759 96 749 b 44 692 59 714 50 704 b 28 654 37 680 32 667 b 28 652 28 653 28 652 b 33 537 8 616 8 570 b 116 495 53 511 84 498 z m 127 627 b 140 651 130 635 134 643 b 140 662 142 654 142 658 b 166 704 146 677 154 692 b 168 705 167 704 167 705 b 175 691 171 701 173 696 b 175 647 179 677 177 662 b 164 603 172 632 168 617 b 136 552 157 584 148 567 b 126 571 132 558 129 564 b 127 627 121 589 122 608 z m 374 209 b 269 174 337 210 296 200 b 243 143 259 165 250 155 b 228 105 236 131 231 118 b 228 102 227 104 227 103 b 233 -12 208 67 208 21 b 316 -54 253 -38 284 -52 b 395 -43 342 -56 370 -54 b 432 -18 409 -36 420 -28 b 466 37 448 -2 459 17 b 485 110 475 60 482 85 b 468 173 488 132 483 156 b 374 209 444 200 408 208 z m 374 98 b 363 53 371 83 368 68 b 335 3 357 35 348 18 b 326 22 331 9 328 15 b 327 77 321 40 321 59 b 339 101 330 86 334 94 b 339 113 342 105 341 109 b 366 155 345 128 354 143 b 367 156 366 155 367 156 b 375 142 370 152 373 147 b 374 98 379 128 377 113 z m 750 173 b 656 209 726 200 691 208 b 551 174 619 210 578 200 b 525 143 541 165 532 155 b 510 105 518 131 514 118 b 510 102 510 104 510 103 b 515 -12 490 67 490 21 b 598 -54 535 -38 566 -52 b 677 -43 624 -56 653 -54 b 714 -18 691 -36 703 -28 b 749 37 730 -2 741 17 b 767 110 757 60 764 85 b 750 173 770 132 766 156 z m 656 98 b 645 53 654 83 650 68 b 618 3 639 35 630 18 b 608 22 614 9 611 15 b 609 77 603 40 603 59 b 621 101 612 86 616 94 b 621 113 624 105 624 109 b 648 155 628 128 636 143 b 650 156 648 155 649 156 b 657 142 653 152 655 147 b 656 98 661 128 659 113 z m 320 385 b 397 569 346 447 371 508 b 457 708 417 615 437 662 b 462 720 459 712 461 716 b 457 737 466 727 463 732 b 424 747 448 743 434 746 b 382 744 410 748 396 748 b 371 741 379 743 375 742 b 357 731 366 739 361 736 b 301 601 338 688 319 645 b 225 420 275 541 250 480 b 145 229 198 356 171 293 b 77 68 122 175 100 122 b 37 -25 64 37 51 6 b 35 -30 37 -26 36 -28 b 41 -46 32 -37 34 -42 b 73 -56 49 -53 63 -55 b 115 -54 87 -58 102 -58 b 126 -51 119 -53 122 -52 b 140 -41 132 -49 136 -46 b 175 40 153 -14 164 13 b 241 196 197 92 219 144 b 320 385 267 259 294 322 z "},"€":{"ha":454,"x_min":0,"x_max":0,"o":"m 432 132 b 399 142 423 138 409 141 b 357 140 385 143 371 144 b 346 137 354 139 350 138 b 332 127 341 135 336 131 b 286 56 320 101 306 76 b 271 44 282 52 276 48 b 253 58 264 48 258 53 b 218 115 237 74 225 94 b 205 197 209 141 207 169 b 200 279 203 224 201 252 b 203 279 201 279 202 279 b 245 281 217 278 232 278 b 270 294 252 283 267 287 b 232 321 280 313 243 320 b 199 323 221 322 210 322 b 198 352 198 333 198 342 b 203 352 200 352 202 352 b 245 354 217 351 232 351 b 270 367 252 355 267 360 b 232 394 280 386 243 393 b 199 396 221 395 210 395 b 205 470 200 421 202 445 b 221 548 208 496 212 523 b 254 606 228 569 238 590 b 268 616 258 610 263 613 b 274 619 270 617 272 618 b 276 619 275 619 275 619 b 277 619 276 619 277 619 b 278 619 277 619 278 619 b 279 619 279 619 279 619 b 281 618 279 619 280 619 b 289 613 284 617 286 615 b 302 592 294 607 299 600 b 304 577 303 587 304 582 b 320 562 304 569 314 564 b 358 556 331 557 346 555 b 397 562 371 556 385 557 b 413 577 403 565 413 569 b 329 658 412 623 369 650 b 228 658 296 664 262 664 b 165 632 206 654 183 646 b 112 551 138 611 123 582 b 94 451 102 518 97 484 b 90 397 92 433 91 415 b 70 396 84 397 77 397 b 31 390 57 396 43 395 b 15 374 26 388 14 382 b 31 359 16 366 24 362 b 70 353 43 354 57 352 b 89 354 76 353 83 353 b 90 324 89 344 89 334 b 70 323 83 324 76 324 b 31 317 57 323 43 322 b 15 302 26 315 14 309 b 31 286 16 294 24 289 b 70 280 43 282 57 279 b 91 281 77 280 84 281 b 96 206 92 256 94 231 b 117 92 99 167 101 129 b 193 14 132 57 159 30 b 275 -2 218 2 248 -2 b 360 20 305 -1 334 5 b 427 94 390 36 411 65 b 437 115 430 101 434 108 b 432 132 441 123 438 127 z m 264 41 b 264 41 264 41 264 41 b 261 40 263 41 262 41 b 265 41 262 41 264 41 b 264 41 265 41 264 41 z "}}}
